SplineFontDB: 3.2
FontName: honchokomono-light-normal
FullName: honchokomono greater
FamilyName: honchokomono-normal
Weight: light
Copyright: Copyright (c) 2024, honchokomodo
UComments: "2024-6-9: Created with FontForge (http://fontforge.org)"
Version: 001.000
ItalicAngle: 0
UnderlinePosition: 0
UnderlineWidth: 0
Ascent: 800
Descent: 200
InvalidEm: 0
LayerCount: 2
Layer: 0 0 "Back" 1
Layer: 1 0 "Fore" 0
XUID: [1021 669 1385941162 1060273]
FSType: 0
OS2Version: 4
OS2_WeightWidthSlopeOnly: 0
OS2_UseTypoMetrics: 1
CreationTime: 1717993120
ModificationTime: 1734655506
PfmFamily: 49
TTFWeight: 300
TTFWidth: 5
LineGap: 68
VLineGap: 0
OS2TypoAscent: 977
OS2TypoAOffset: 0
OS2TypoDescent: -273
OS2TypoDOffset: 0
OS2TypoLinegap: 0
OS2WinAscent: 977
OS2WinAOffset: 0
OS2WinDescent: 273
OS2WinDOffset: 0
HheadAscent: 977
HheadAOffset: 0
HheadDescent: -205
HheadDOffset: 0
OS2CapHeight: 735
OS2XHeight: 530
OS2Vendor: 'PfEd'
Lookup: 1 0 0 "rightarrowhead" { "rightarrowhead-1"  } ['aalt' ('DFLT' <'dflt' > 'latn' <'dflt' > ) ]
Lookup: 1 0 0 "leftarrowhead" { "leftarrowhead-1"  } ['aalt' ('DFLT' <'dflt' > 'latn' <'dflt' > ) ]
Lookup: 1 0 0 "longequal" { "longequal-1"  } ['aalt' ('DFLT' <'dflt' > 'latn' <'dflt' > ) ]
Lookup: 1 0 0 "rightequal" { "rightequal-1"  } ['aalt' ('DFLT' <'dflt' > 'latn' <'dflt' > ) ]
Lookup: 1 0 0 "leftequal" { "leftequal-1"  } ['aalt' ('DFLT' <'dflt' > 'latn' <'dflt' > ) ]
Lookup: 1 0 0 "longhyphen" { "longhyphen-1"  } ['aalt' ('DFLT' <'dflt' > 'latn' <'dflt' > ) ]
Lookup: 1 0 0 "righthyphen" { "righthyphen-1"  } ['aalt' ('DFLT' <'dflt' > 'latn' <'dflt' > ) ]
Lookup: 1 0 0 "lefthyphen" { "lefthyphen-1"  } ['aalt' ('DFLT' <'dflt' > 'latn' <'dflt' > ) ]
Lookup: 6 0 0 "caltrules" { "rightarrowhead"  "leftarrowhead"  "longequal"  "rightequal"  "leftequal"  "longhyphen"  "righthyphen"  "lefthyphen"  } ['calt' ('DFLT' <'dflt' > 'latn' <'dflt' > ) ]
Lookup: 4 0 1 "ligatures" { "ligatures-1"  } ['liga' ('DFLT' <'dflt' > 'latn' <'dflt' > ) ]
MarkAttachClasses: 1

StartChar: exclam
Encoding: 33 33 1
Width: 500
Flags: HW
LayerCount: 2
Fore
SplineSet
208.403320312 54.9697265625 m 0
 208.403320312 32.6025390625 228.556640625 11.65234375 251.596679688 11.65234375 c 0
 275.700517943 11.65234375 291.576013613 31.5451833933 291.576013613 52.1065681541 c 0
 291.576013613 62.3660216964 287.623521315 72.7919216591 278.768554688 80.99609375 c 1
 270.497486267 90.6350619073 259.617280245 94.9344397394 248.892498026 94.9344397394 c 0
 228.363161352 94.9344397394 208.403320312 79.1808880272 208.403320312 54.9697265625 c 0
264.241210938 283.078125 m 0
 264.241210938 368.01953125 270.11328125 462.086914062 270.11328125 549.51171875 c 0
 270.11328125 594.494140625 268.575195312 637.874023438 263.778320312 677.756835938 c 0
 262.586914062 687.661132812 254.14453125 695.34765625 243.921875 695.34765625 c 0
 232.883789062 695.34765625 223.921875 686.385742188 223.921875 675.34765625 c 0
 223.921875 669.791992188 230.11328125 636.138671875 230.11328125 549.51171875 c 0
 230.11328125 463.034179688 224.241210938 368.989257812 224.241210938 283.078125 c 0
 224.241210938 272.633789062 224.328125 262.298828125 224.5234375 252.100585938 c 0
 224.731445312 241.2421875 233.611328125 232.490234375 244.51953125 232.490234375 c 0
 255.557617188 232.490234375 264.51953125 241.452148438 264.51953125 252.490234375 c 0
 264.51953125 252.795898438 264.241210938 265.3359375 264.241210938 283.078125 c 0
EndSplineSet
EndChar

StartChar: quotedbl
Encoding: 34 34 2
Width: 500
Flags: HW
LayerCount: 2
Fore
SplineSet
165.75 723.141601562 m 0
 154.711914062 723.141601562 145.75 714.1796875 145.75 703.063476562 c 0
 145.755859375 701.456054688 145.977539062 562.497070312 146.251953125 542.364257812 c 0
 146.400390625 531.454101562 155.3046875 522.641601562 166.25 522.641601562 c 0
 177.290038068 522.641601562 186.249949151 531.605546752 186.249949151 542.640320119 c 0
 186.249949151 542.733050309 186.24931642 542.825926737 186.248046875 542.918945312 c 0
 185.981445312 562.536132812 185.755859375 701.6171875 185.75 703.220703125 c 0
 185.70703125 714.22265625 176.76171875 723.141601562 165.75 723.141601562 c 0
333.75 723.141601562 m 0
 322.711914062 723.141601562 313.75 714.1796875 313.75 703.063476562 c 0
 313.755859375 701.456054688 313.977539062 562.497070312 314.251953125 542.364257812 c 0
 314.400390625 531.454101562 323.3046875 522.641601562 334.25 522.641601562 c 0
 345.290038068 522.641601562 354.249949151 531.605546752 354.249949151 542.640320119 c 0
 354.249949151 542.733050309 354.24931642 542.825926737 354.248046875 542.918945312 c 0
 353.981445312 562.536132812 353.755859375 701.6171875 353.75 703.220703125 c 0
 353.70703125 714.22265625 344.76171875 723.141601562 333.75 723.141601562 c 0
EndSplineSet
EndChar

StartChar: numbersign
Encoding: 35 35 3
Width: 500
Flags: HW
LayerCount: 2
Fore
SplineSet
236.915039062 676.985351562 m 0
 236.969772875 677.596571212 236.996586362 678.203226072 236.996586362 678.804135947 c 0
 236.996586362 689.750231977 228.099390986 698.790039062 216.995117188 698.790039062 c 0
 206.565429688 698.790039062 197.989257812 690.7890625 197.075195312 680.594726562 c 0
 192.39162309 628.323572683 184.010609963 567.750530214 173.933293978 503.72809681 c 1
 108.736481755 504.621604334 76.629763406 506.939112339 76.58984375 506.940429688 c 1
 65.5517578125 506.940429688 56.58984375 497.978515625 56.58984375 486.940429688 c 0
 56.58984375 476.318359375 64.888671875 467.619140625 75.3505859375 466.978515625 c 0
 98.0264587811 465.589664099 129.156938696 464.453294456 167.521115731 463.851328635 c 1
 157.678953931 403.790552329 146.74761492 341.651433164 136.288798782 281.220889292 c 1
 135.133217371 281.221248581 133.986400885 281.221430958 132.848876829 281.221430958 c 0
 109.188830524 281.221430958 89.5489061668 281.142530259 78.67578125 280.935546875 c 0
 67.8154296875 280.729492188 59.0625 271.848632812 59.0625 260.939453125 c 0
 59.0625 249.901367188 68.0244140625 240.939453125 79.0625 240.939453125 c 0
 80.6172867934 240.939453125 95.2556140358 241.334012112 129.427649579 241.37037032 c 1
 117.873825425 173.807475476 107.375556575 109.530077514 100.220703125 54.0859375 c 0
 100.107789743 53.2105736514 100.052929788 52.3426921754 100.052929788 51.4858648398 c 0
 100.052929788 40.6044486096 108.900818701 31.505859375 120.055664062 31.505859375 c 0
 130.219726562 31.505859375 138.623046875 39.1044921875 139.890625 48.92578125 c 0
 147.311685993 106.434757427 158.118472672 172.257001383 169.940974036 241.11534751 c 1
 201.300170134 240.902563769 249.320981304 240.625605445 296.767927622 240.56238056 c 1
 285.197259681 169.144009476 267.985765547 55.6191334276 267.837890625 54.6689453125 c 1
 267.837890625 43.630859375 276.799804688 34.6689453125 287.837890625 34.6689453125 c 0
 297.883789062 34.6689453125 306.209960938 42.091796875 307.625976562 51.7470703125 c 0
 316.141195965 109.820311386 326.442412553 174.020192875 337.275187959 240.567699572 c 1
 370.783864146 240.628748626 401.308318727 240.847940007 422.045898438 241.334960938 c 0
 432.864257812 241.588867188 441.568359375 250.450195312 441.568359375 261.329101562 c 0
 441.568359375 272.3671875 432.606445312 281.329101562 421.568359375 281.329101562 c 0
 419.183339596 281.329101562 395.838477825 280.563437811 343.776592497 280.429159354 c 1
 355.183150252 350.284029775 364.435061898 406.943637613 373.55016264 465.388751402 c 1
 394.591421919 465.950129844 416.390534662 466.641238117 438.884765625 467.4765625 c 0
 449.57421875 467.874023438 458.130859375 476.676757812 458.130859375 487.462890625 c 0
 458.130859375 498.500976562 449.168945312 507.462890625 438.130859375 507.462890625 c 0
 437.191264007 507.462890625 414.816700811 506.55440999 379.745365919 505.594820663 c 1
 389.132560902 567.332339667 397.560722577 626.886513311 404.020507812 681.27734375 c 0
 404.116400748 682.084800599 404.163088597 682.885463908 404.163088597 683.676555243 c 0
 404.163088597 694.575274348 395.301705139 703.657226562 384.161132812 703.657226562 c 0
 373.927734375 703.657226562 365.479492188 695.955078125 364.301757812 686.037109375 c 0
 357.672897343 630.225562434 348.903587013 568.61368574 339.124302232 504.615530266 c 1
 306.025707162 503.925760264 267.146662013 503.3828125 226.524414062 503.3828125 c 0
 222.40332245 503.3828125 218.371922491 503.388696965 214.429634247 503.399987253 c 1
 224.141133221 565.553556679 232.234280524 624.746904121 236.915039062 676.985351562 c 0
332.907551162 464.442799907 m 1
 325.472654947 416.946507021 324.383244195 410.179413483 303.266068771 280.560931717 c 1
 274.050320161 280.737657801 223.498346961 281.021955946 176.859493076 281.152208862 c 1
 187.345435867 341.540715936 198.250030308 403.440591643 208.040545714 463.438993749 c 1
 215.189217293 463.403037884 222.526372503 463.384413552 230.04641267 463.384413552 c 0
 261.307160703 463.384413552 295.72826757 463.706252869 332.907551162 464.442799907 c 1
EndSplineSet
EndChar

StartChar: dollar
Encoding: 36 36 4
Width: 500
Flags: HW
LayerCount: 2
Fore
SplineSet
65.1171875 196.356445312 m 0
 65.1171875 180.921836851 113.369087133 129.896017824 164.058211181 106.4406676 c 1
 159.295625156 86.3340406682 154.36106675 65.6940894506 149.231445312 44.43359375 c 0
 148.848772177 42.8473518806 148.666655672 41.2674451853 148.666655672 39.717617621 c 0
 148.666655672 29.0066922051 157.364998774 19.732421875 168.674804688 19.732421875 c 0
 178.09375 19.732421875 186.001953125 26.2578125 188.118164062 35.03125 c 0
 192.925332222 54.9553983227 197.562273717 74.3390509984 202.047741844 93.2528765605 c 1
 216.690881062 89.7951782964 231.230323902 88.1761357241 245.472904288 88.1761357241 c 0
 347.825362313 88.1761357241 434.846679688 171.789839903 434.846679688 257.51171875 c 0
 434.846679688 290.640762917 419.734536989 374.780477757 271.421666482 402.695446267 c 1
 284.685595235 465.568815705 297.361562884 527.82306466 310.628587874 593.901119139 c 1
 337.067328403 584.653790299 365.971616354 570.14790334 396.981445312 549.25 c 0
 400.470509446 546.89884245 404.290980536 545.833633882 408.024147126 545.833633882 c 0
 418.419914423 545.833633882 428.138671875 554.093880413 428.138671875 565.84765625 c 0
 428.138671875 572.755859375 424.627929688 578.8515625 419.295898438 582.4453125 c 0
 383.420286957 606.622036555 349.695566962 623.183471976 318.555521375 633.473892377 c 1
 321.848896384 649.947819631 325.190952254 666.699561801 328.598632812 683.79296875 c 0
 328.863645159 685.122230363 328.990683984 686.442235039 328.990683984 687.739607223 c 0
 328.990683984 698.508917055 320.237157585 707.71875 308.984375 707.71875 c 0
 299.2890625 707.71875 291.196289062 700.805664062 289.370117188 691.64453125 c 0
 286.104183978 675.262151299 282.899533947 659.198471415 279.74116518 643.396824942 c 1
 265.967643528 645.848255234 252.826768588 647.000676857 240.365842453 647.000676857 c 0
 149.322426602 647.000676857 94.576171875 585.481878725 94.576171875 519.6171875 c 0
 94.576171875 459.925956708 138.001271138 401.164830479 224.288801253 373.345413953 c 1
 208.969424037 301.757685805 192.599841155 228.270507013 173.448560874 146.343522985 c 1
 148.816427644 159.218665293 124.18102298 179.450496122 100.759765625 208.813476562 c 0
 96.6131585759 214.011971392 90.959742844 216.330388136 85.3775376839 216.330388136 c 0
 75.1273104604 216.330388136 65.1171875 208.513265909 65.1171875 196.356445312 c 0
263.103127517 363.552635219 m 1
 293.149359835 357.880957535 394.846679688 335.59658816 394.846679688 257.51171875 c 0
 394.846679688 196.564147602 327.720774882 128.013154431 245.716835249 128.013154431 c 0
 234.447538014 128.013154431 222.897264405 129.307761531 211.201612939 132.09461873 c 1
 230.801053264 215.796614206 247.502811672 290.693014471 263.103127517 363.552635219 c 1
271.880342605 604.143550603 m 1
 258.570206552 537.827542501 245.884740808 475.488004879 232.626421806 412.60153829 c 1
 161.070959368 436.587200888 134.576171875 482.146573235 134.576171875 519.6171875 c 1
 134.576171875 566.200909895 173.464521593 607.004263589 240.117300847 607.004263589 c 0
 250.095218013 607.004263589 260.695338058 606.089857474 271.880342605 604.143550603 c 1
EndSplineSet
EndChar

StartChar: percent
Encoding: 37 37 5
Width: 500
Flags: HW
LayerCount: 2
Fore
SplineSet
406.702148438 667.922851562 m 0
 407.949271683 670.644490865 408.525264563 673.452479319 408.525264563 676.194477451 c 0
 408.525264563 686.700255671 400.069765167 696.237304688 388.509765625 696.237304688 c 0
 380.4375 696.237304688 373.475585938 691.444335938 370.317382812 684.551757812 c 0
 342.1171875 623.010742188 311.494140625 559.553710938 280.361328125 495.045898438 c 0
 212.079101562 353.55859375 141.33984375 207.06640625 88.3564453125 64.0703125 c 0
 87.5022863356 61.7652628483 87.1035511572 59.4290607297 87.1035511572 57.1455048093 c 0
 87.1035511572 46.5734998518 95.6498085144 37.1298828125 107.1171875 37.1298828125 c 0
 115.715820312 37.1298828125 123.053710938 42.5673828125 125.877929688 50.189453125 c 0
 177.940429688 190.696289062 248.134765625 336.228515625 316.408203125 477.697265625 c 0
 347.541015625 542.20703125 378.2734375 605.8828125 406.702148438 667.922851562 c 0
444.541992188 213.08984375 m 0
 444.541992188 227.794227553 442.020622017 343.067382812 362.951171875 343.067382812 c 0
 321.642578125 343.067382812 291.424804688 293.953125 291.424804688 217.11328125 c 0
 291.424804688 134.228515625 326.76171875 84.4013671875 374.38671875 84.4013671875 c 0
 416.252929688 84.4013671875 444.541992188 138.15234375 444.541992188 213.08984375 c 0
331.424804688 217.11328125 m 0
 331.424804688 260.170898438 346.078125 303.067382812 362.951171875 303.067382812 c 0
 394.991210938 303.067382812 404.541992188 245.221679688 404.541992188 213.08984375 c 0
 404.541992188 166.103515625 388.208007812 124.401367188 374.38671875 124.401367188 c 0
 342.9921875 124.401367188 331.424804688 181.146484375 331.424804688 217.11328125 c 0
133.421875 411.625 m 0
 179.123595893 411.625 207.625185149 493.466563464 207.625185149 567.162965696 c 0
 207.625185149 627.518087192 188.508844509 682.41015625 144.068359375 682.41015625 c 0
 87.7903424445 682.41015625 55.2555503798 604.31244175 55.2555503798 532.000225496 c 0
 55.2555503798 469.66288232 79.4336002146 411.625 133.421875 411.625 c 0
95.513671875 530.662109375 m 0
 95.513671875 583.115234375 117.1796875 642.41015625 144.068359375 642.41015625 c 0
 159.677251944 642.41015625 166.350857365 611.547307225 166.350857365 574.596201088 c 0
 166.350857365 522.956104182 153.316796783 459.425176605 133.421875 451.625 c 1
 96.0908203125 451.625 95.513671875 526.067382812 95.513671875 530.662109375 c 0
EndSplineSet
EndChar

StartChar: ampersand
Encoding: 38 38 6
Width: 500
Flags: HW
LayerCount: 2
Fore
SplineSet
320.614257812 185.264648438 m 1
 285.904296875 144.865234375 225.786132812 85.9111328125 170.541992188 85.9111328125 c 0
 122.275578902 85.9111328125 93.6504811363 135.649027067 93.6504811363 198.876381376 c 0
 93.6504811363 255.898521479 116.932679505 323.892302184 170.086914062 376.268554688 c 1
 201.603515625 312.431640625 249.610351562 249.5 320.614257812 185.264648438 c 1
200.779296875 403.961914062 m 1
 320.225585938 511.850585938 341.06640625 570.107421875 341.06640625 605.365234375 c 0
 341.06640625 656.526195771 295.976573446 683.547871845 246.585373823 683.547871845 c 0
 186.77702994 683.547871845 120.661569091 643.925844984 120.661569091 559.563918762 c 0
 120.661569091 552.101546338 121.1788946 544.28910313 122.263671875 536.123046875 c 0
 127.740234375 494.896484375 137.467773438 454.704101562 152.974609375 415.02734375 c 1
 84.4552831112 353.94494485 53.7951117998 271.353754226 53.7951117998 199.783824092 c 0
 53.7951117998 115.139602515 96.6803692291 45.9111328125 170.541992188 45.9111328125 c 0
 211.263671875 45.9111328125 272.498046875 67.7919921875 350.844726562 159.005859375 c 1
 370.54296875 142.551757812 391.790039062 125.993164062 414.69140625 109.293945312 c 0
 418.320884523 106.647534998 422.367699712 105.452721641 426.324718083 105.452721641 c 0
 436.699516022 105.452721641 446.45703125 113.666126491 446.45703125 125.46484375 c 0
 446.45703125 132.107421875 443.211914062 137.997070312 438.22265625 141.635742188 c 0
 415.805664062 157.98046875 395.112304688 174.0859375 376.015625 190 c 1
 386.7421875 203.922851562 397.645507812 218.978515625 408.72265625 235.223632812 c 0
 411.116810576 238.734591549 412.200911747 242.5888717 412.200911747 246.355361074 c 0
 412.200911747 256.747693462 403.947711586 266.471679687 392.1875 266.471679688 c 0
 385.318359375 266.471679688 379.25390625 263.000976562 375.65234375 257.719726562 c 0
 365.4765625 242.797851562 355.497070312 229.000976562 345.736328125 216.2734375 c 1
 274.807617188 280.46875 229.35546875 341.92578125 200.779296875 403.961914062 c 1
161.9140625 541.431640625 m 0
 161.034831973 548.050392899 160.619153605 554.268724024 160.619153605 560.107671915 c 0
 160.619153605 625.094937058 212.111744805 643.085708508 249.091626508 643.085708508 c 0
 263.631683571 643.085708508 275.92811864 640.304388415 281.96875 636.504882812 c 0
 296.323242188 627.4765625 301.06640625 618.294921875 301.06640625 605.365234375 c 0
 301.06640625 559.416992188 233.05859375 488.26171875 184.791015625 443.55078125 c 1
 173.567382812 475.686523438 166.333007812 508.163085938 161.9140625 541.431640625 c 0
EndSplineSet
EndChar

StartChar: quotesingle
Encoding: 39 39 7
Width: 500
Flags: HW
LayerCount: 2
Fore
SplineSet
229.286132812 582.0625 m 0
 229.286132812 540.089190055 229.286132812 523.205078125 250.25 523.205078125 c 0
 261.288085938 523.205078125 270.25 532.166992188 270.25 543.205078125 c 0
 270.25 543.59375 269.286132812 554.1328125 269.286132812 582.0625 c 0
 269.286132812 602.326972878 270.150603589 646.382248737 270.150603589 677.571223265 c 0
 270.150603589 688.911807259 270.036310765 698.551320546 269.724609375 704.727539062 c 0
 269.19140625 715.291992188 260.4453125 723.705078125 249.75 723.705078125 c 0
 238.711914062 723.705078125 229.75 714.743164062 229.75 703.705078125 c 0
 229.75 703.44921875 230.20703125 695.749023438 230.20703125 678.143554688 c 0
 230.20703125 677.182617188 229.286132812 586.240234375 229.286132812 582.0625 c 0
EndSplineSet
EndChar

StartChar: parenleft
Encoding: 40 40 8
Width: 500
Flags: HW
LayerCount: 2
Fore
SplineSet
385.315429688 718.809570312 m 0
 385.315429688 730.075767224 376.090697319 738.815906183 365.33531263 738.815906183 c 0
 363.979384069 738.815906183 362.599127963 738.676994089 361.209960938 738.38671875 c 0
 218.584527311 708.584982234 114.895821365 522.377705835 114.895821365 341.287898274 c 0
 114.895821365 192.942016196 184.477424505 48.0302755953 359.236328125 -4.654296875 c 0
 361.172414604 -5.23799394523 363.11363722 -5.51314147191 365.013973454 -5.51314147191 c 0
 375.653127563 -5.51314147191 385.010742188 3.1110604142 385.010742188 14.498046875 c 0
 385.010742188 23.529296875 379.01171875 31.169921875 370.78515625 33.650390625 c 0
 214.994253872 80.6166538025 154.507253865 208.524615075 154.507253865 340.063803325 c 0
 154.507253865 504.20807156 248.69690204 674.006843928 369.420898438 699.232421875 c 0
 378.4921875 701.127929688 385.315429688 709.177734375 385.315429688 718.809570312 c 0
EndSplineSet
EndChar

StartChar: parenright
Encoding: 41 41 9
Width: 500
Flags: HW
LayerCount: 2
Fore
SplineSet
196.346679688 740.615234375 m 0
 192.657642429 743.40200617 188.507479998 744.658371424 184.447909986 744.658371424 c 0
 174.08245323 744.658371424 164.307617188 736.467450485 164.307617188 724.647460938 c 0
 164.307617188 718.127929688 167.434570312 712.33203125 172.268554688 708.6796875 c 0
 282.394922552 625.48454426 328.646463664 507.844670477 328.646463664 391.790243582 c 0
 328.646463664 244.456220632 254.10311809 99.6774534088 141.075195312 31.1748046875 c 0
 134.450268504 27.1596519954 131.483868867 20.7410799092 131.483868867 14.3623820121 c 0
 131.483868867 4.15947905699 139.073367783 -5.94140625 151.419921875 -5.94140625 c 0
 155.205078125 -5.94140625 158.745117188 -4.8876953125 161.764648438 -3.0576171875 c 0
 288.44174208 73.7170192684 368.613647689 231.195194519 368.613647689 391.156440501 c 0
 368.613647689 519.516076516 316.989891183 649.474594805 196.346679688 740.615234375 c 0
EndSplineSet
EndChar

StartChar: asterisk
Encoding: 42 42 10
Width: 500
Flags: HW
LayerCount: 2
Fore
SplineSet
387.49609375 278.880859375 m 0
 387.49609375 296.361716797 331.295360087 345.069831242 296.210705275 368.180263332 c 1
 325.248645879 386.127721568 354.621547928 407.538568809 385.811523438 441.90625 c 0
 389.396370663 445.855938808 391.002258921 450.550572014 391.002258921 455.154604274 c 0
 391.002258921 465.474330554 382.93409036 475.338867188 370.999023438 475.338867188 c 0
 351.008036872 475.338867188 351.333009866 448.387937003 269.941821769 398.868446948 c 1
 269.419715111 453.06754403 269.172078525 478.774320941 269.172078525 504.407608812 c 0
 269.172078525 511.383758465 269.190420148 518.354465028 269.2265625 525.892578125 c 0
 269.2265625 536.930664062 260.265625 545.892578125 249.2265625 545.892578125 c 0
 238.221679688 545.892578125 229.28125 536.984375 229.227539062 525.9921875 c 0
 229.198134524 519.955889073 229.184833991 513.849188792 229.184833991 507.681248148 c 0
 229.184833991 475.419914539 229.548709917 441.483167397 229.875297283 407.181975989 c 1
 204.562222083 421.895415106 178.576396182 438.711378786 149.651367188 465.487304688 c 0
 145.679108704 469.164623587 140.92504693 470.811033768 136.26111277 470.811033768 c 0
 125.945760519 470.811033768 116.071289063 462.757224374 116.071289062 450.809570312 c 0
 116.071289062 428.344736655 194.32723708 381.35751485 217.55449587 368.266160893 c 1
 186.459288586 349.721466589 153.938911884 327.74463547 118.198242188 291.151367188 c 0
 114.265169165 287.124523473 112.506541608 282.20981432 112.506541608 277.383505106 c 0
 112.506541608 267.080663114 120.520695299 257.180664062 132.50390625 257.180664062 c 0
 150.856132528 257.180664062 154.056796854 282.269377643 230.378678072 329.368682216 c 1
 230.381087637 327.373911818 230.38233256 325.381283598 230.38233256 323.391059903 c 0
 230.38233256 282.301880741 229.85170052 242.237598932 228.083984375 205.506835938 c 0
 228.068157169 205.177888231 228.060331866 204.850525099 228.060331866 204.524927103 c 0
 228.060331866 193.519828256 237.000087462 184.53125 248.060546875 184.53125 c 0
 258.772460938 184.53125 267.528320312 192.969726562 268.037109375 203.555664062 c 0
 269.8601095 241.43083169 270.4052804 281.236411478 270.4052804 321.811756574 c 0
 270.4052804 327.029593973 270.39626491 332.260160978 270.379792 337.500989363 c 1
 295.782460061 321.070434528 322.170701536 300.067958854 352.48828125 265.666992188 c 0
 356.614749941 260.984667402 361.976158179 258.895783245 367.257751912 258.895783245 c 0
 377.527815488 258.895783245 387.49609375 266.794028891 387.49609375 278.880859375 c 0
EndSplineSet
EndChar

StartChar: plus
Encoding: 43 43 11
Width: 500
Flags: HW
LayerCount: 2
Fore
SplineSet
247.3671875 547.296875 m 0
 236.29821268 547.296875 227.366956986 538.298971197 227.366956986 527.305921392 c 0
 227.366956986 526.913737696 227.378324231 526.51901468 227.401367188 526.122070312 c 0
 230.162518723 478.532011951 231.185007539 438.862242214 231.62886104 399.867707593 c 1
 198.548712216 399.662113851 162.915335025 399.105325782 119.346679688 397.397460938 c 0
 108.676757812 396.979492188 100.142578125 388.185546875 100.142578125 377.413085938 c 0
 100.142578125 366.359515048 109.122873993 357.412985067 120.137606826 357.412985067 c 0
 120.403411208 357.412985067 120.670400323 357.418194985 120.938476562 357.428710938 c 0
 164.494508584 359.136123187 199.436196126 359.681730837 231.927293938 359.876118919 c 1
 232.361639036 266.903141844 232.381508421 265.890475082 233.08203125 230.1875 c 0
 233.294921875 219.333007812 242.173828125 210.586914062 253.078125 210.586914062 c 0
 264.121083809 210.586914062 273.078175755 219.553853601 273.078175755 230.584482695 c 0
 273.078175755 230.718132309 273.076860827 230.852084878 273.07421875 230.986328125 c 0
 272.38135038 266.283794114 272.357943966 267.476209806 271.926720401 359.995103853 c 1
 272.415625803 359.995103853 272.904562898 359.997070312 273.393554688 359.997070312 c 0
 306.533203125 360.041015625 339.918945312 360.084960938 380.359375 361.08203125 c 0
 391.166015625 361.348632812 399.857421875 370.206054688 399.857421875 381.076171875 c 0
 399.857421875 392.121548654 390.888369501 401.076515551 379.859627144 401.076515551 c 0
 379.692365576 401.076515551 379.524630264 401.074455849 379.356445312 401.0703125 c 0
 339.442765094 400.085724563 305.726713536 400.054548231 271.629101657 399.998981731 c 1
 271.181799522 439.50488739 270.145477927 480.011255333 267.333007812 528.471679688 c 0
 266.724609375 538.963867188 258.01171875 547.296875 247.3671875 547.296875 c 0
EndSplineSet
EndChar

StartChar: comma
Encoding: 44 44 12
Width: 500
Flags: HW
LayerCount: 2
Fore
SplineSet
275.397460938 122.794921875 m 0
 275.397460938 118.9375 277.672851562 110.7890625 277.672851562 94.986328125 c 0
 277.672851562 31.57421875 237.670898438 -26.6396484375 194.435546875 -44.728515625 c 0
 186.067782893 -48.2289974866 182.267084167 -55.5490569975 182.267084167 -62.8728858542 c 0
 182.267084167 -73.0265704392 189.572322807 -83.1875 202.140625 -83.1875 c 0
 230.592585055 -83.1875 317.817785999 -12.2112852543 317.817785999 93.7267082256 c 0
 317.817785999 104.183385858 316.967967988 114.980689239 315.127929688 126.083984375 c 0
 313.557617188 135.559570312 305.315429688 142.794921875 295.397460938 142.794921875 c 0
 284.359375 142.794921875 275.397460938 133.833007812 275.397460938 122.794921875 c 0
EndSplineSet
EndChar

StartChar: hyphen
Encoding: 45 45 13
Width: 500
Flags: HW
LayerCount: 2
Fore
SplineSet
100.142578125 358.326171875 m 0
 100.142578125 347.272600986 109.122873993 338.326071004 120.137606826 338.326071004 c 0
 120.403411208 338.326071004 120.670400323 338.331280923 120.938476562 338.341796875 c 0
 179.003505545 340.618002644 377.765696994 341.931169318 380.359375 341.995117188 c 0
 391.166015625 342.26171875 399.857421875 351.118164062 399.857421875 361.989257812 c 0
 399.857421875 373.033689944 390.887393757 381.989600844 379.858599326 381.989600844 c 0
 379.691354531 381.989600844 379.523636305 381.987541358 379.35546875 381.983398438 c 0
 286.719726562 379.698242188 227.466796875 382.548828125 119.346679688 378.310546875 c 0
 108.676757812 377.892578125 100.142578125 369.09765625 100.142578125 358.326171875 c 0
EndSplineSet
Substitution2: "longhyphen-1" longhyphen
Substitution2: "righthyphen-1" righthyphen
Substitution2: "lefthyphen-1" lefthyphen
EndChar

StartChar: period
Encoding: 46 46 14
Width: 500
Flags: HW
LayerCount: 2
Fore
SplineSet
208.403320312 54.9697265625 m 0
 208.403320312 32.6025390625 228.556640625 11.65234375 251.596679688 11.65234375 c 0
 275.700517943 11.65234375 291.576013613 31.5451833933 291.576013613 52.1065681541 c 0
 291.576013613 62.3660216964 287.623521315 72.7919216591 278.768554688 80.99609375 c 1
 270.497486267 90.6350619073 259.617280245 94.9344397394 248.892498026 94.9344397394 c 0
 228.363161352 94.9344397394 208.403320312 79.1808880272 208.403320312 54.9697265625 c 0
EndSplineSet
EndChar

StartChar: slash
Encoding: 47 47 15
Width: 500
Flags: HW
LayerCount: 2
Fore
SplineSet
414.2421875 678.4921875 m 0
 415.441366121 681.168747813 415.995853234 683.923897392 415.995853234 686.614462792 c 0
 415.995853234 697.127390602 407.530370735 706.654296875 395.98046875 706.654296875 c 0
 387.848632812 706.654296875 380.84375 701.791015625 377.71875 694.81640625 c 0
 323.177734375 573.098632812 157.729492188 268.264648438 85.091796875 56.0537109375 c 0
 84.3530010188 53.8953226014 84.0067894403 51.7181838082 84.0067894403 49.588979606 c 0
 84.0067894403 38.9912593846 92.5837193064 29.5810546875 104.01953125 29.5810546875 c 0
 112.79296875 29.5810546875 120.254882812 35.2431640625 122.947265625 43.1083984375 c 0
 172.61328125 188.209960938 268.908203125 382.328125 340.790039062 527.0390625 c 0
 371.477539062 588.817382812 397.706054688 641.588867188 414.2421875 678.4921875 c 0
EndSplineSet
EndChar

StartChar: zero
Encoding: 48 48 16
Width: 500
Flags: HW
LayerCount: 2
Fore
SplineSet
115.383789062 -4.1474609375 m 0
 128.949834122 -4.1474609375 129.421680067 -2.98700581824 148.36621512 43.6050714178 c 1
 183.696994455 20.1652925253 222.162541737 10.029296875 254.145507812 10.029296875 c 0
 404.239257812 10.029296875 457.772460938 232.509765625 457.772460938 346.956054688 c 0
 457.772460938 395.27083062 453.101654902 548.047710603 397.17442046 645.568886776 c 1
 406.113496214 664.169964718 414.180480066 679.898985558 421.1484375 692.064453125 c 0
 422.966630394 695.238681718 423.796845654 698.610539516 423.796845654 701.902825485 c 0
 423.796845654 712.343210802 415.447957099 721.983398438 403.78125 721.983398438 c 0
 391.265339083 721.983398438 387.78244789 716.26566582 370.694513748 682.459061918 c 1
 346.838042949 708.550808682 316.211116928 725.7421875 278.619140625 725.7421875 c 0
 135.893554688 725.7421875 42.2275390625 497.450195312 42.2275390625 275.33984375 c 0
 42.2275390625 178.07759409 73.8476254702 111.98228709 115.937951661 70.0875310117 c 1
 109.226262476 53.5201440604 102.854014962 37.911176588 96.890625 23.4765625 c 0
 95.8513899139 20.9612415639 95.368880133 18.3912241741 95.368880133 15.8806714739 c 0
 95.368880133 5.34276463063 103.870000137 -4.1474609375 115.383789062 -4.1474609375 c 0
82.2275390625 275.33984375 m 0
 82.2275390625 473.952148438 165.194335938 685.7421875 278.619140625 685.7421875 c 0
 308.143977497 685.7421875 332.230831486 669.479382573 351.555423063 642.867455211 c 1
 311.152157824 556.199805414 311.152157824 556.199805414 132.451873393 111.054936094 c 1
 103.649509843 145.708840122 82.2275390625 198.087850988 82.2275390625 275.33984375 c 0
163.746692601 81.6404998093 m 1
 340.84367634 521.624493401 340.84367634 521.624493401 375.688374201 599.167801702 c 1
 405.514044315 529.540918417 417.772460937 429.983273522 417.772460938 346.956054688 c 0
 417.772460938 252.528320312 373.58984375 50.029296875 254.145507812 50.029296875 c 0
 230.75513662 50.029296875 195.94103717 58.1834162314 163.746692601 81.6404998093 c 1
EndSplineSet
EndChar

StartChar: one
Encoding: 49 49 17
Width: 500
Flags: HW
LayerCount: 2
Fore
SplineSet
157.94921875 52.0576171875 m 1
 75.2714115104 52.0576171875 66.8828125 47.0421103134 66.8828125 28.9189453125 c 0
 66.8828125 17.880859375 75.8447265625 8.9189453125 86.8828125 8.9189453125 c 0
 87.59375 8.9189453125 108.74609375 12.0576171875 157.94921875 12.0576171875 c 0
 204.094726562 12.0576171875 258.323242188 9.8330078125 309.0078125 9.8330078125 c 0
 348.1796875 9.8330078125 385.379882812 11.0859375 416.297851562 16.03515625 c 0
 425.826171875 17.560546875 433.1171875 25.8271484375 433.1171875 35.783203125 c 0
 433.1171875 46.8212890625 424.155273438 55.783203125 413.1171875 55.783203125 c 0
 407.021484375 55.783203125 387.287109375 49.8330078125 309.0078125 49.8330078125 c 0
 300.284143494 49.8330078125 291.436596113 49.9005185636 282.525538074 50.0120187007 c 1
 286.471701247 99.0700524721 289.788223912 186.96993323 289.788223912 309.18227112 c 0
 289.788223912 418.672947249 287.126229493 555.704387793 279.870117188 717.01953125 c 0
 279.346283947 728.659845084 269.644936116 736.090453893 259.670574146 736.090453893 c 0
 254.3599893 736.090453893 248.972011826 733.984063563 244.850585938 729.28515625 c 0
 190.756835938 667.610351562 172.068359375 612.869140625 126.69140625 562.124023438 c 0
 123.175093299 558.191844325 121.599212146 553.541329643 121.599212146 548.981696456 c 0
 121.599212146 538.658306217 129.677295661 528.80078125 141.602539062 528.80078125 c 0
 147.525390625 528.80078125 152.850585938 531.380859375 156.513671875 535.477539062 c 0
 193.337890625 576.657226562 212.958984375 617.99609375 242.219726562 660.620117188 c 1
 247.369140625 530.662109375 249.76953125 407.5859375 249.76953125 303.025390625 c 0
 249.76953125 150.161794867 244.680225028 76.9901054376 242.47583653 50.7254712222 c 1
 213.329940006 51.3442709969 158.366978103 52.0510332681 157.94921875 52.0576171875 c 1
EndSplineSet
EndChar

StartChar: two
Encoding: 50 50 18
Width: 500
Flags: HW
LayerCount: 2
Fore
SplineSet
366.49609375 462.348632812 m 0
 378.549698776 498.028798763 383.910025481 530.55785075 383.910025481 559.641255774 c 0
 383.910025481 665.81584052 312.469950867 726.068359375 234.444335938 726.068359375 c 0
 161.123046875 726.068359375 85.51171875 673.150390625 54.8330078125 567.763671875 c 0
 54.2863602108 565.886100005 54.0282749338 564.006046197 54.0282749338 562.165027144 c 0
 54.0282749338 551.514797942 62.6653078071 542.170898438 74.0390625 542.170898438 c 0
 83.13671875 542.170898438 90.8232421875 548.2578125 93.2451171875 556.578125 c 0
 119.969726562 648.379882812 181.35546875 686.068359375 234.444335938 686.068359375 c 0
 292.290200394 686.068359375 343.918775992 641.76390709 343.918775992 559.610502523 c 0
 343.918775992 534.837459207 339.224185278 506.622807482 328.58984375 475.143554688 c 0
 276.211914062 320.1015625 129.427734375 160.85546875 65.3544921875 39.705078125 c 0
 63.7606745439 36.6919126831 63.0299708572 33.5289447367 63.0299708572 30.4409181269 c 0
 63.0299708572 19.9777756623 71.4188416974 10.375 83.0458984375 10.375 c 0
 84.2158203125 10.375 114.958007812 14.0322265625 200.014648438 14.0322265625 c 0
 229.76953125 14.0322265625 260.165039062 13.7041015625 289.686523438 13.7041015625 c 0
 340.87109375 13.7041015625 389.506835938 14.60546875 428.818359375 20.2392578125 c 0
 438.504882812 21.626953125 445.9609375 29.9677734375 445.9609375 40.0361328125 c 0
 445.9609375 51.07421875 436.999023438 60.0361328125 425.9609375 60.0361328125 c 0
 424.596679688 60.0361328125 394.810546875 53.7041015625 289.686523438 53.7041015625 c 0
 260.325195312 53.7041015625 229.926757812 54.0322265625 200.014648438 54.0322265625 c 0
 172.193359375 54.0322265625 144.747070312 53.7568359375 118.786132812 52.6455078125 c 1
 140.37890625 88.1875 167.880859375 127.301757812 197.016601562 168.639648438 c 0
 260.305664062 258.436523438 331.529296875 358.842773438 366.49609375 462.348632812 c 0
EndSplineSet
EndChar

StartChar: three
Encoding: 51 51 19
Width: 500
Flags: HW
LayerCount: 2
Fore
SplineSet
219.153320312 366.640625 m 0
 222.327148438 366.640625 232.599609375 368.620117188 249.001953125 368.620117188 c 0
 357.704638086 368.620117188 411.239757106 275.940404129 411.239757106 185.66389662 c 0
 411.239757106 181.842789935 411.143846287 178.025988712 410.952148438 174.220703125 c 0
 407.388095827 103.455712841 320.594142135 48.4488967031 232.828764536 48.4488967031 c 0
 177.099660179 48.4488967031 120.978880271 70.6274995297 85.5263671875 125.033203125 c 0
 81.4512845555 131.286740458 75.2278245003 134.081998654 69.0532100058 134.081998654 c 0
 58.8386749197 134.081998654 48.7578125 126.432386039 48.7578125 114.134765625 c 0
 48.7578125 110.116210938 49.9453125 106.372070312 51.9892578125 103.236328125 c 0
 95.0602819203 37.1391952756 165.406597678 8.40794513133 235.145369353 8.40794513133 c 0
 343.928021647 8.40794513133 451.232421875 78.3156787212 451.232421875 185.359375 c 0
 451.232421875 273.354492188 405.534179688 369.65625 311.463867188 399.376953125 c 1
 393.478273284 441.597811435 426.315944492 502.624229828 426.315944492 560.716397176 c 0
 426.315944492 648.160469707 351.911660428 728.956054688 258.830078125 728.956054688 c 0
 199.93359375 728.956054688 137.500976562 695.749023438 86.2705078125 618.981445312 c 0
 83.9538845052 615.510102811 82.90385949 611.717003214 82.90385949 608.010914407 c 0
 82.90385949 597.612688361 91.1696902764 587.899414062 102.91796875 587.899414062 c 0
 109.858398438 587.899414062 115.978515625 591.442382812 119.565429688 596.817382812 c 0
 164.092157617 663.539337775 214.182315307 688.998797399 258.832644564 688.998797399 c 0
 329.37227865 688.998797399 386.334960937 625.456011008 386.334960938 560.681640625 c 0
 386.334960938 505.127929688 345.731445312 439.231445312 214.249023438 406.034179688 c 0
 205.578125 403.844726562 199.153320312 395.987304688 199.153320312 386.640625 c 0
 199.153320312 375.602539062 208.115234375 366.640625 219.153320312 366.640625 c 0
EndSplineSet
EndChar

StartChar: four
Encoding: 52 52 20
Width: 500
Flags: HW
LayerCount: 2
Fore
SplineSet
425.624023438 705.771484375 m 0
 425.678659998 706.382185035 425.705426268 706.988323374 425.705426268 707.58872275 c 0
 425.705426268 718.535324188 416.807967184 727.57421875 405.704101562 727.57421875 c 0
 395.2734375 727.57421875 386.697265625 719.572265625 385.784179688 709.376953125 c 0
 377.732013382 619.423740637 371.350837062 517.847592238 365.479188423 413.343160544 c 1
 283.857047368 397.613291485 183.239910152 400.496489185 115.356445312 395.470703125 c 1
 119.585983116 471.670639463 120.422135568 486.73487736 159.963867188 665.364257812 c 0
 160.288228008 666.829679813 160.443115267 668.286921076 160.443115267 669.717647936 c 0
 160.443115267 680.455695364 151.71836775 689.700195312 140.435546875 689.700195312 c 0
 130.885742188 689.700195312 122.890625 682.9921875 120.907226562 674.036132812 c 0
 87.5435666771 523.323172297 78.5438982347 482.669158941 74.3115234375 374.2265625 c 0
 74.3010647989 373.958586566 74.2958846863 373.691785763 74.2958846863 373.426251367 c 0
 74.2958846863 362.322173583 83.3545167165 353.43270327 94.2749782603 353.43270327 c 0
 95.041511751 353.43270327 95.8172184274 353.476501461 96.599609375 353.56640625 c 0
 165.611910393 361.4965588 269.730981232 355.936732787 363.200988865 372.246450672 c 1
 361.582755254 342.704730568 359.992775948 313.021473407 358.405273438 283.389648438 c 0
 345.875 49.48828125 343.705078125 28.3134765625 343.705078125 25.732421875 c 0
 343.705078125 14.6943359375 352.666992188 5.732421875 363.705078125 5.732421875 c 0
 374.302734375 5.732421875 382.985351562 13.9921875 383.663085938 24.419921875 c 0
 384.105208115 31.2320137109 412.468316242 558.812886922 425.624023438 705.771484375 c 0
EndSplineSet
EndChar

StartChar: five
Encoding: 53 53 21
Width: 500
Flags: HW
LayerCount: 2
Fore
SplineSet
429.897460938 258.1796875 m 0
 429.897460938 366.503352859 365.897572826 464.395208318 236.966197701 464.395208318 c 0
 202.689126852 464.395208318 163.822765772 457.476313392 120.349609375 441.995117188 c 1
 126.625976562 515.541015625 128.596679688 613.870117188 133.288085938 670.083007812 c 1
 332.516185712 677.407471304 345.781479156 677.895159324 425.12109375 685.80859375 c 0
 435.219726562 686.815429688 443.116210938 695.34765625 443.116210938 705.708984375 c 0
 443.116210938 716.825103602 434.062354767 725.710286053 423.13288951 725.710286053 c 0
 422.465484833 725.710286053 421.7910862 725.677154102 421.111328125 725.609375 c 0
 353.558945576 718.872170599 353.558945576 718.872170599 114.307617188 709.389648438 c 0
 104.456054688 708.999023438 96.42578125 701.466796875 95.2587890625 691.833007812 c 0
 88.2841796875 634.29296875 86.9404296875 493 77.291015625 413.85546875 c 0
 77.1873929724 413.005589753 77.1371864352 412.167431267 77.1371864352 411.343328801 c 0
 77.1371864352 400.047616216 86.5696493971 391.392653129 97.1695307297 391.392653129 c 0
 99.7457232741 391.392653129 102.390873262 391.903887273 104.986328125 393.012695312 c 0
 156.482605638 415.01279138 200.249283492 424.487442631 236.878085611 424.487442631 c 0
 343.796554956 424.487442631 389.897460938 343.759614881 389.897460938 258.1796875 c 0
 389.897460938 159.555945209 327.753626241 49.8289574481 209.873016617 49.8289574481 c 0
 173.772217291 49.8289574481 132.443957881 60.1200704414 86.072265625 84.1728515625 c 0
 83.0987423977 85.715313179 79.9856577626 86.4231748355 76.9463445194 86.4231748355 c 0
 66.4774338054 86.4231748355 56.8837890625 78.0246994257 56.8837890625 66.4072265625 c 0
 56.8837890625 58.6806640625 61.2744140625 51.9716796875 67.6953125 48.6416015625 c 0
 120.18086161 21.4175310586 167.891270505 9.66752373373 210.197806348 9.66752373373 c 0
 349.226578738 9.66752373373 429.897460938 136.559038512 429.897460938 258.1796875 c 0
EndSplineSet
EndChar

StartChar: six
Encoding: 54 54 22
Width: 500
Flags: HW
LayerCount: 2
Fore
SplineSet
438.694335938 214.298828125 m 0
 438.694335938 331.181349646 360.092376735 443.39005245 260.616334473 443.39005245 c 0
 210.355992221 443.39005245 154.76694968 414.745606353 101.294921875 343.586914062 c 1
 104.608398438 473.778320312 144.735351562 570.514648438 317.15625 692.463867188 c 0
 322.983686469 696.585686249 325.584875036 702.582357584 325.584875036 708.520484981 c 0
 325.584875036 718.748948743 317.867072962 728.803710938 305.625976562 728.803710938 c 0
 301.333984375 728.803710938 297.35546875 727.448242188 294.095703125 725.143554688 c 0
 103.984375 590.681640625 61.0654296875 479.0078125 61.0654296875 324.9375 c 0
 61.0654296875 250.708984375 70.6845703125 191.610351562 87.40234375 145.221679688 c 0
 120.999023438 51.994140625 184.901367188 10.6025390625 250.360351562 10.6025390625 c 0
 334.374023438 10.6025390625 438.694335938 80.4658203125 438.694335938 214.298828125 c 0
102.841796875 273.49609375 m 1
 158.060415933 367.664390004 213.271825503 403.060121165 260.789853407 403.060121165 c 0
 340.59109639 403.060121165 398.694335938 303.231888313 398.694335938 214.298828125 c 0
 398.694335938 190.795898438 394.768554688 167.706054688 386.501953125 146.690429688 c 0
 365.286571571 92.758979349 308.169565857 50.5851643104 250.547822306 50.5851643104 c 0
 182.993578001 50.5851643104 114.745591116 108.551437423 102.841796875 273.49609375 c 1
EndSplineSet
EndChar

StartChar: seven
Encoding: 55 55 23
Width: 500
Flags: HW
LayerCount: 2
Fore
SplineSet
160.174804688 714.594726562 m 0
 112.400390625 714.594726562 79.2236328125 717.494140625 78.4052734375 717.494140625 c 0
 67.3671875 717.494140625 58.4052734375 708.532226562 58.4052734375 697.494140625 c 0
 58.4052734375 686.963867188 66.5615234375 678.323242188 76.8955078125 677.55078125 c 0
 105.306207351 675.425842019 131.679824978 674.589618771 159.652424438 674.589618771 c 0
 195.275600221 674.589618771 233.492018586 675.945812874 281.811523438 677.723632812 c 0
 313.5390625 678.890625 349.049804688 680.197265625 390.421875 681.296875 c 1
 323.373046875 528.000976562 195.010742188 192.791992188 156.497070312 36.0283203125 c 0
 156.100763517 34.4153942682 155.912299716 32.8082912378 155.912299716 31.2320842269 c 0
 155.912299716 20.5270109101 164.605520878 11.2470703125 175.920898438 11.2470703125 c 0
 185.311523438 11.2470703125 193.19921875 17.7333984375 195.344726562 26.4658203125 c 0
 235.06640625 188.1484375 379.435546875 561.849609375 439.793945312 693.755859375 c 0
 441.038849907 696.476406052 441.61338996 699.280666704 441.61338996 702.017992095 c 0
 441.61338996 712.533242261 433.135131004 722.060755407 421.610566777 722.060755407 c 0
 421.457059887 722.060755407 421.303012515 722.059065019 421.1484375 722.055664062 c 0
 299.330078125 719.374023438 227.041992188 714.594726562 160.174804688 714.594726562 c 0
EndSplineSet
EndChar

StartChar: eight
Encoding: 56 56 24
Width: 500
Flags: HW
LayerCount: 2
Fore
SplineSet
104.109375 579.48046875 m 0
 104.109375 628.974635183 158.599225892 685.451171875 224.22265625 685.451171875 c 0
 262.946289062 685.451171875 308.137695312 667.62109375 355.537109375 631.565429688 c 1
 291.90625 560.518554688 240.532226562 496.64453125 199.657226562 439.34765625 c 1
 181.100585938 453.953125 104.109375 515.202148438 104.109375 579.48046875 c 0
224.22265625 725.451171875 m 0
 136.901112877 725.451171875 64.109375 651.072867521 64.109375 579.48046875 c 0
 64.109375 560.055664062 66.3193359375 492.471679688 176.787109375 406.361328125 c 1
 112.831054688 311.283203125 63.302734375 211.734375 63.302734375 131.432617188 c 0
 63.302734375 46.5222602351 119.695665661 5.24265716947 190.592924712 5.24265716947 c 0
 225.842346131 5.24265716947 264.677209542 15.446895837 301.94921875 35.56640625 c 0
 375.5325169 75.2873201728 413.439945065 132.120278679 413.439945065 192.859946356 c 0
 413.439945065 261.403065788 365.166618362 334.921195589 265.413085938 394.4375 c 0
 254.013671875 401.240234375 242.8203125 408.358398438 231.982421875 415.731445312 c 1
 281.159179688 484.694335938 346.52734375 564.301757812 431.43359375 655.290039062 c 0
 435.14863569 659.271204109 436.811600454 664.049318258 436.811600454 668.737455573 c 0
 436.811600454 679.050803808 428.763715415 688.928710938 416.810546875 688.928710938 c 0
 407.864726606 688.928710938 407.864726606 688.928710938 382.5 661.296875 c 1
 329.762695312 702.131835938 276.000976562 725.451171875 224.22265625 725.451171875 c 0
282.990234375 70.791015625 m 0
 254.210445952 55.2552565996 220.011826389 45.1889691278 189.212923597 45.1889691278 c 0
 142.316728943 45.1889691278 103.302734375 68.5275285759 103.302734375 131.432617188 c 0
 103.302734375 175.422851562 122.7265625 254.0390625 209.1875 382.819335938 c 1
 220.83984375 374.905273438 232.8125 367.310546875 244.961914062 360.0625 c 0
 327.426560027 310.86053759 373.309635912 249.89787112 373.309635912 192.499992971 c 0
 373.309635912 147.198081848 344.727551618 104.116795177 282.990234375 70.791015625 c 0
EndSplineSet
EndChar

StartChar: nine
Encoding: 57 57 25
Width: 500
Flags: HW
LayerCount: 2
Fore
SplineSet
232.716796875 410.158203125 m 0
 171.928710938 410.158203125 115.966796875 479.603515625 115.966796875 550.00390625 c 0
 115.966796875 630.735548394 166.361842279 687.952000698 240.410432657 687.952000698 c 0
 281.644796472 687.952000698 330.213841517 670.209863561 381.5 628.90625 c 0
 380.598632812 627.232421875 379.928710938 625.415039062 379.534179688 623.498046875 c 0
 345.083984375 456.251953125 280.615234375 410.158203125 232.716796875 410.158203125 c 0
75.966796875 550.00390625 m 0
 75.966796875 454.740117731 151.263057473 370.089742125 233.218375457 370.089742125 c 0
 270.536253706 370.089742125 309.234809828 387.641010096 342.833984375 429.733398438 c 1
 319.301757812 296.931640625 293.67578125 136.313476562 281.275390625 33.7587890625 c 0
 281.17600857 32.9369888381 281.127643235 32.1221240025 281.127643235 31.3171309949 c 0
 281.127643235 20.4230267049 289.985589485 11.3369140625 301.129882812 11.3369140625 c 0
 311.348632812 11.3369140625 319.788085938 19.017578125 320.984375 28.9150390625 c 0
 341.958984375 202.376953125 403.037109375 553.049804688 423.389648438 631.122070312 c 0
 423.572475703 631.823449072 423.992589815 633.705669444 423.992589815 636.19290326 c 0
 423.992589815 640.441383666 422.766841565 646.455084875 417.0390625 651.364257812 c 0
 354.165628965 705.258377208 293.25991903 727.9845499 240.73924558 727.9845499 c 0
 144.18278622 727.9845499 75.966796875 651.172669961 75.966796875 550.00390625 c 0
EndSplineSet
EndChar

StartChar: colon
Encoding: 58 58 26
Width: 500
Flags: HW
LayerCount: 2
Fore
SplineSet
208.403320312 581.01171875 m 0
 208.403320312 558.64453125 228.556640625 537.694335938 251.596679688 537.694335938 c 0
 275.700517943 537.694335938 291.576013613 557.587175581 291.576013613 578.148560342 c 0
 291.576013613 588.408013884 287.623521315 598.833913847 278.768554688 607.038085938 c 1
 270.497486267 616.677054095 259.617280245 620.976431927 248.892498026 620.976431927 c 0
 228.363161352 620.976431927 208.403320312 605.222880215 208.403320312 581.01171875 c 0
208.403320312 161.01171875 m 0
 208.403320312 138.64453125 228.556640625 117.694335938 251.596679688 117.694335938 c 0
 275.700517943 117.694335938 291.576013613 137.587175581 291.576013613 158.148560342 c 0
 291.576013613 168.408013884 287.623521315 178.833913847 278.768554688 187.038085938 c 1
 270.497486267 196.677054095 259.617280245 200.976431927 248.892498026 200.976431927 c 0
 228.363161352 200.976431927 208.403320312 185.222880215 208.403320312 161.01171875 c 0
EndSplineSet
EndChar

StartChar: semicolon
Encoding: 59 59 27
Width: 500
Flags: HW
LayerCount: 2
Fore
SplineSet
239.818359375 137.749023438 m 0
 239.818359375 133.891601562 242.09375 125.743164062 242.09375 109.939453125 c 0
 242.09375 46.52734375 202.091796875 -11.685546875 158.85546875 -29.7744140625 c 0
 150.487704768 -33.2748959241 146.687006042 -40.594955435 146.687006042 -47.9187842917 c 0
 146.687006042 -58.0724688767 153.992244682 -68.2333984375 166.560546875 -68.2333984375 c 0
 195.011928496 -68.2333984375 282.238745575 2.74061512089 282.238745575 108.680169965 c 0
 282.238745575 119.137021103 281.388908666 129.934535911 279.548828125 141.038085938 c 0
 277.978515625 150.513671875 269.736328125 157.749023438 259.818359375 157.749023438 c 0
 248.780273438 157.749023438 239.818359375 148.787109375 239.818359375 137.749023438 c 0
208.403320312 581.01171875 m 0
 208.403320312 558.64453125 228.556640625 537.694335938 251.596679688 537.694335938 c 0
 275.700517943 537.694335938 291.576013613 557.587175581 291.576013613 578.148560342 c 0
 291.576013613 588.408013884 287.623521315 598.833913847 278.768554688 607.038085938 c 1
 270.497486267 616.677054095 259.617280245 620.976431927 248.892498026 620.976431927 c 0
 228.363161352 620.976431927 208.403320312 605.222880215 208.403320312 581.01171875 c 0
EndSplineSet
EndChar

StartChar: less
Encoding: 60 60 28
Width: 500
Flags: HW
LayerCount: 2
Fore
SplineSet
353.775390625 193.47265625 m 0
 356.307654371 192.417325786 358.896906437 191.927559563 361.426172564 191.927559563 c 0
 371.961500754 191.927559563 381.456054688 200.425152314 381.456054688 211.942382812 c 0
 381.456054688 220.259765625 376.3671875 227.3984375 369.13671875 230.412109375 c 0
 304.836914062 257.209960938 230.620117188 318.793945312 167.265625 373.094726562 c 1
 231.841796875 421.166992188 319.709960938 485.591796875 374.272460938 515.381835938 c 0
 381.418626492 519.283324929 384.628622363 525.972698735 384.628622363 532.635332049 c 0
 384.628622363 542.823048 377.12335263 552.948242188 364.708984375 552.948242188 c 0
 348.9562368 552.948242188 268.367497561 498.454969746 123.344726562 390.237304688 c 0
 118.002722216 386.251242123 115.295325595 380.227689723 115.295325595 374.18894274 c 0
 115.295325595 368.615420532 117.601635624 363.028954739 122.271484375 359.01953125 c 0
 206.142578125 287.006835938 278.58203125 224.809570312 353.775390625 193.47265625 c 0
EndSplineSet
Substitution2: "leftarrowhead-1" leftarrowhead
EndChar

StartChar: equal
Encoding: 61 61 29
Width: 500
Flags: HW
LayerCount: 2
Fore
SplineSet
100.142578125 295.286132812 m 0
 100.142578125 284.232027302 109.123742704 275.286097696 120.139205069 275.286097696 c 0
 120.404481447 275.286097696 120.67093762 275.291285902 120.938476562 275.301757812 c 0
 178.978112414 277.577875327 377.7656984 278.89204422 380.359375 278.956054688 c 0
 391.166015625 279.22265625 399.857421875 288.079101562 399.857421875 298.94921875 c 0
 399.857421875 309.994595529 390.887421899 318.949562426 379.858651229 318.949562426 c 0
 379.691389231 318.949562426 379.523653702 318.947502724 379.35546875 318.943359375 c 0
 286.719726562 316.659179688 227.466796875 319.509765625 119.346679688 315.271484375 c 0
 108.676757812 314.852539062 100.142578125 306.05859375 100.142578125 295.286132812 c 0
100.142578125 437.286132812 m 0
 100.142578125 426.232027302 109.123742704 417.286097696 120.139205069 417.286097696 c 0
 120.404481447 417.286097696 120.67093762 417.291285902 120.938476562 417.301757812 c 0
 178.978112414 419.577875327 377.7656984 420.89204422 380.359375 420.956054688 c 0
 391.166015625 421.22265625 399.857421875 430.079101562 399.857421875 440.94921875 c 0
 399.857421875 451.994595529 390.887421899 460.949562426 379.858651229 460.949562426 c 0
 379.691389231 460.949562426 379.523653702 460.947502724 379.35546875 460.943359375 c 0
 286.719726562 458.659179688 227.466796875 461.509765625 119.346679688 457.271484375 c 0
 108.676757812 456.852539062 100.142578125 448.05859375 100.142578125 437.286132812 c 0
EndSplineSet
Substitution2: "longequal-1" longequal
Substitution2: "rightequal-1" rightequal
Substitution2: "leftequal-1" leftequal
EndChar

StartChar: greater
Encoding: 62 62 30
Width: 500
Flags: HW
LayerCount: 2
Fore
SplineSet
126.646484375 212.250976562 m 0
 119.722880896 208.296376715 116.617452353 201.722171657 116.617452353 195.180470823 c 0
 116.617452353 184.986315576 124.158690727 174.87109375 136.543945312 174.87109375 c 0
 164.23855979 174.87109375 281.672889197 288.46201585 374.9140625 343.923828125 c 0
 381.389978244 347.776193927 384.693719129 354.45111747 384.693719129 361.146088907 c 0
 384.693719129 367.257841579 381.940504534 373.38630142 376.333984375 377.399414062 c 0
 207.455274795 498.287649808 196.94460174 505.811491774 145.657226562 536.98046875 c 0
 142.365686885 538.980594431 138.833902392 539.89122798 135.384788014 539.89122798 c 0
 124.960846332 539.89122798 115.291992188 531.573735839 115.291992188 519.875976562 c 0
 115.291992188 512.630859375 119.15234375 506.28125 124.926757812 502.771484375 c 0
 159.923828125 481.50390625 195.515625 458.297851562 328.880859375 362.247070312 c 1
 251.0703125 310.993164062 180.0390625 242.74609375 126.646484375 212.250976562 c 0
EndSplineSet
Substitution2: "rightarrowhead-1" rightarrowhead
EndChar

StartChar: question
Encoding: 63 63 31
Width: 500
Flags: HW
LayerCount: 2
Fore
SplineSet
286.965820312 48.865234375 m 0
 286.965820312 71.4598890444 265.890970589 92.8740234375 243.009765625 92.8740234375 c 0
 220.825813876 92.8740234375 202.862456787 74.3735486181 202.862456787 53.0912299109 c 0
 202.862456787 41.2485794683 208.424667524 28.544553178 221.916992188 17.6875 c 0
 229.494242104 11.590081851 238.166611988 8.8479143334 246.656058425 8.8479143334 c 0
 267.354642603 8.8479143334 286.965820312 25.1489995134 286.965820312 48.865234375 c 0
269.348632812 227.545898438 m 0
 269.348632812 230.001953125 268.493164062 234.638671875 268.493164062 243.536132812 c 0
 268.493164062 308.010742188 318.668945312 357.397460938 359.698242188 396.170898438 c 0
 371.583007812 407.403320312 382.381835938 417.471679688 390.811523438 427.685546875 c 0
 422.045961454 465.531806056 435.321566187 503.729945129 435.321566187 539.111100197 c 0
 435.321566187 629.995191943 347.725209727 702.291992187 251.909179688 702.291992188 c 0
 215.333984375 702.291992188 107.891601562 689.228515625 65.8232421875 541.0390625 c 0
 65.302118338 539.20292951 65.0558024448 537.36600216 65.0558024448 535.566806214 c 0
 65.0558024448 524.907896764 73.700723917 515.573242188 85.06640625 515.573242188 c 0
 94.2099609375 515.573242188 101.928710938 521.72265625 104.309570312 530.107421875 c 0
 131.528691214 625.990887302 192.639808305 662.418099763 251.862699988 662.418099763 c 0
 324.994029084 662.418099763 395.24609375 606.871989267 395.24609375 539.142578125 c 0
 395.24609375 484.792862597 355.784606653 447.498909554 332.235351562 425.243164062 c 0
 289.213872646 384.587543332 228.465850922 327.178638354 228.465850922 243.989374816 c 0
 228.465850922 237.933432858 228.78778058 231.740869792 229.461914062 225.408203125 c 0
 230.530273438 215.373046875 239.032226562 207.545898438 249.348632812 207.545898438 c 0
 260.38671875 207.545898438 269.348632812 216.5078125 269.348632812 227.545898438 c 0
EndSplineSet
EndChar

StartChar: at
Encoding: 64 64 32
Width: 500
Flags: HW
LayerCount: 2
Fore
SplineSet
283.645507812 112.994140625 m 0
 270.850183719 112.994140625 245.528660424 87.2431640625 208.514648438 87.2431640625 c 0
 133.532226562 87.2431640625 104.880859375 211.036132812 104.880859375 313.424804688 c 0
 104.880859375 450.92578125 186.022460938 651.453125 300.174804688 651.453125 c 0
 359.438412786 651.453125 395.07146661 537.047810781 395.07146661 443.464921461 c 0
 395.07146661 436.702776602 394.885416863 430.049351218 394.508789062 423.555664062 c 0
 391.294921875 368.14453125 370.797851562 301.73828125 353.422851562 293.622070312 c 1
 330.549179597 293.622070312 327.663366577 443.73113399 324.944335938 450.721679688 c 0
 317.927734375 468.763671875 309.634765625 490.083007812 276.251953125 490.083007812 c 0
 227.5234375 490.083007812 177.235351562 418.1484375 177.235351562 331.44140625 c 0
 177.235351562 273.1484375 207.297851562 241.984375 231.795898438 241.984375 c 0
 267.787109375 241.984375 289.3359375 275.409179688 301.578125 306.393554688 c 1
 308.020507812 283.96875 322.458007812 253.622070312 353.422851562 253.622070312 c 0
 410.392578125 253.622070312 435.08984375 373.000976562 435.08984375 444.092773438 c 0
 435.08984375 563.435546875 387.91015625 691.453125 300.174804688 691.453125 c 0
 157.650390625 691.453125 64.880859375 472.954101562 64.880859375 313.424804688 c 0
 64.880859375 151.359325877 120.662323532 47.2390521476 208.302332903 47.2390521476 c 0
 234.36306195 47.2390521476 263.240838896 56.4457436768 294.306640625 76.0732421875 c 0
 300.719716412 80.1249932476 303.58824174 86.4325469787 303.58824174 92.6949922558 c 0
 303.58824174 102.904511116 295.964268687 112.994140625 283.645507812 112.994140625 c 0
217.235351562 331.44140625 m 0
 217.235351562 399.271677879 255.607077886 450.213802198 277.309502094 450.213802198 c 0
 278.788592808 450.213802198 280.190256859 449.977182892 281.497070312 449.493164062 c 0
 281.767578125 449.090820312 283.526367188 446.35546875 286.451171875 439.240234375 c 0
 285.258789062 374.3125 261.254882812 285.807617188 233.759765625 282.111328125 c 0
 230.384765625 284.638671875 217.235351562 296.717773438 217.235351562 331.44140625 c 0
EndSplineSet
EndChar

StartChar: A
Encoding: 65 65 33
Width: 500
Flags: HW
LayerCount: 2
Fore
SplineSet
39.5771484375 31.1923828125 m 0
 39.4265306045 30.1835444046 39.3536472999 29.1833235794 39.3536472999 28.1972884819 c 0
 39.3536472999 17.3495721919 48.1746904126 8.21875 59.357421875 8.21875 c 0
 69.3857421875 8.21875 77.69921875 15.615234375 79.1376953125 25.2451171875 c 0
 85.7947621326 69.8342165456 111.305516333 164.942414335 143.023569576 272.558402087 c 1
 179.684798099 270.042695137 237.468783853 268.777242725 290.491929327 268.777242725 c 0
 317.517983472 268.777242725 343.307185087 269.1060036 364.432044914 269.765537843 c 1
 388.023939979 170.812023603 408.386675006 81.788990797 422.615234375 30.0712890625 c 0
 424.944335938 21.607421875 432.701171875 15.3818359375 441.901367188 15.3818359375 c 0
 453.255169132 15.3818359375 461.911465259 24.7041622923 461.911465259 35.3727936292 c 0
 461.911465259 37.121526699 461.678890953 38.9064318156 461.1875 40.6923828125 c 0
 422.767578125 180.33984375 350.864257812 540.995117188 279.724609375 713.770507812 c 0
 276.327205441 722.022575346 268.784205246 726.097213233 261.246814488 726.097213233 c 0
 253.388517577 726.097213233 245.536317917 721.668232154 242.39453125 712.926757812 c 0
 209.404985105 621.134933688 154.647019997 453.169027559 110.045304074 303.188419091 c 0
 108.738229117 300.701188597 50.3381183474 103.267200098 39.5771484375 31.1923828125 c 0
354.903351078 309.507506924 m 1
 340.375877885 309.133294827 319.322337526 308.7734375 291.717773438 308.7734375 c 0
 224.301896664 308.7734375 180.098795002 310.542206197 154.756815811 312.00291727 c 1
 190.297097185 430.442785944 231.256212826 558.051240832 261.8828125 647.484375 c 1
 293.676154882 555.689147268 326.251696931 428.247890966 354.903351078 309.507506924 c 1
EndSplineSet
EndChar

StartChar: B
Encoding: 66 66 34
Width: 500
Flags: HW
LayerCount: 2
Fore
SplineSet
174.887695312 368.920898438 m 0
 193.83047798 371.965085108 211.457296488 373.395021298 227.788650533 373.395021298 c 0
 336.450094942 373.395021298 387.76171875 310.092177974 387.76171875 237.776367188 c 0
 387.76171875 149.683537936 310.897976969 49.3440373139 160.235644959 49.3440373139 c 0
 145.695123484 49.3440373139 130.467219212 50.2786303247 114.5546875 52.2490234375 c 1
 121.305059723 112.272397246 123.434470305 194.177989696 123.434470305 304.039715335 c 0
 123.434470305 320.721801411 123.38537191 338.048479594 123.295898438 356.041015625 c 1
 141.590820312 359.744140625 158.779296875 364.059570312 174.887695312 368.920898438 c 0
195.904296875 686.998046875 m 0
 271.42233692 686.998046875 327.918785692 630.168923321 327.918785692 565.432013362 c 0
 327.918785692 507.742991884 283.054210117 443.774292858 166.805664062 408.145507812 c 0
 152.75390625 405.831054688 138.161132812 402.7265625 123.018554688 398.78515625 c 1
 122.473632812 468.140625 121.620117188 533.645507812 119.85546875 669.030273438 c 1
 146.94921875 681.66015625 172.609375 686.998046875 195.904296875 686.998046875 c 0
427.76171875 237.776367188 m 0
 427.76171875 318.853515625 375.704101562 394.743164062 269.396484375 410.44140625 c 1
 338.949277905 453.823378576 367.978522268 511.131951252 367.978522268 565.054247741 c 0
 367.978522268 650.253053779 295.507232832 726.998046875 195.904296875 726.998046875 c 0
 162.44921875 726.998046875 126.615234375 718.272460938 90.330078125 698.993164062 c 0
 88.504688463 698.023819208 79.6934140213 692.751553432 79.6934140213 681.345267448 c 0
 79.6934140213 681.248846165 79.6940436667 681.151986551 79.6953125 681.0546875 c 0
 82.2080078125 488.236328125 83.4306640625 394.442382812 83.4306640625 304.953125 c 0
 83.4306640625 71.0791015625 72.255859375 51.2822265625 72.255859375 35.318359375 c 0
 72.255859375 25.4296875 79.4482421875 17.20703125 88.8828125 15.6015625 c 0
 113.841612749 11.3556390439 137.526490219 9.37087926635 159.902088112 9.37087926635 c 0
 333.017187417 9.37087926635 427.76171875 128.174192032 427.76171875 237.776367188 c 0
EndSplineSet
EndChar

StartChar: C
Encoding: 67 67 35
Width: 500
Flags: HW
LayerCount: 2
Fore
SplineSet
428.879882812 655.29296875 m 0
 428.879882812 671.414934632 376.752418927 724.991210938 311.075195312 724.991210938 c 0
 178.590820312 724.991210938 49.26953125 526.154296875 49.26953125 297.094726562 c 0
 49.26953125 125.611328125 138.962890625 11.09375 248.127929688 11.09375 c 0
 326.428710938 11.09375 402.813476562 71.4580078125 449.3828125 191.420898438 c 0
 450.312000967 193.814703391 450.744770806 196.24868534 450.744770806 198.627146516 c 0
 450.744770806 209.184764179 442.217761962 218.6484375 430.73046875 218.6484375 c 0
 422.240234375 218.6484375 414.978515625 213.346679688 412.078125 205.875976562 c 0
 368.713867188 94.1669921875 303.764648438 51.09375 248.127929688 51.09375 c 0
 171.301757812 51.09375 89.26953125 136.043945312 89.26953125 297.094726562 c 0
 89.26953125 505.725585938 205.98828125 684.991210938 311.075195312 684.991210938 c 0
 338.491210938 684.991210938 366.49609375 673.0703125 393.88671875 642.061523438 c 0
 398.012414768 637.391080471 403.367093676 635.307449171 408.641761696 635.307449171 c 0
 418.912503704 635.307449171 428.879882812 643.207579415 428.879882812 655.29296875 c 0
EndSplineSet
EndChar

StartChar: D
Encoding: 68 68 36
Width: 500
Flags: HW
LayerCount: 2
Fore
SplineSet
226.543945312 688.599609375 m 0
 332.514088678 688.599609375 386.156176982 558.934685346 386.156176982 416.482694683 c 0
 386.156176982 242.860675115 306.47087206 50.2434721756 144.721148531 50.2434721756 c 0
 134.966266281 50.2434721756 124.912906348 50.9440429901 114.560546875 52.3916015625 c 1
 113.962716447 67.2400618649 113.489858576 80.9870304658 113.489858576 99.570199846 c 0
 113.489858576 141.78971605 115.930576309 208.97191497 124.891601562 370.747070312 c 0
 129.461914062 453.258789062 134.830078125 550.166015625 139.780273438 665.262695312 c 1
 172.909179688 681.709960938 201.831054688 688.599609375 226.543945312 688.599609375 c 0
91.376953125 15.802734375 m 0
 110.03474402 12.0100014525 127.967590515 10.198992365 145.161602826 10.198992365 c 0
 327.127717317 10.198992365 426.342773438 213.036005289 426.342773438 416.356445312 c 0
 426.342773438 592.075693139 352.623240811 728.586924292 226.675813172 728.586924292 c 0
 191.884222166 728.586924292 153.107225829 718.17002757 110.797851562 695.28515625 c 0
 104.780273438 692.03125 100.616210938 685.78125 100.310546875 678.540039062 c 0
 95.236328125 558.645507812 89.67578125 458.247070312 84.953125 372.990234375 c 0
 78.4717740835 255.982753103 73.688279277 169.151827116 73.688279277 99.227402669 c 0
 73.688279277 75.8265939217 74.2240133152 54.3192519196 75.4111328125 34.2080078125 c 0
 75.9501953125 25.07421875 82.630859375 17.5810546875 91.376953125 15.802734375 c 0
EndSplineSet
EndChar

StartChar: E
Encoding: 69 69 37
Width: 500
Flags: HW
LayerCount: 2
Fore
SplineSet
235.809570312 365.625976562 m 0
 258.750976562 365.625976562 272.975585938 364.615234375 273.3515625 364.615234375 c 0
 284.389648438 364.615234375 293.3515625 373.577148438 293.3515625 384.615234375 c 0
 293.3515625 395.224609375 285.072265625 403.916015625 274.627929688 404.575195312 c 0
 263.330754064 405.288069432 250.690165159 405.659469551 235.866830274 405.659469551 c 0
 206.372618557 405.659469551 168.236990227 404.189109196 114.848342379 401.012654071 c 1
 114.216105781 432.107849953 113.815903264 463.079307788 113.815903264 493.252652309 c 0
 113.815903264 563.936451547 116.01210728 630.240419093 122.56640625 683.495117188 c 1
 138.275962462 684.823340326 153.045860597 685.346520903 167.149745824 685.346520903 c 0
 219.50784428 685.346520903 262.687418762 678.136412196 310.688309782 678.136412196 c 0
 335.014005077 678.136412196 360.577919683 679.988125468 389.202148438 685.568359375 c 0
 398.404296875 687.362304688 405.359375 695.475585938 405.359375 705.19921875 c 0
 405.359375 716.237304688 396.397460938 725.19921875 385.359375 725.19921875 c 0
 379.467773438 725.19921875 355.700195312 718.135742188 310.495117188 718.135742188 c 0
 264.561514825 718.135742188 221.281267215 725.35798076 167.25423253 725.35798076 c 0
 147.370285222 725.35798076 126.030672418 724.379719682 102.567382812 721.703125 c 0
 93.5703125 720.676757812 86.3779296875 713.671875 85.068359375 704.763671875 c 0
 76.7685151711 648.339088689 73.7808183882 579.922729991 73.7808183882 497.93437647 c 0
 73.7808183882 428.236798372 75.9398925678 348.731349624 78.830078125 258.447265625 c 0
 80.935546875 192.663085938 82.8916015625 131.365234375 82.8916015625 81.79296875 c 0
 82.8916015625 47.60546875 81.8623046875 28.787109375 81.8623046875 28.251953125 c 0
 81.8623046875 17.2138671875 90.82421875 8.251953125 101.862304688 8.251953125 c 0
 106.421875 8.251953125 141.153320312 13.7978515625 193.780273438 13.7978515625 c 0
 213.172851562 13.7978515625 230.63671875 13.0751953125 247.64453125 12.369140625 c 0
 263.173152584 11.7236771675 278.301368344 11.0948529365 293.929461343 11.0948529365 c 0
 327.955302619 11.0948529365 364.350711651 14.0756680395 412.407226562 26.35546875 c 0
 421.049804688 28.5634765625 427.447265625 36.408203125 427.447265625 45.734375 c 0
 427.447265625 56.7724609375 418.485351562 65.734375 407.447265625 65.734375 c 0
 397.92578125 65.734375 362.783203125 51.0859375 294.12890625 51.0859375 c 0
 262.947265625 51.0859375 232.370117188 53.7978515625 193.780273438 53.7978515625 c 0
 172.821289062 53.7978515625 149.509765625 52.990234375 122.592773438 50.53515625 c 1
 122.791464701 60.0607644129 122.881793859 70.2030069306 122.881793859 80.8895695585 c 0
 122.881793859 155.810287329 118.442072125 257.484601317 115.776444602 360.994376363 c 1
 143.152219421 362.669579327 194.706755843 365.625976562 235.809570312 365.625976562 c 0
EndSplineSet
EndChar

StartChar: F
Encoding: 70 70 38
Width: 500
Flags: HW
LayerCount: 2
Fore
SplineSet
235.809570312 365.625976562 m 0
 258.750976562 365.625976562 272.975585938 364.615234375 273.3515625 364.615234375 c 0
 284.389648438 364.615234375 293.3515625 373.577148438 293.3515625 384.615234375 c 0
 293.3515625 395.224609375 285.072265625 403.916015625 274.627929688 404.575195312 c 0
 263.330754064 405.288069432 250.690165159 405.659469551 235.866830274 405.659469551 c 0
 206.369135551 405.659469551 168.227983147 404.188761902 114.829427562 401.011528666 c 1
 114.18021848 432.269531921 113.767999214 463.3991574 113.767999214 493.738312288 c 0
 113.767999214 563.962363441 115.976477267 629.951442836 122.56640625 683.495117188 c 1
 138.275962462 684.823340326 153.045860597 685.346520903 167.149745824 685.346520903 c 0
 219.50784428 685.346520903 262.687418762 678.136412196 310.688309782 678.136412196 c 0
 335.014005077 678.136412196 360.577919683 679.988125468 389.202148438 685.568359375 c 0
 398.404296875 687.362304688 405.359375 695.475585938 405.359375 705.19921875 c 0
 405.359375 716.237304688 396.397460938 725.19921875 385.359375 725.19921875 c 0
 379.467773438 725.19921875 355.700195312 718.135742188 310.495117188 718.135742188 c 0
 264.561514825 718.135742188 221.281267215 725.35798076 167.25423253 725.35798076 c 0
 147.370285222 725.35798076 126.030672418 724.379719682 102.567382812 721.703125 c 0
 93.5703125 720.676757812 86.3779296875 713.671875 85.068359375 704.763671875 c 0
 76.7685151711 648.339088689 73.7808183882 579.922729991 73.7808183882 497.93437647 c 0
 73.7808183882 428.236798372 75.9398925678 348.731349624 78.830078125 258.447265625 c 0
 80.935546875 192.663085938 82.8916015625 131.365234375 82.8916015625 81.79296875 c 0
 82.8916015625 47.60546875 81.8623046875 28.787109375 81.8623046875 28.251953125 c 0
 81.8623046875 17.2138671875 90.82421875 8.251953125 101.862304688 8.251953125 c 0
 112.58984375 8.251953125 121.35546875 16.7158203125 121.840820312 27.32421875 c 0
 122.580742015 43.4884217971 122.892952379 61.8496759355 122.892952379 81.971568427 c 0
 122.892952379 157.771164563 118.462547154 258.555009319 115.775924707 360.994344549 c 1
 143.1515667 362.669541897 194.706495647 365.625976562 235.809570312 365.625976562 c 0
EndSplineSet
EndChar

StartChar: G
Encoding: 71 71 39
Width: 500
Flags: HW
LayerCount: 2
Fore
SplineSet
438.567382812 655.196289062 m 0
 438.567382812 671.340865803 386.165679622 725.111328125 320.12109375 725.111328125 c 0
 186.890625 725.111328125 56.7275390625 525.486328125 56.7275390625 295.439453125 c 0
 56.7275390625 123.197265625 147.020507812 8.2822265625 256.760742188 8.2822265625 c 0
 381.278922531 8.2822265625 443.159241197 150.917717331 443.159241197 284.616219733 c 0
 443.159241197 315.042724615 439.954421574 345.006377392 433.553710938 372.720703125 c 0
 431.504882812 381.58984375 423.552734375 388.208984375 414.065429688 388.208984375 c 0
 374.9453125 388.208984375 305.096679688 380.688476562 268.975585938 380.688476562 c 0
 257.883789062 380.688476562 248.384765625 381.359375 248.176757812 381.359375 c 0
 237.138671875 381.359375 228.176757812 372.397460938 228.176757812 361.359375 c 0
 228.176757812 350.791992188 236.390625 342.127929688 246.776367188 341.408203125 c 0
 254.206844192 340.892992855 261.680259578 340.67262802 269.271994535 340.67262802 c 0
 306.36077496 340.67262802 346.273522368 345.93213848 397.799804688 347.766601562 c 1
 401.24266725 328.086705603 402.972936322 307.05257208 402.972936322 285.598969012 c 0
 402.972936322 172.744347246 355.093187668 48.2822265625 256.760742188 48.2822265625 c 0
 179.2890625 48.2822265625 96.7275390625 133.702148438 96.7275390625 295.439453125 c 0
 96.7275390625 505.000976562 214.2265625 685.111328125 320.12109375 685.111328125 c 0
 347.775390625 685.111328125 376.004882812 673.108398438 403.588867188 641.948242188 c 0
 407.713591492 637.289180855 413.061663566 635.21059768 418.329587072 635.21059768 c 0
 428.60083162 635.21059768 438.567382812 643.11255403 438.567382812 655.196289062 c 0
EndSplineSet
EndChar

StartChar: H
Encoding: 72 72 40
Width: 500
Flags: HW
LayerCount: 2
Fore
SplineSet
426.893554688 29.466796875 m 0
 426.893554688 30.76171875 424.5703125 71.9189453125 424.5703125 158.969726562 c 0
 424.5703125 210.656609741 434.104079041 680.393611006 434.104079041 695.814248927 c 0
 434.104079041 695.984044747 434.102923158 696.098758822 434.100585938 696.157226562 c 0
 433.674804688 706.819335938 424.883789062 715.345703125 414.1171875 715.345703125 c 0
 403.079101562 715.345703125 394.1171875 706.383789062 394.1171875 695.345703125 c 0
 394.1171875 694.170898438 394.423828125 689.455078125 394.423828125 674.54296875 c 0
 394.423828125 623.472131189 390.935092682 516.658977161 388.10942201 399.235920404 c 1
 363.409866121 401.803454592 341.244346981 402.760848294 320.536729076 402.760848294 c 0
 259.792368653 402.760848294 211.593270524 394.522460938 148.775390625 394.522460938 c 0
 134.324080201 394.522460938 120.89223437 395.037683308 110.598057452 395.588971832 c 1
 112.651452863 509.135856784 115.511904597 622.167989475 119.813476562 702.256835938 c 0
 119.813476562 716.461647241 110.014326508 723.158939282 100.119155807 723.158939282 c 0
 90.3705539015 723.158939282 80.5287548287 716.658580502 79.8720703125 704.432617188 c 0
 79.5138671961 697.763502602 65.53125 305.290967961 65.53125 36.7138671875 c 0
 65.53125 25.67578125 74.4931640625 16.7138671875 85.53125 16.7138671875 c 0
 96.4638671875 16.7138671875 105.359375 25.5048828125 105.528320312 36.3974609375 c 0
 105.577932086 39.5890106768 108.670667215 280.856847883 109.906071771 355.560970694 c 1
 123.502353349 354.832779076 136.374664179 354.527550756 148.697711053 354.527550756 c 0
 212.592790272 354.527550756 261.721296178 362.733398437 320.436523438 362.733398438 c 0
 346.904291631 362.733398438 371.294366611 360.775495352 387.184169747 359.145448126 c 1
 385.694869016 291.445409895 384.5703125 221.966973059 384.5703125 158.969726562 c 0
 384.5703125 110.572265625 385.229492188 65.9287109375 386.9140625 28.552734375 c 0
 387.392578125 17.9384765625 396.161132812 9.466796875 406.893554688 9.466796875 c 0
 417.931640625 9.466796875 426.893554688 18.4287109375 426.893554688 29.466796875 c 0
EndSplineSet
EndChar

StartChar: I
Encoding: 73 73 41
Width: 500
Flags: HW
LayerCount: 2
Fore
SplineSet
75.576171875 696.642578125 m 0
 75.576171875 681.674768581 80.618741551 674.439121919 140.321822276 674.439121919 c 0
 162.857762182 674.439121919 193.181802753 675.470066261 233.962495218 677.505251318 c 1
 234.196715411 669.053761536 234.391601562 657.873389702 234.391601562 643.973632812 c 0
 234.391601562 595.479492188 232.274414062 532.97265625 230 466.075195312 c 0
 227.228733076 384.551825927 224.55279944 303.094385827 224.55279944 230.886835235 c 0
 224.55279944 165.077061745 226.7755509 106.950664678 233.174691845 63.4603416606 c 1
 178.280837863 60.4351488808 85.8751656342 54.2077382591 85.8751656342 54.1958046429 c 0
 85.8751656342 54.1957931951 85.8752506702 54.195787467 85.8754208568 54.195787467 c 0
 85.8778175588 54.195787467 85.8971017486 54.1969234879 85.93359375 54.19921875 c 1
 74.8896484375 54.19921875 65.927734375 45.2373046875 65.927734375 34.19921875 c 0
 65.927734375 23.5380859375 74.439453125 14.19921875 86.0693359375 14.19921875 c 0
 146.708984375 14.19921875 211.215820312 25.1416015625 290.908203125 25.1416015625 c 0
 357.296875 25.1416015625 409.837890625 16.353515625 411.041992188 16.353515625 c 0
 422.080078125 16.353515625 431.041992188 25.3154296875 431.041992188 36.353515625 c 0
 431.041992188 46.3828125 423.643554688 54.6982421875 414.01171875 56.1337890625 c 0
 369.015059481 62.8432894217 328.26952914 65.1435075852 290.914492018 65.1435075852 c 0
 285.008102791 65.1435075852 279.18647702 65.0860013667 273.446212678 64.9793259034 c 1
 269.978498309 86.908625286 264.576171875 133.125569961 264.576171875 232.081054688 c 0
 264.576171875 305.682617188 267.3671875 387.931640625 269.9765625 464.694335938 c 0
 272.419102172 536.527145447 274.403378017 596.914225339 274.403378017 644.075228257 c 0
 274.403378017 656.862545645 274.257498314 668.677510229 273.935319749 679.484632991 c 1
 299.752010774 680.696828343 325.224623596 681.654296875 349.000976562 681.654296875 c 0
 389.307617188 681.654296875 413.420898438 678.551757812 414.072265625 678.551757812 c 0
 425.110351562 678.551757812 434.072265625 687.513671875 434.072265625 698.551757812 c 0
 434.072265625 708.823242188 426.3125 717.295898438 416.340820312 718.423828125 c 0
 395.671475389 720.761852145 372.840485875 721.628457409 348.966326496 721.628457409 c 0
 280.550285971 721.628457409 203.567522376 714.51171875 144.33984375 714.51171875 c 0
 114.288085938 714.51171875 96.064453125 716.642578125 95.576171875 716.642578125 c 0
 84.5380859375 716.642578125 75.576171875 707.680664062 75.576171875 696.642578125 c 0
EndSplineSet
EndChar

StartChar: J
Encoding: 74 74 42
Width: 500
Flags: HW
LayerCount: 2
Fore
SplineSet
110.838867188 183.78125 m 0
 110.838867188 202.370117188 113.206054688 214.784179688 113.206054688 218.094726562 c 0
 113.206054688 229.1328125 104.244140625 238.094726562 93.2060546875 238.094726562 c 0
 83.0673828125 238.094726562 74.6806640625 230.534179688 73.380859375 220.749023438 c 0
 71.6711152196 207.878307245 70.8594575425 195.648249581 70.8594575425 184.041311879 c 0
 70.8594575425 56.0887831834 169.495432164 3.8603515625 250.982421875 3.8603515625 c 0
 348.475585938 3.8603515625 429.015625 125.369140625 429.015625 376.07421875 c 0
 429.015625 544.159179688 414.38671875 624.446289062 393.33984375 711.896484375 c 0
 391.2265625 720.674804688 383.31640625 727.206054688 373.893554688 727.206054688 c 0
 362.584671939 727.206054688 353.88506776 717.933011245 353.88506776 707.221066719 c 0
 353.88506776 705.674715804 354.0663599 704.098379449 354.447265625 702.515625 c 0
 375.134765625 616.563476562 389.015625 542.163085938 389.015625 376.07421875 c 0
 389.015625 232.05859375 359.546875 128.715820312 317.943359375 79.3017578125 c 0
 297.360351562 54.853515625 275.1015625 43.8603515625 250.982421875 43.8603515625 c 0
 208.0703125 43.8603515625 110.838867188 66.3271484375 110.838867188 183.78125 c 0
EndSplineSet
EndChar

StartChar: K
Encoding: 75 75 43
Width: 500
Flags: HW
LayerCount: 2
Fore
SplineSet
355.251953125 37.240234375 m 0
 355.251953125 33.05078125 355.229492188 30.0927734375 355.229492188 29.8505859375 c 0
 355.229492188 18.8115234375 364.19140625 9.8505859375 375.229492188 9.8505859375 c 0
 386.2265625 9.8505859375 395.162109375 18.7451171875 395.229492188 29.7255859375 c 0
 395.244922849 32.2586632896 395.253224856 34.8365780273 395.253224856 37.4565732177 c 0
 395.253224856 132.002418992 384.442195574 281.346215528 307.681640625 355.93359375 c 0
 278.1328125 384.645507812 243.806640625 396.892578125 211.23046875 397.83203125 c 1
 274.666992188 475.311523438 333.8984375 594.436523438 383.068359375 693.96484375 c 0
 384.488478003 696.839334054 385.141834007 699.830162035 385.141834007 702.750208286 c 0
 385.141834007 713.23360651 376.720622163 722.8046875 365.125976562 722.8046875 c 0
 352.651958312 722.8046875 349.658324175 716.709080553 340.73046875 698.530273438 c 0
 305.945779207 627.729350174 221.454217833 455.751917802 151.696113328 392.485913769 c 1
 152.603951886 495.524252607 154.231181551 603.712746944 159.173828125 701.609375 c 0
 159.191213462 701.954145021 159.199804628 702.29719118 159.199804628 702.638305373 c 0
 159.199804628 713.640465506 150.262460756 722.6328125 139.19921875 722.6328125 c 0
 128.50390625 722.6328125 119.758789062 714.21875 119.224609375 703.655273438 c 0
 119.047256335 700.142346947 111.384779596 520.747700358 111.384779596 352.002599158 c 0
 110.20329512 218.965684728 109.569860685 97.0563394154 104.799804688 31.0966796875 c 0
 104.76406345 30.6024460312 104.746488207 30.1114538447 104.746488207 29.6243205821 c 0
 104.746488207 18.6515390101 113.663908557 9.63671875 124.747070312 9.63671875 c 0
 135.293945312 9.63671875 143.9453125 17.818359375 144.694335938 28.17578125 c 0
 149.892945967 100.065348944 150.361293641 215.069108366 151.296057867 342.275492016 c 1
 168.65036759 352.231036415 188.089344023 358.167232255 207.888358786 358.167232255 c 0
 279.232663564 358.167232255 355.251953125 281.087591503 355.251953125 37.240234375 c 0
EndSplineSet
EndChar

StartChar: L
Encoding: 76 76 44
Width: 500
Flags: HW
LayerCount: 2
Fore
SplineSet
113.176757812 314 m 0
 113.176757812 615.229492188 128.404296875 699.590820312 128.404296875 703.489257812 c 0
 128.404296875 714.52734375 119.442382812 723.489257812 108.404296875 723.489257812 c 0
 98.3564453125 723.489257812 90.029296875 716.063476562 88.6162109375 706.405273438 c 0
 77.28125 628.952148438 73.1767578125 465.9140625 73.1767578125 314 c 0
 73.1767578125 196.578125 75.71484375 86.734375 79.818359375 29.646484375 c 0
 80.5644362572 19.2752485387 89.2273004317 11.0981502533 99.7638841397 11.0981502533 c 0
 99.9572054825 11.0981502533 100.151157586 11.1009029552 100.345703125 11.1064453125 c 0
 172.58014465 13.163851456 275.74924039 25.3873227415 365.158886074 25.3873227415 c 0
 379.257780948 25.3873227415 393.014536907 25.0833770766 406.25390625 24.3876953125 c 0
 420.433692914 24.3876953125 427.128514133 34.1923261693 427.128514133 44.0905007329 c 0
 427.128514133 53.8440190632 420.627945087 63.6883669025 408.3828125 64.33203125 c 0
 394.392578125 65.0673828125 379.958984375 65.3837890625 365.244140625 65.3837890625 c 0
 284.041992188 65.3837890625 180.658203125 54.82421875 118.504882812 51.8427734375 c 1
 115.245117188 110.883789062 113.176757812 209.701171875 113.176757812 314 c 0
EndSplineSet
EndChar

StartChar: M
Encoding: 77 77 45
Width: 500
Flags: HW
LayerCount: 2
Fore
SplineSet
423.93359375 30.466796875 m 0
 423.922372865 38.167458395 423.916913749 45.9296095686 423.916913749 53.7444610498 c 0
 423.916913749 335.666145469 431.021484375 686.17275288 431.021484375 692.616210938 c 0
 431.021484375 705.181370785 420.861092083 712.490859312 410.706693073 712.490859312 c 0
 403.396918513 712.490859312 396.090249686 708.70306397 392.579101562 700.361328125 c 0
 358.305664062 618.9375 317.583007812 479.8828125 280.436523438 353.422851562 c 0
 268.698242188 313.462890625 257.342773438 274.80859375 246.7421875 239.806640625 c 1
 201.987304688 393.0703125 188.244140625 594.975585938 121.787109375 717.708007812 c 0
 117.912223305 724.864426717 111.156109495 728.129177553 104.429236139 728.129177553 c 0
 94.814819495 728.129177553 85.260134359 721.460043981 84.2626953125 709.952148438 c 0
 67.380859375 515.1796875 78.0869140625 205.291015625 69.0068359375 30.162109375 c 0
 69.0068359375 15.9973569395 78.8148601203 9.30387491423 88.7147919509 9.30387491423 c 0
 98.4711101043 9.30387491423 108.316688724 15.8045670908 108.952148438 28.0615234375 c 0
 116.834960938 180.091796875 109.983398438 428.356445312 118.65625 620.428710938 c 1
 162.979492188 481.737304688 177.818359375 295.321289062 229.060546875 167.762695312 c 0
 232.423338174 159.39068707 240.008245633 155.286073599 247.585832616 155.286073599 c 0
 255.667352863 155.286073599 263.74054659 159.954779707 266.674804688 169.094726562 c 0
 306.2265625 292.3125 341.963867188 429.028320312 388.75390625 572.15234375 c 1
 388.66853468 566.890609325 383.920951409 253.030079854 383.920951409 48.2398182665 c 0
 383.920951409 42.1970811527 383.925084942 36.2493072037 383.93359375 30.4072265625 c 0
 383.950195312 19.3828125 392.905273438 10.4375 403.93359375 10.4375 c 0
 414.971679688 10.4375 423.93359375 19.3984375 423.93359375 30.466796875 c 0
EndSplineSet
EndChar

StartChar: N
Encoding: 78 78 46
Width: 500
Flags: HW
LayerCount: 2
Fore
SplineSet
82.767578125 235.129882812 m 0
 82.767578125 100.307617188 76.482421875 35.447265625 76.482421875 28.498046875 c 0
 76.482421875 17.458984375 85.4443359375 8.498046875 96.482421875 8.498046875 c 0
 107.05859375 8.498046875 115.728515625 16.724609375 116.435546875 27.123046875 c 0
 121.377929688 99.7802734375 122.767578125 168.850585938 122.767578125 235.129882812 c 0
 122.767578125 244.829101562 120.4375 478.36328125 120.4375 480.8203125 c 0
 120.4375 531.126953125 121.396484375 580.233398438 124.506835938 628.661132812 c 1
 199.953125 466.788085938 318.729492188 181.508789062 375.680664062 22.716796875 c 0
 378.887507022 13.7753692913 386.595101102 9.59737498342 394.306929164 9.59737498342 c 0
 403.839704752 9.59737498342 413.378949874 15.9813606936 414.431640625 27.6435546875 c 0
 421.500976562 105.9765625 423.134765625 212.806640625 423.134765625 320.959960938 c 0
 423.134765625 420.584960938 421.715820312 521.30078125 421.715820312 600.916992188 c 0
 421.715820312 683.845703125 423.517578125 709.567382812 423.517578125 710.665039062 c 0
 423.517578125 721.703125 414.555664062 730.665039062 403.517578125 730.665039062 c 0
 392.815429688 730.665039062 384.065429688 722.240234375 383.541992188 711.666015625 c 0
 382.145507812 683.408203125 381.715820312 645.379882812 381.715820312 600.916992188 c 0
 381.715820312 521.046875 383.134765625 420.396484375 383.134765625 320.959960938 c 0
 383.134765625 252.624023438 382.44921875 184.844726562 380.19921875 125.07421875 c 1
 306.065429688 317.998046875 189.163085938 592.385742188 128.873046875 711.692382812 c 0
 125.095932408 719.167154535 118.149817487 722.608158719 111.227196522 722.608158719 c 0
 101.814089219 722.608158719 92.4444210381 716.245917767 91.14453125 705.01171875 c 0
 82.587890625 631.065429688 80.4375 556.873046875 80.4375 480.8203125 c 0
 80.4375 478.36328125 82.767578125 244.008789062 82.767578125 235.129882812 c 0
EndSplineSet
EndChar

StartChar: O
Encoding: 79 79 47
Width: 500
Flags: HW
LayerCount: 2
Fore
SplineSet
457.772460938 346.956054688 m 0
 457.772460938 388.314850978 452.445634877 725.7421875 278.619140625 725.7421875 c 0
 135.893554688 725.7421875 42.2275390625 497.450195312 42.2275390625 275.33984375 c 0
 42.2275390625 79.513671875 170.40625 10.029296875 254.145507812 10.029296875 c 0
 404.239257812 10.029296875 457.772460938 232.509765625 457.772460938 346.956054688 c 0
82.2275390625 275.33984375 m 0
 82.2275390625 473.952148438 165.194335938 685.7421875 278.619140625 685.7421875 c 0
 380.696289062 685.7421875 417.772460938 491.350585938 417.772460938 346.956054688 c 0
 417.772460938 252.528320312 373.58984375 50.029296875 254.145507812 50.029296875 c 0
 199.435546875 50.029296875 82.2275390625 94.6396484375 82.2275390625 275.33984375 c 0
EndSplineSet
EndChar

StartChar: P
Encoding: 80 80 48
Width: 500
Flags: HW
LayerCount: 2
Fore
SplineSet
87.15234375 520.575195312 m 0
 87.15234375 514.067382812 89.640625 323.624023438 89.640625 321.634765625 c 0
 89.640625 236.404296875 85.4833984375 147.4296875 66.1826171875 33.0478515625 c 0
 65.991124633 31.9129632243 65.8988086799 30.7873777002 65.8988086799 29.6791674016 c 0
 65.8988086799 18.8625314626 74.693423428 9.701171875 85.9033203125 9.701171875 c 0
 95.8017578125 9.701171875 104.030273438 16.9072265625 105.624023438 26.3544921875 c 0
 124.575901558 138.664039799 129.634677603 228.640758095 129.634677603 322.687611097 c 0
 129.634677603 331.247158904 129.592773305 339.840421612 129.515625 348.487304688 c 1
 202.239257812 362.416992188 434.096679688 410.296875 434.096679688 566.614257812 c 0
 434.096679688 703.010041393 318.193960196 730.345453995 218.914300593 730.345453995 c 0
 176.662799917 730.345453995 137.422049192 725.394494742 111.407226562 721.791992188 c 0
 102.206054688 720.517578125 94.99609375 712.973632812 94.2373046875 703.618164062 c 0
 88.7021484375 635.41015625 87.15234375 575.826171875 87.15234375 520.575195312 c 0
128.961914062 389.147460938 m 1
 127.97653993 446.3785003 127.222703818 490.160780054 127.222703818 529.066909159 c 0
 127.222703818 582.584819093 128.649096755 626.876178677 132.861328125 684.25390625 c 1
 166.061277063 688.32958478 195.085126877 690.181763237 220.451511984 690.181763237 c 0
 376.336333303 690.181763237 394.096679687 620.234081668 394.096679688 566.514648438 c 0
 394.069196846 510.217104073 348.755128101 432.886702319 128.961914062 389.147460938 c 1
EndSplineSet
EndChar

StartChar: Q
Encoding: 81 81 49
Width: 500
Flags: HW
LayerCount: 2
Fore
SplineSet
252.013671875 75.76953125 m 0
 252.013671875 133.80078125 261.083984375 196.629882812 261.083984375 197.854492188 c 0
 261.083984375 208.892578125 252.122070312 217.854492188 241.083984375 217.854492188 c 0
 230.948242188 217.854492188 222.563476562 210.298828125 221.259765625 200.517578125 c 0
 215.254078499 155.454274965 211.992683742 113.535389277 211.992683742 75.6433470175 c 0
 211.992683742 69.3263977157 212.083324207 63.1213621774 212.26700096 57.032328831 c 1
 154.697398044 75.3075237678 82.2275390625 133.251422787 82.2275390625 275.33984375 c 0
 82.2275390625 473.952148438 165.194335938 685.7421875 278.619140625 685.7421875 c 0
 380.696289062 685.7421875 417.772460938 491.350585938 417.772460938 346.956054688 c 0
 417.772460938 252.528320312 373.58984375 50.029296875 254.145507812 50.029296875 c 0
 253.63426724 50.029296875 253.117569287 50.0331922876 252.595560588 50.0410577577 c 0
 252.213978267 58.1841569769 252.013671875 66.7549958302 252.013671875 75.76953125 c 0
457.772460938 346.956054688 m 0
 457.772460938 388.314850978 452.445634877 725.7421875 278.619140625 725.7421875 c 0
 135.893554688 725.7421875 42.2275390625 497.450195312 42.2275390625 275.33984375 c 0
 42.2275390625 108.004689655 135.821711225 32.9224206258 215.305058123 14.6168832115 c 1
 228.322650221 -95.2314239421 279.329250621 -132.210124429 330.083697439 -132.210124429 c 0
 361.684251711 -132.210124429 393.187058329 -117.87528449 415.362304688 -97.8681640625 c 0
 419.924824173 -93.7522030202 421.960712379 -88.4602726848 421.960712379 -83.2497556945 c 0
 421.960712379 -72.9748875323 414.044001038 -63.0166015625 401.973632812 -63.0166015625 c 0
 396.826171875 -63.0166015625 392.130859375 -64.96484375 388.584960938 -68.1650390625 c 0
 376.864411807 -78.7386204488 354.049268484 -92.3207364877 330.352366823 -92.3207364877 c 0
 299.916836347 -92.3207364877 268.026757414 -69.9156793713 256.319988704 10.0449219731 c 1
 404.756657748 12.182262638 457.772460936 233.064171791 457.772460938 346.956054688 c 0
EndSplineSet
EndChar

StartChar: R
Encoding: 82 82 50
Width: 500
Flags: HW
LayerCount: 2
Fore
SplineSet
394.509765625 554.374023438 m 0
 394.509765625 640.002058257 307.73050533 724.481679052 213.605316199 724.481679052 c 0
 183.031931537 724.481679052 151.683510594 715.568609963 122.282226562 694.88671875 c 0
 117.403320312 691.455078125 114.125 685.897460938 113.797851562 679.565429688 c 0
 101.934570312 450.139648438 111.404296875 159.920898438 101.786132812 30.0654296875 c 0
 101.748622354 29.5591871743 101.730184283 29.0563134204 101.730184283 28.55747329 c 0
 101.730184283 17.5887868948 110.644785959 8.5703125 121.73046875 8.5703125 c 0
 132.265625 8.5703125 140.909179688 16.7333984375 141.674804688 27.0751953125 c 0
 146.215820312 88.375 146.431640625 155.534179688 147.022460938 338.989257812 c 1
 162.106445312 344.430664062 177.240234375 350.028320312 192.192382812 355.89453125 c 0
 197.057109042 356.494158809 201.874659143 356.79695085 206.636263398 356.79695085 c 0
 291.295495635 356.79695085 358.26953125 261.08051651 358.26953125 36.169921875 c 0
 358.26953125 31.982421875 358.24609375 29.0302734375 358.24609375 28.7841796875 c 0
 358.24609375 17.74609375 367.208007812 8.7841796875 378.24609375 8.7841796875 c 0
 389.2421875 8.7841796875 398.176757812 17.6767578125 398.24609375 28.6572265625 c 0
 398.26469695 31.6368936785 398.278852199 34.8978717609 398.278852199 38.4154159145 c 0
 398.278852199 118.729481635 390.899442586 332.796485826 260.594726562 386.078125 c 1
 319.641601562 416.02734375 394.509765625 466.576171875 394.509765625 554.374023438 c 0
153.236328125 667.356445312 m 1
 172.999904936 679.280091105 193.613497586 684.460578464 213.788399772 684.460578464 c 0
 287.040750905 684.460578464 354.509765625 616.165268626 354.509765625 554.374023438 c 0
 354.509765625 483.65234375 289.2890625 437.87890625 181.506835938 394.819335938 c 0
 169.475585938 392.918945312 157.966796875 389.701171875 147.209960938 385.505859375 c 1
 147.690429688 479.958007812 148.913085938 578.380859375 153.236328125 667.356445312 c 1
EndSplineSet
EndChar

StartChar: S
Encoding: 83 83 51
Width: 500
Flags: HW
LayerCount: 2
Fore
SplineSet
448.116210938 211.461914062 m 0
 448.116210938 435.310727135 131.346679688 402.870999096 131.346679688 559.853515625 c 0
 131.346679688 620.5677346 211.488948963 684.192416796 285.892450824 684.192416796 c 0
 300.443288595 684.192416796 314.774639838 681.759009137 328.244140625 676.39453125 c 0
 344.852539062 669.779296875 360.946289062 658.2109375 380.1640625 638.134765625 c 0
 384.245667945 633.87132076 389.361513551 631.967354745 394.392116863 631.967354745 c 0
 404.679974691 631.967354745 414.611328125 639.930212455 414.611328125 651.959960938 c 0
 414.611328125 657.321289062 412.497070312 662.192382812 409.05859375 665.78515625 c 0
 369.424804688 707.188476562 333.849609375 724.112304688 282.655273438 724.112304688 c 0
 194.29296875 724.112304688 91.3466796875 646.970703125 91.3466796875 559.853515625 c 0
 91.3466796875 366.31821421 408.116210938 407.068968226 408.116210938 211.461914062 c 0
 408.116210938 134.122799586 320.685669745 52.4507853892 233.311696072 52.4507853892 c 0
 178.49806985 52.4507853892 123.706706441 84.5937669731 90.5380859375 170.114257812 c 0
 87.1709007849 178.795670986 79.6880814998 182.753358475 72.1943348059 182.753358475 c 0
 62.049076115 182.753358475 51.8837890625 175.499489092 51.8837890625 162.892578125 c 0
 51.8837890625 160.533836154 94.8835609538 12.68359375 233.74609375 12.68359375 c 0
 341.786132812 12.68359375 448.116210938 110.161132812 448.116210938 211.461914062 c 0
EndSplineSet
EndChar

StartChar: T
Encoding: 84 84 52
Width: 500
Flags: HW
LayerCount: 2
Fore
SplineSet
73.337890625 700.206054688 m 0
 73.337890625 685.277767754 78.1832195002 677.975126149 138.682389512 677.975126149 c 0
 161.573855373 677.975126149 192.433214691 679.020636559 234.012851562 681.094159714 c 1
 234.253988198 672.499625252 234.456054688 661.078866501 234.456054688 646.838867188 c 1
 234.456054688 597.6953125 232.307617188 534.359375 230 466.576171875 c 0
 227.188344846 383.97338116 224.474099376 301.440201611 224.474099376 228.284429735 c 0
 224.474099376 150.612720355 227.533790974 83.5118955122 236.78515625 38.1220703125 c 0
 238.64453125 29.001953125 246.717773438 22.130859375 256.3828125 22.130859375 c 0
 267.420898438 22.130859375 276.3828125 31.0927734375 276.3828125 42.130859375 c 0
 276.3828125 50.044921875 264.498046875 81.8193359375 264.498046875 229.49609375 c 0
 264.498046875 304.076171875 267.329101562 387.415039062 269.9765625 465.193359375 c 0
 272.453928354 537.981180427 274.467291824 599.168941862 274.467291824 646.95026088 c 0
 274.467291824 660.003548429 274.317031014 672.056289912 273.984920242 683.071655891 c 1
 300.280436672 684.306598701 326.229685128 685.284179688 350.443359375 685.284179688 c 0
 391.368164062 685.284179688 415.7890625 682.141601562 416.450195312 682.141601562 c 0
 427.48828125 682.141601562 436.450195312 691.103515625 436.450195312 702.141601562 c 0
 436.450195312 712.4140625 428.689453125 720.887695312 418.715820312 722.014648438 c 0
 397.770118945 724.380471316 374.623986175 725.257509731 350.415668443 725.257509731 c 0
 281.002470927 725.257509731 202.856442968 718.046875 142.810546875 718.046875 c 0
 112.286132812 718.046875 93.8330078125 720.206054688 93.337890625 720.206054688 c 0
 82.2998046875 720.206054688 73.337890625 711.244140625 73.337890625 700.206054688 c 0
EndSplineSet
EndChar

StartChar: U
Encoding: 85 85 53
Width: 500
Flags: HW
LayerCount: 2
Fore
SplineSet
415.020507812 442.662109375 m 0
 415.020507812 185.104927306 372.399571262 45.400390625 259.33203125 45.400390625 c 0
 131.069335938 45.400390625 87.94140625 189.549804688 87.94140625 442.313476562 c 0
 87.94140625 505.709960938 88.2685546875 515.62890625 96.34375 704.107421875 c 0
 96.34375 719.743164062 83.8544921875 724.9765625 76.3623046875 724.9765625 c 0
 65.615234375 724.9765625 56.8369140625 716.481445312 56.380859375 705.845703125 c 0
 48.5693359375 523.528320312 47.94140625 508.853515625 47.94140625 442.313476562 c 0
 47.94140625 260.794921875 65.298828125 5.400390625 259.33203125 5.400390625 c 0
 437.053710938 5.400390625 455.020507812 257.073242188 455.020507812 442.662109375 c 0
 455.020507812 551.580078125 450.568359375 594.640625 448.329101562 705.263671875 c 0
 448.109375 716.112304688 439.233398438 724.8515625 428.333007812 724.8515625 c 0
 417.290593743 724.8515625 408.332747783 715.88448981 408.332747783 704.85185316 c 0
 408.332747783 704.714701277 408.334132141 704.577230179 408.336914062 704.439453125 c 0
 410.0390625 620.381835938 415.020507812 539.169921875 415.020507812 442.662109375 c 0
EndSplineSet
EndChar

StartChar: V
Encoding: 86 86 54
Width: 500
Flags: HW
LayerCount: 2
Fore
SplineSet
80.48046875 723.21875 m 0
 69.1720396765 723.21875 60.4719757551 713.945888813 60.4719757551 703.234306174 c 0
 60.4719757551 701.689365775 60.6529591027 700.11449633 61.033203125 698.533203125 c 0
 119.081054688 457.1171875 158.491210938 212.24609375 217.043945312 13.84765625 c 0
 219.837710639 4.38162326396 228.041174543 -0.386493899952 236.246186979 -0.386493899952 c 0
 244.277304498 -0.386493899952 252.309905607 4.18165649282 255.272460938 13.3837890625 c 0
 322.771484375 223.0703125 363.987304688 488.452148438 438.3984375 700.612304688 c 0
 439.171043349 702.815113481 439.532675428 705.040104872 439.532675428 707.215731958 c 0
 439.532675428 717.805423061 430.964968197 727.225585937 419.51953125 727.225585938 c 0
 410.798828125 727.225585938 403.374023438 721.631835938 400.640625 713.838867188 c 0
 334.069335938 524.03125 291.07421875 281.282226562 237.013671875 91.3017578125 c 1
 195.498880033 248.991589855 140.683058864 538.401703088 99.927734375 707.904296875 c 0
 97.81640625 716.685546875 89.9052734375 723.21875 80.48046875 723.21875 c 0
EndSplineSet
EndChar

StartChar: W
Encoding: 87 87 55
Width: 500
Flags: HW
LayerCount: 2
Fore
SplineSet
311.500976562 25.369140625 m 0
 313.442674237 14.6361077112 322.354911555 9.08813980964 331.264423093 9.08813980964 c 0
 339.449823564 9.08813980964 347.63292332 13.7709441766 350.40625 23.41796875 c 0
 400.349609375 197.14453125 441.624023438 460.265625 450.432617188 702.524414062 c 0
 450.441661466 702.773014112 450.446145215 703.020669474 450.446145215 703.267302345 c 0
 450.446145215 714.285313269 441.49773587 723.262695312 430.446289062 723.262695312 c 0
 419.655273438 723.262695312 410.848632812 714.698242188 410.459960938 704.000976562 c 0
 403.19140625 504.1015625 373.1640625 288.25 334.997070312 123.883789062 c 1
 326.642248221 173.934362722 326.642248221 173.934362722 273.196289062 529.44140625 c 0
 271.521590291 540.580834806 262.435952985 546.272178949 253.357346173 546.272178949 c 0
 244.74875551 546.272178949 236.146486222 541.154882843 233.875 530.712890625 c 0
 221.462315813 473.647807256 153.138999419 129.384785129 152.28515625 125.338867188 c 1
 118.759765625 298 90.5185546875 487.622070312 89.5537109375 706.8359375 c 0
 89.5048828125 717.833007812 80.5625 726.74609375 69.5537109375 726.74609375 c 0
 58.515625 726.74609375 49.5537109375 717.784179688 49.5537109375 706.65625 c 0
 50.712890625 443.310546875 90.6865234375 222.1875 131.919921875 24.0244140625 c 0
 134.101713026 13.5389303929 142.809419538 8.26699542639 151.516130849 8.26699542639 c 0
 160.096933725 8.26699542639 168.676769977 13.3875571446 171.0078125 23.6845703125 c 0
 195.055664062 129.90234375 211.499023438 214.850585938 227.90625 299.608398438 c 0
 235.095703125 336.748046875 242.278320312 373.8515625 250.096679688 412.736328125 c 1
 271.162109375 270.059570312 288.588867188 152.026367188 311.500976562 25.369140625 c 0
EndSplineSet
EndChar

StartChar: X
Encoding: 88 88 56
Width: 500
Flags: HW
LayerCount: 2
Fore
SplineSet
249.23378643 403.405695649 m 1
 106.137737694 629.116004675 123.499590446 723.506835938 87.3564453125 723.506835938 c 0
 75.9349348301 723.506835938 67.344391041 714.111804788 67.344391041 703.502966468 c 0
 67.344391041 701.439933951 67.669251715 699.331000007 68.361328125 697.236328125 c 0
 124.186737186 528.249870135 174.944206619 445.595640345 225.116448749 367.387733868 c 1
 173.123500924 289.745950723 122.376560395 209.455005508 70.8291015625 34.7275390625 c 0
 70.2688552764 32.8281994336 70.0045029308 30.9254156512 70.0045029308 29.062343276 c 0
 70.0045029308 18.4159988827 78.6367673928 9.06640625 90.015625 9.06640625 c 0
 99.087890625 9.06640625 106.7578125 15.1201171875 109.202148438 23.4052734375 c 0
 155.539696763 180.474066555 201.388470509 259.641870471 248.452821594 330.986627097 c 1
 394.303706516 101.576864298 373.134726864 14.162109375 409.776367188 14.162109375 c 0
 421.198469111 14.162109375 429.788474013 23.5575005834 429.788474013 34.1664751763 c 0
 429.788474013 36.2315991563 429.462983112 38.3427080168 428.76953125 40.439453125 c 0
 373.459945753 207.672884027 322.950777849 288.609934949 272.553381249 367.01464823 c 1
 323.701400015 443.111843458 376.592660183 523.937203509 433.3515625 696.83984375 c 0
 434.035489106 698.923264865 434.356623165 701.020192986 434.356623165 703.071572128 c 0
 434.356623165 713.682758789 425.764066487 723.075195312 414.344726562 723.075195312 c 0
 377.179918471 723.075195312 397.051593752 626.161119604 249.23378643 403.405695649 c 1
EndSplineSet
EndChar

StartChar: Y
Encoding: 89 89 57
Width: 500
Flags: HW
LayerCount: 2
Fore
SplineSet
239.177734375 100.40625 m 0
 239.177734375 49.9404296875 237.712890625 27.0888671875 237.712890625 26.3486328125 c 0
 237.712890625 15.310546875 246.674804688 6.3486328125 257.712890625 6.3486328125 c 0
 268.401367188 6.3486328125 277.142578125 14.7509765625 277.686523438 25.3056640625 c 0
 278.725366108 45.4816592153 279.12192434 71.4056683271 279.12192434 100.097973582 c 0
 279.12192434 191.978027203 275.055445045 312.245384412 274.991470641 363.054168291 c 1
 324.965146562 452.637357338 364.644324842 552.116136501 394.604492188 627.099609375 c 0
 405.697265625 654.862304688 415.451171875 679.258789062 423.7421875 698.27734375 c 0
 424.885219358 700.898996153 425.414476895 703.590545536 425.414476895 706.219275661 c 0
 425.414476895 716.740208145 416.936670111 726.254882812 405.399414062 726.254882812 c 0
 397.196289062 726.254882812 390.139648438 721.305664062 387.056640625 714.232421875 c 0
 358.173828125 647.984375 314.342773438 523.975585938 255.8359375 411.813476562 c 1
 244.412109375 434.609375 232.27734375 458.208007812 220.065429688 481.961914062 c 0
 177.241210938 565.254882812 133.387695312 651.166015625 116.596679688 707.251953125 c 0
 114.12890625 715.498046875 106.478515625 721.514648438 97.43359375 721.514648438 c 0
 86.049365408 721.514648438 77.4228619008 712.15951599 77.4228619008 701.518373087 c 0
 77.4228619008 699.630160967 77.6944806933 697.70145682 78.2705078125 695.77734375 c 0
 96.994140625 633.232421875 141.520507812 547.244140625 184.467773438 463.711914062 c 0
 202.259938866 429.105483215 219.77053459 395.041567243 234.989706131 363.687268755 c 1
 235.102870329 302.487109587 239.177734374 188.918680747 239.177734375 100.40625 c 0
EndSplineSet
EndChar

StartChar: Z
Encoding: 90 90 58
Width: 500
Flags: HW
LayerCount: 2
Fore
SplineSet
309.423828125 23.5537109375 m 0
 373.5859375 23.5537109375 418.436523438 16.0859375 419.540039062 16.0859375 c 0
 430.578125 16.0859375 439.540039062 25.0478515625 439.540039062 36.0859375 c 0
 439.540039062 46.134765625 432.112304688 54.4638671875 422.452148438 55.875 c 0
 383.63004482 61.5483345761 346.705417459 63.558851636 310.062950623 63.558851636 c 0
 269.736928264 63.558851636 229.752647325 61.1237946519 187.95703125 58.4560546875 c 0
 163.123046875 56.87109375 138.615234375 55.3125 114.237304688 54.3994140625 c 1
 206.229492188 227.350585938 291.015625 398.842773438 363.747070312 545.944335938 c 0
 389.825195312 598.688476562 414.3515625 648.294921875 437.09375 693.689453125 c 0
 438.548305268 696.593016808 439.216702224 699.61789719 439.216702224 702.570560827 c 0
 439.216702224 713.054304493 430.790355993 722.627626141 419.208870239 722.627626141 c 0
 419.121197705 722.627626141 419.033344363 722.627077534 418.9453125 722.625976562 c 0
 319.416992188 721.3828125 181.46484375 715.280273438 95.0478515625 714.724609375 c 0
 84.0693359375 714.653320312 75.1787109375 705.71875 75.1787109375 694.724609375 c 0
 75.1787109375 683.685273379 84.1408649115 674.724188224 95.1784782898 674.724188224 c 0
 95.2221432917 674.724188224 95.2658407747 674.724328465 95.3095703125 674.724609375 c 0
 139.650390625 675.009765625 383.662109375 682.01953125 386.575195312 682.079101562 c 1
 137.474153345 182.224736553 137.474153345 182.224736553 62.8203125 43.0400390625 c 0
 61.1888401335 39.9982918906 60.441396856 36.7990936588 60.441396856 33.6757042434 c 0
 60.441396856 23.2165198406 68.8228942003 13.607421875 80.45703125 13.607421875 c 0
 145.141601562 13.607421875 232.958007812 23.5537109375 309.423828125 23.5537109375 c 0
EndSplineSet
EndChar

StartChar: bracketleft
Encoding: 91 91 59
Width: 500
Flags: HW
LayerCount: 2
Fore
SplineSet
306.783203125 -4.8076171875 m 0
 381.018143831 -4.8076171875 389.887695312 -1.27570817233 389.887695312 17.3359375 c 0
 389.887695312 28.3740234375 380.92578125 37.3359375 369.887695312 37.3359375 c 0
 366.918945312 37.3359375 347.08984375 35.1923828125 306.783203125 35.1923828125 c 0
 263.883789062 35.1923828125 222.237304688 37.541015625 184.220703125 37.541015625 c 0
 177.896484375 37.541015625 171.657226562 37.4765625 165.51171875 37.3232421875 c 1
 164.725942286 199.441518734 150.263049917 356.899238224 150.263049917 511.782589781 c 0
 150.263049917 571.909376333 152.442674343 631.648193792 158.448242188 691.12109375 c 0
 160.274668884 691.272002471 245.622882618 698.314210575 331.83656283 698.314210575 c 0
 343.25662506 698.314210575 354.69187299 698.190646157 365.950195312 697.911132812 c 0
 379.356445312 697.911132812 386.455078125 708.514648438 386.455078125 717.905273438 c 0
 386.455078125 728.774414062 377.765625 737.630859375 366.959960938 737.899414062 c 0
 366.216278225 737.91783935 354.391344135 738.205467843 334.669191176 738.205467843 c 0
 293.7640628 738.205467843 218.88693962 736.968157107 138.446289062 729.525390625 c 0
 129.026367188 728.654296875 121.491210938 721.23828125 120.435546875 711.873046875 c 0
 112.945838284 645.467635353 110.302035851 578.705112571 110.302035851 511.61068378 c 0
 110.302035851 350.506180009 125.545070653 187.488048059 125.545070653 22.9052311127 c 0
 125.545070653 20.7430801026 125.542439934 18.5806590513 125.537109375 16.41796875 c 0
 125.537109375 5.3798828125 134.499023438 -3.58203125 145.537109375 -3.58203125 c 0
 145.923828125 -3.58203125 160.733398438 -2.458984375 184.220703125 -2.458984375 c 0
 221.323242188 -2.458984375 263.134765625 -4.8076171875 306.783203125 -4.8076171875 c 0
EndSplineSet
EndChar

StartChar: backslash
Encoding: 92 92 60
Width: 500
Flags: HW
LayerCount: 2
Fore
SplineSet
157.53125 694.66015625 m 0
 153.918037963 702.737579403 146.747972901 706.395036791 139.581223493 706.395036791 c 0
 129.419603078 706.395036791 119.264648438 699.042101023 119.264648438 686.509765625 c 0
 119.264648438 683.607421875 119.883789062 680.848632812 120.998046875 678.359375 c 0
 225.258789062 445.291015625 267.486328125 218.327148438 342.166992188 32.3330078125 c 0
 345.59597452 23.7931264891 353.005255973 19.9066191001 360.422303176 19.9066191001 c 0
 370.571556948 19.9066191001 380.735351562 27.1838412925 380.735351562 39.7734375 c 0
 380.735351562 42.40234375 380.2265625 44.9130859375 379.303710938 47.2138671875 c 0
 304.974609375 232.331054688 263.686523438 457.356445312 157.53125 694.66015625 c 0
EndSplineSet
EndChar

StartChar: bracketright
Encoding: 93 93 61
Width: 500
Flags: HW
LayerCount: 2
Fore
SplineSet
182.299804688 734.193359375 m 0
 149.49609375 734.193359375 122.6484375 737.8046875 122.044921875 737.8046875 c 0
 111.006835938 737.8046875 102.044921875 728.842773438 102.044921875 717.8046875 c 0
 102.044921875 707.604492188 109.697265625 699.177734375 119.569335938 697.95703125 c 0
 142.081951139 695.17204326 162.570636103 694.201579891 182.165313904 694.201579891 c 0
 227.223458619 694.201579891 267.554323011 699.333140997 316.896884641 699.333140997 c 0
 329.389907797 699.333140997 342.46062554 699.004182424 356.33203125 698.1796875 c 1
 355.344591114 668.771171865 354.944130592 639.745915428 354.944130592 610.983550093 c 0
 354.944130592 487.476709533 362.328145025 368.817267376 362.328145025 245.474834601 c 0
 362.328145025 176.075277623 359.990487354 105.193162745 352.684570312 31.130859375 c 1
 296.40234375 32.5087890625 149.795898438 39.306640625 117.576171875 39.306640625 c 0
 106.538085938 39.306640625 97.576171875 30.3447265625 97.576171875 19.306640625 c 0
 97.576171875 8.404296875 106.318359375 -0.4716796875 117.168945312 -0.689453125 c 0
 193.26171875 -2.2138671875 312.506835938 -8.4267578125 370.3984375 -9.2236328125 c 0
 370.492330598 -9.2249262513 370.586079012 -9.22557087241 370.679678533 -9.22557087241 c 0
 380.974394262 -9.22557087241 389.467932976 -1.42752123319 390.559570312 8.5849609375 c 0
 399.538085938 90.8701171875 402.309570312 169.278320312 402.309570312 245.608398438 c 0
 402.309570312 369.982421875 394.954101562 489.137695312 394.954101562 611.502929688 c 0
 394.954101562 674.052734375 397.049804688 715.65234375 397.049804688 716.704101562 c 0
 397.049804688 727.145507812 389.03125 735.728515625 378.821289062 736.626953125 c 0
 356.051893225 738.629408158 335.593106384 739.357335489 316.645446048 739.357335489 c 0
 266.178887476 739.357335489 226.432384118 734.193359375 182.299804688 734.193359375 c 0
EndSplineSet
EndChar

StartChar: asciicircum
Encoding: 94 94 62
Width: 500
Flags: HW
LayerCount: 2
Fore
SplineSet
130.592773438 550.938476562 m 0
 129.355751211 548.226093789 128.784294672 545.429086539 128.784294672 542.697815077 c 0
 128.784294672 532.190068355 137.242391741 522.655273437 148.799804688 522.655273438 c 0
 156.884765625 522.655273438 163.85546875 527.462890625 167.006835938 534.372070312 c 0
 187.1484375 578.534179688 220.295898438 629.975585938 251.998046875 678.090820312 c 1
 324.816950891 543.778072961 324.816950891 543.778072961 334.357421875 528.91796875 c 0
 338.421683098 522.587654624 344.685789335 519.757151137 350.902841342 519.757151137 c 0
 361.114997991 519.757151137 371.200195312 527.394271403 371.200195312 539.702148438 c 0
 371.200195312 543.671875 370.041015625 547.374023438 368.04296875 550.486328125 c 0
 349.257342896 579.745677837 271.805361055 724.815871738 270.802734375 726.559570312 c 0
 266.976579304 733.213402594 260.213023065 736.589653391 253.435680246 736.589653391 c 0
 247.075160692 736.589653391 240.702498228 733.615927217 236.734375 727.586914062 c 0
 181.620117188 643.856445312 153.459960938 601.07421875 130.592773438 550.938476562 c 0
EndSplineSet
EndChar

StartChar: underscore
Encoding: 95 95 63
Width: 500
Flags: HW
LayerCount: 2
Fore
SplineSet
248.474609375 -14.0302734375 m 0
 361.4140625 -14.0302734375 421.247070312 -19.5107421875 422.993164062 -19.5107421875 c 0
 434.03125 -19.5107421875 442.993164062 -10.548828125 442.993164062 0.4892578125 c 0
 442.993164062 11.021484375 434.833984375 19.6630859375 424.497070312 20.43359375 c 0
 369.075233217 24.5619976893 314.89187468 25.9729168424 255.896152079 25.9729168424 c 0
 201.742508772 25.9729168424 143.53403421 24.784095921 76.5908203125 23.4169921875 c 0
 65.744140625 23.1953125 57.0068359375 14.3203125 57.0068359375 3.4208984375 c 0
 57.0068359375 -7.6171875 65.96875 -16.5791015625 77.0068359375 -16.5791015625 c 0
 85.41796875 -16.5791015625 171.106445312 -14.0302734375 248.474609375 -14.0302734375 c 0
EndSplineSet
EndChar

StartChar: grave
Encoding: 96 96 64
Width: 500
Flags: HW
LayerCount: 2
Fore
SplineSet
315.75 564.467773438 m 0
 318.0229544 563.639905628 320.324080399 563.253112552 322.573593546 563.253112552 c 0
 333.151350186 563.253112552 342.587890625 571.805527461 342.587890625 583.266601562 c 0
 342.587890625 617.805074765 294.909077287 580.508557091 193.587890625 719.586914062 c 0
 189.454849563 725.25963193 183.541462507 727.79089724 177.689997544 727.79089724 c 0
 167.456354115 727.79089724 157.412109375 720.048614793 157.412109375 707.828125 c 0
 157.412109375 703.434570312 158.83203125 699.370117188 161.236328125 696.069335938 c 0
 220.290039062 615.01171875 269.545898438 581.298828125 315.75 564.467773438 c 0
EndSplineSet
EndChar

StartChar: a
Encoding: 97 97 65
Width: 500
Flags: HW
LayerCount: 2
Fore
SplineSet
88.8974609375 112.522460938 m 0
 88.8974609375 90.6507876727 96.5243167728 0.5927734375 222.137695312 0.5927734375 c 0
 293.40114865 0.5927734375 336.186658847 20.6988086912 394.133789062 47.9296875 c 0
 401.651367188 50.29296875 407.26171875 56.9794921875 408.04296875 65.0703125 c 0
 408.145119563 66.1242299267 410.62710703 92.6002969961 410.62710703 130.504099693 c 0
 410.62710703 182.828092105 405.897383377 256.929000084 383.6484375 315.993164062 c 0
 362.746882356 371.479697905 320.447846231 413.792266646 265.230782715 413.792266646 c 0
 227.119129371 413.792266646 182.853367274 393.634688269 135.221679688 343.73828125 c 0
 131.398602167 339.733578253 129.68824787 334.887408113 129.68824787 330.130473794 c 0
 129.68824787 319.822526399 137.719368709 309.93359375 149.6875 309.93359375 c 0
 155.375 309.93359375 160.510742188 312.3125 164.153320312 316.12890625 c 0
 205.561523438 359.505859375 239.840820312 373.65234375 265.086914062 373.65234375 c 0
 337.965198289 373.65234375 361.237949098 271.945449804 368.151367188 189.873046875 c 1
 335.716300937 225.95779124 288.282664228 242.887006955 241.681143319 242.887006955 c 0
 164.137313793 242.887006955 88.8974609375 196.013100681 88.8974609375 112.522460938 c 0
222.137695312 40.5927734375 m 0
 183.526333972 40.5927734375 128.897460938 51.3942072516 128.897460938 112.522460938 c 0
 128.897460938 170.254623987 184.16902756 203.254658458 241.604490712 203.254658458 c 0
 303.034666531 203.254658458 366.940210233 165.504597683 368.34375 79.888671875 c 1
 339.037109375 65.5 288.3046875 40.5927734375 222.137695312 40.5927734375 c 0
EndSplineSet
EndChar

StartChar: b
Encoding: 98 98 66
Width: 500
Flags: HW
LayerCount: 2
Fore
SplineSet
120.366210938 302.861328125 m 1
 120.403689585 311.463780135 120.421354441 319.826600379 120.421354441 327.970261008 c 0
 120.421354441 461.856546777 115.646689035 536.505788177 115.646689035 642.8910358 c 0
 115.646689035 663.488353972 115.825667789 685.27529914 116.252929688 708.912109375 c 0
 116.252929688 721.609375 106.174804688 729.279296875 96.255859375 729.279296875 c 0
 85.3408203125 729.279296875 76.455078125 720.515625 76.2587890625 709.646484375 c 0
 75.8910440646 689.288085135 75.735537411 669.405339635 75.735537411 649.812015336 c 0
 75.735537411 542.397895805 80.4091796875 443.682125357 80.4091796875 322.98046875 c 0
 80.4091796875 161.049804688 70.869140625 36.56640625 70.869140625 33.671875 c 0
 70.869140625 23.677734375 78.2158203125 15.3857421875 87.798828125 13.90625 c 0
 105.527299497 11.1705783902 136.626541483 6.74197840149 173.115957909 6.74197840149 c 0
 245.743314323 6.74197840149 339.724189826 24.286159107 392.131835938 107.642578125 c 0
 420.864257812 153.34375 429.130859375 205.75390625 429.130859375 249.849609375 c 0
 429.130859375 346.448242188 380.755859375 423.620117188 289.869140625 423.620117188 c 0
 214.303710938 423.620117188 157.274414062 394.204101562 120.366210938 302.861328125 c 1
112.380859375 50.861328125 m 1
 137.727539062 338.966796875 198.193359375 383.620117188 289.869140625 383.620117188 c 0
 371.663085938 383.620117188 389.130859375 300.295898438 389.130859375 249.849609375 c 0
 389.130859375 169.310300411 358.857237097 46.7527798556 174.583629261 46.7527798556 c 0
 155.539677547 46.7527798556 134.850943071 48.0617442455 112.380859375 50.861328125 c 1
EndSplineSet
EndChar

StartChar: c
Encoding: 99 99 67
Width: 500
Flags: HW
LayerCount: 2
Fore
SplineSet
253.360351562 46.724609375 m 0
 217.363758351 46.724609375 115.237304688 56.0658372789 115.237304688 162.071289062 c 0
 115.237304688 275.703125 189.584960938 375.608398438 275.045898438 375.608398438 c 0
 316.213867188 375.608398438 355.001953125 362.715820312 388.911132812 318.704101562 c 0
 393.055971311 313.32428175 398.809516803 310.924737831 404.49529817 310.924737831 c 0
 414.738973557 310.924737831 424.762695312 318.713348703 424.762695312 330.89453125 c 0
 424.762695312 343.836387284 373.811753372 415.608398438 275.045898438 415.608398438 c 0
 167.336914062 415.608398438 75.2373046875 299.536132812 75.2373046875 162.071289062 c 0
 75.2373046875 73.38671875 137.641601562 6.724609375 253.360351562 6.724609375 c 0
 309.049804688 6.724609375 377.8515625 20.634765625 418.84765625 92.701171875 c 0
 420.645722522 95.8618334225 421.467021086 99.2155446041 421.467021086 102.490025186 c 0
 421.467021086 112.932574949 413.114273993 122.569335938 401.451171875 122.569335938 c 0
 373.081280941 122.569335938 375.764991381 46.724609375 253.360351562 46.724609375 c 0
EndSplineSet
EndChar

StartChar: d
Encoding: 100 100 68
Width: 500
Flags: HW
LayerCount: 2
Fore
SplineSet
62.2158203125 198.385742188 m 0
 62.2158203125 128.196950291 83.9172484026 12.546875 226.944335938 12.546875 c 0
 307.16796875 12.546875 437.784179688 58.8623046875 437.784179688 360.5 c 0
 437.784179688 489.014648438 434.611328125 596.678710938 413.749023438 707.432617188 c 0
 412.00390625 716.696289062 403.862304688 723.713867188 394.094726562 723.713867188 c 0
 382.857306483 723.713867188 374.089209013 714.52118818 374.089209013 703.735047385 c 0
 374.089209013 702.505361375 374.203171433 701.254964513 374.440429688 699.995117188 c 0
 393.5546875 598.517578125 397.422851562 498.83203125 397.758789062 379.346679688 c 1
 365.711914062 414.0546875 323.014648438 438.147460938 268.270507812 438.147460938 c 0
 155.821289062 438.147460938 62.2158203125 339.755859375 62.2158203125 198.385742188 c 0
396.600585938 313.377929688 m 1
 391.307617188 212.0078125 363.69921875 52.546875 226.944335938 52.546875 c 0
 183.032226562 52.546875 102.215820312 62.7783203125 102.215820312 198.385742188 c 0
 102.215820312 322.337890625 181.510742188 398.147460938 268.270507812 398.147460938 c 0
 326.512695312 398.147460938 367.461914062 363.82421875 396.600585938 313.377929688 c 1
EndSplineSet
EndChar

StartChar: e
Encoding: 101 101 69
Width: 500
Flags: HW
LayerCount: 2
Fore
SplineSet
254.27734375 45.2998046875 m 0
 225.543573526 45.2998046875 121.526367188 54.7807766412 121.526367188 192.0625 c 0
 121.526367188 197.990234375 121.95703125 204.221679688 122.8046875 210.662109375 c 1
 152.883812877 192.682597608 183.672512638 184.936579007 212.994270292 184.936579007 c 0
 302.653963148 184.936579007 378.59765625 257.362333678 378.59765625 331.095703125 c 0
 378.59765625 384.251953125 338.151367188 417.637695312 289.168945312 417.637695312 c 0
 160.416992188 417.637695312 81.5263671875 287.622070312 81.5263671875 192.0625 c 0
 81.5263671875 48.6298828125 182.084960938 5.2998046875 254.27734375 5.2998046875 c 0
 318.836914062 5.2998046875 383.9609375 41.9423828125 420.611328125 102.708007812 c 0
 422.587973018 105.985255074 423.488235398 109.496886078 423.488235398 112.926121486 c 0
 423.488235398 123.352181624 415.166479834 133.016601562 403.47265625 133.016601562 c 0
 396.204101562 133.016601562 389.8359375 129.130859375 386.333984375 123.325195312 c 0
 356.806640625 74.3701171875 303.848632812 45.2998046875 254.27734375 45.2998046875 c 0
133.018554688 251.685546875 m 1
 140.390686991 272.14773967 183.519336229 377.637695312 289.168945312 377.637695312 c 0
 295.991210938 377.637695312 338.59765625 375.846679688 338.59765625 331.095703125 c 0
 338.59765625 281.235303658 281.994049196 224.927900212 213.038121216 224.927900212 c 0
 187.31800354 224.927900212 159.879379066 232.76162281 133.018554688 251.685546875 c 1
EndSplineSet
EndChar

StartChar: f
Encoding: 102 102 70
Width: 500
Flags: HW
LayerCount: 2
Fore
SplineSet
257.858398438 728.958007812 m 0
 148.735571259 728.958007812 137.453125 545.559883945 137.453125 384.131835938 c 0
 137.453125 381.612818999 137.462688813 379.089428057 137.462688813 376.562060325 c 1
 136.740934882 376.562060325 136.026724358 376.55859375 135.3203125 376.55859375 c 0
 113.704101562 376.55859375 107.318359375 377.572265625 104.998046875 377.572265625 c 0
 93.9599609375 377.572265625 84.998046875 368.610351562 84.998046875 357.572265625 c 0
 84.998046875 337.783221352 102.217156021 336.547151137 131.514702498 336.547151137 c 0
 133.549453669 336.547151137 135.642464891 336.553113292 137.792014057 336.559236501 c 1
 138.923928374 251.572648845 142.502929688 164.494228077 142.502929688 89.888671875 c 0
 142.502929688 50.6689453125 141.412109375 27.697265625 141.412109375 27.0693359375 c 0
 141.412109375 16.03125 150.374023438 7.0693359375 161.412109375 7.0693359375 c 0
 172.180664062 7.0693359375 180.973632812 15.5986328125 181.396484375 26.2646484375 c 0
 182.051057044 42.7728232309 182.316373245 62.661591372 182.316373245 84.6644432198 c 0
 182.316373245 161.078659168 179.116342556 262.991252986 177.907842537 337.35116531 c 1
 215.44264434 338.51931447 287.694494339 340.591069751 287.72012451 340.591069751 c 1
 287.72012451 340.591069751 287.71755884 340.590986856 287.711914062 340.590820312 c 1
 302.319335938 340.590820312 307.688476562 340.094726562 309.25 340.094726562 c 0
 320.288085938 340.094726562 329.25 349.056640625 329.25 360.094726562 c 0
 329.25 370.747070312 320.904296875 379.46484375 310.401367188 380.0625 c 0
 304.193046993 380.41535819 296.716783103 380.563340806 288.336209067 380.563340806 c 0
 257.570013887 380.563340806 214.616239493 378.568947768 177.466246762 377.395033196 c 1
 177.457589087 379.694455174 177.453125 381.940977472 177.453125 384.131835938 c 1
 177.453125 566.755859375 196.778320312 688.958007812 257.858398438 688.958007812 c 0
 287.337818481 688.958007812 341.244046326 667.767110614 376.65625 528.216796875 c 0
 378.853515625 519.55859375 386.706054688 513.14453125 396.043945312 513.14453125 c 0
 407.370226019 513.14453125 416.053233215 522.436841135 416.053233215 533.131655373 c 0
 416.053233215 534.75540042 415.853081485 536.411474551 415.431640625 538.072265625 c 0
 406.405273438 573.640625 366.740234375 728.958007812 257.858398438 728.958007812 c 0
EndSplineSet
EndChar

StartChar: g
Encoding: 103 103 71
Width: 500
Flags: HW
LayerCount: 2
Fore
SplineSet
274.614257812 -160.751953125 m 0
 335.269088553 -160.751953125 422.088867188 -127.513923685 422.088867188 62.8017578125 c 0
 422.088867188 65.7705334883 416.728373821 337.277926596 398.10546875 358.708984375 c 0
 369.696289062 391.401367188 326.419921875 419.672851562 268.354492188 419.672851562 c 0
 181.952148438 419.672851562 83.9462890625 313.162109375 83.9462890625 200.879882812 c 0
 83.9462890625 129.095703125 129.397460938 49.59375 223.69140625 49.59375 c 0
 284.564453125 49.59375 342.403320312 103.036132812 376.53125 210.366210938 c 1
 380.030273438 154.790039062 382.088867188 97.4052734375 382.088867188 62.8017578125 c 0
 382.088867188 -50.6512380454 351.130692089 -120.751953125 274.614257812 -120.751953125 c 0
 191.657226562 -120.751953125 120.767578125 -70.1826171875 117.321289062 -22.8515625 c 0
 116.568359375 -12.4990234375 107.918945312 -4.322265625 97.375 -4.322265625 c 0
 86.291242114 -4.322265625 77.3746818558 -13.3382372592 77.3746818558 -24.3107583449 c 0
 77.3746818558 -24.801130743 77.3924907328 -25.2954109203 77.4287109375 -25.79296875 c 0
 82.544921875 -96.064453125 170.5703125 -160.751953125 274.614257812 -160.751953125 c 0
123.946289062 200.879882812 m 0
 123.946289062 292.985351562 206.868164062 379.672851562 268.354492188 379.672851562 c 0
 309.045898438 379.672851562 339.686523438 362.0703125 362.140625 338.790039062 c 1
 349.62890625 230.040039062 317.442382812 153.533203125 280.54296875 116.67578125 c 0
 261.719726562 97.873046875 242.62109375 89.59375 223.69140625 89.59375 c 0
 157.352539062 89.59375 123.946289062 143.2109375 123.946289062 200.879882812 c 0
EndSplineSet
EndChar

StartChar: h
Encoding: 104 104 72
Width: 500
Flags: HW
LayerCount: 2
Fore
SplineSet
423.3203125 114.751953125 m 0
 423.3203125 210.321722102 417.541941363 425.805664062 294 425.805664062 c 0
 237.723632812 425.805664062 165.58984375 399.21484375 120.712890625 282.166015625 c 1
 120.360351562 449.907226562 118.435546875 642.731445312 116.60546875 706.41015625 c 0
 116.296875 717.178710938 107.45703125 725.826171875 96.6142578125 725.826171875 c 0
 85.576171875 725.826171875 76.6142578125 716.864257812 76.6142578125 705.826171875 c 0
 76.6142578125 701.064453125 80.7705078125 528.263671875 80.7705078125 229.684570312 c 0
 80.7705078125 63.669921875 78.8515625 29.4794921875 78.8515625 27.45703125 c 0
 78.8515625 16.4189453125 87.8134765625 7.45703125 98.8515625 7.45703125 c 0
 109.634765625 7.45703125 118.436523438 16.009765625 118.836914062 26.6953125 c 0
 122.017292884 111.47743603 134.576499439 385.805664062 294 385.805664062 c 0
 368.197265625 385.805664062 383.3203125 236.474609375 383.3203125 114.751953125 c 0
 383.3203125 86 381.868164062 29.2412109375 381.868164062 28.376953125 c 0
 381.868164062 17.3388671875 390.830078125 8.376953125 401.868164062 8.376953125 c 0
 412.828125 8.376953125 421.740234375 17.2119140625 421.8671875 28.1416015625 c 0
 421.876953125 29.0078125 423.3203125 85.388671875 423.3203125 114.751953125 c 0
EndSplineSet
EndChar

StartChar: i
Encoding: 105 105 73
Width: 500
Flags: HW
LayerCount: 2
Fore
SplineSet
278.043945312 574.149414062 m 0
 278.043945312 596.967969069 256.687542439 618.141601562 234.0234375 618.141601562 c 0
 211.803283499 618.141601562 193.872395329 599.59852921 193.872395329 578.34172722 c 0
 193.872395329 566.389677413 199.541190127 553.579690381 213.303710938 542.725585938 c 0
 220.81941862 536.798420449 229.372660989 534.130806686 237.743365229 534.130806686 c 0
 258.452272017 534.130806686 278.043945312 550.458066411 278.043945312 574.149414062 c 0
150.032226562 200.4765625 m 0
 150.032226562 159.709960938 150.229492188 2.603515625 272.698242188 2.603515625 c 0
 357.718407992 2.603515625 411.764319497 80.2133924592 411.764319497 118.995471573 c 0
 411.764319497 131.912679566 405.768645994 140.522460938 392.924804688 140.522460938 c 0
 383.233398438 140.522460938 375.142578125 133.614257812 373.3125 124.45703125 c 0
 365.512695312 85.431640625 324.353515625 42.603515625 272.698242188 42.603515625 c 0
 250.590820312 42.603515625 190.032226562 44.9560546875 190.032226562 200.4765625 c 0
 190.032226562 251.803710938 196.694335938 317.3203125 211.467773438 398.673828125 c 0
 211.68879251 399.890933592 211.795085837 401.098566556 211.795085837 402.286643886 c 0
 211.795085837 413.083093922 203.017430167 422.264648438 191.790039062 422.264648438 c 0
 181.977539062 422.264648438 173.805664062 415.182617188 172.112304688 405.85546875 c 0
 157.043945312 322.879882812 150.032226562 255.272460938 150.032226562 200.4765625 c 0
EndSplineSet
EndChar

StartChar: j
Encoding: 106 106 74
Width: 500
Flags: HW
LayerCount: 2
Fore
SplineSet
253.356445312 565.854492188 m 0
 253.356445312 543.309570312 273.936523438 522.22265625 296.911132812 522.22265625 c 0
 321.054561198 522.22265625 336.885262883 542.14098046 336.885262883 562.690468498 c 0
 336.885262883 573.123716119 332.80453926 583.719660581 323.659179688 591.954101562 c 1
 315.391106249 601.543046476 304.539393551 605.820248117 293.843840585 605.820248117 c 0
 273.312422677 605.820248117 253.356445312 590.058981153 253.356445312 565.854492188 c 0
329.426757812 134.565429688 m 0
 329.426757812 17.6376953125 307.89453125 -116.641601562 208.991210938 -116.641601562 c 0
 173.403320312 -116.641601562 104.763671875 -105.677734375 80.044921875 34.46484375 c 0
 78.3916015625 43.8408203125 70.197265625 50.97265625 60.349609375 50.97265625 c 0
 49.1291532477 50.97265625 40.3448833533 41.7993033786 40.3448833533 30.9949964247 c 0
 40.3448833533 29.8390766428 40.4454299175 28.6644886243 40.654296875 27.48046875 c 0
 47.17578125 -9.4970703125 73.986328125 -156.641601562 208.991210938 -156.641601562 c 0
 243.375976562 -156.641601562 299.076171875 -144.854492188 334.725585938 -70.25 c 0
 359.025853558 -19.3975332591 369.452551679 50.998503425 369.452551679 134.541776582 c 0
 369.452551679 211.058228107 360.70606842 298.603298892 345.861328125 392.262695312 c 0
 344.348632812 401.806640625 336.075195312 409.112304688 326.108398438 409.112304688 c 0
 315.0703125 409.112304688 306.108398438 400.150390625 306.108398438 389.112304688 c 0
 306.108398438 386.556640625 329.426757812 252.509765625 329.426757812 134.565429688 c 0
EndSplineSet
EndChar

StartChar: k
Encoding: 107 107 75
Width: 500
Flags: HW
LayerCount: 2
Fore
SplineSet
389 402 m 0
 392.666517915 405.969960165 394.308228147 410.717362586 394.308228147 415.37451519 c 0
 394.308228147 425.690401417 386.253170473 435.563476562 374.306640625 435.563476562 c 0
 364.623759623 435.563476562 364.623759623 435.563476562 326.958007812 392.29296875 c 0
 279.338752873 337.590244716 219.139222749 268.55414494 128.726020904 210.828314799 c 1
 130.243898517 331.361121645 139.423411996 451.59655016 139.423411996 574.283189126 c 0
 139.423411996 618.465478515 138.232933493 662.965662023 135.065429688 707.912109375 c 0
 134.333984375 718.287109375 125.674804688 726.48828125 115.115234375 726.48828125 c 0
 104.077148438 726.48828125 95.115234375 717.526367188 95.115234375 706.48828125 c 0
 95.115234375 702.420898438 99.43359375 656.171875 99.43359375 574.216796875 c 0
 99.43359375 441.605188254 88.5110159884 311.550653182 88.5110159884 178.244662297 c 0
 88.5110159884 131.081303162 89.8782261242 83.5109500521 93.580078125 35.2763671875 c 0
 94.37109375 24.9609375 103.002929688 16.8251953125 113.520507812 16.8251953125 c 0
 124.55859375 16.8251953125 133.520507812 25.787109375 133.520507812 36.8251953125 c 0
 133.520507812 40.9814748509 129.134815613 84.1024820835 128.573520846 161.807687358 c 1
 163.375761955 175.055922157 189.154745808 180.759765625 208.741210938 180.759765625 c 0
 253.452148438 180.759765625 277.620117188 152.4140625 330.810546875 85.2158203125 c 0
 346.205078125 65.767578125 363.729492188 43.6240234375 384.55859375 19.185546875 c 0
 388.696121108 14.3310496927 394.156206764 12.1658237352 399.53910346 12.1658237352 c 0
 409.802433746 12.1658237352 419.78515625 20.0371469326 419.78515625 32.1474609375 c 0
 419.78515625 37.0908203125 417.987304688 41.6181640625 415.01171875 45.109375 c 0
 394.736328125 68.8974609375 377.581054688 90.56640625 362.189453125 110.01171875 c 0
 312.259765625 173.091796875 277.15234375 219.577148438 211.276367188 220.737304688 c 1
 274.314453125 270.8359375 320.39453125 323.842773438 357.135742188 366.049804688 c 0
 368.631835938 379.256835938 379.202148438 391.392578125 389 402 c 0
EndSplineSet
EndChar

StartChar: l
Encoding: 108 108 76
Width: 500
Flags: HW
LayerCount: 2
Fore
SplineSet
234.0859375 42.5771484375 m 0
 195.29239155 42.5771484375 177.66796875 94.3234106029 177.66796875 229.112304688 c 0
 177.66796875 357.53515625 225.939453125 566.239257812 225.939453125 716.5859375 c 0
 225.939453125 727.624023438 216.977539062 736.5859375 205.939453125 736.5859375 c 0
 194.901367188 736.5859375 185.939453125 727.624023438 185.939453125 716.5859375 c 0
 185.939453125 570.293945312 137.66796875 362.182617188 137.66796875 229.112304688 c 0
 137.66796875 130.581181412 143.138822706 2.5771484375 234.0859375 2.5771484375 c 0
 325.124023438 2.5771484375 425.112304688 89.0341796875 437.149414062 167.051757812 c 0
 437.310047235 168.092982541 437.387701131 169.125370815 437.387701131 170.142773027 c 0
 437.387701131 180.982501215 428.572856184 190.12109375 417.383789062 190.12109375 c 0
 407.388671875 190.12109375 399.096679688 182.7734375 397.618164062 173.190429688 c 0
 388.665039062 115.161132812 304.743164062 42.5771484375 234.0859375 42.5771484375 c 0
EndSplineSet
EndChar

StartChar: m
Encoding: 109 109 77
Width: 500
Flags: HW
LayerCount: 2
Fore
SplineSet
273.69140625 47.98046875 m 0
 273.69140625 200.8670156 307.117820953 384.314453125 351.063476562 384.314453125 c 0
 358.3359375 384.314453125 389.784179688 352.208007812 389.784179688 151.986328125 c 0
 389.784179688 88.734375 386.649414062 32.87890625 386.649414062 30.248046875 c 0
 386.649414062 19.2099609375 395.611328125 10.248046875 406.649414062 10.248046875 c 0
 417.365234375 10.248046875 426.124023438 18.6943359375 426.626953125 29.287109375 c 0
 428.7421875 73.9072265625 429.784179688 114.833984375 429.784179688 151.986328125 c 0
 429.784179688 342.670898438 403.657226562 424.314453125 351.063476562 424.314453125 c 0
 320.124023438 424.314453125 288.34375 399.694335938 265.96875 320.763671875 c 1
 262.146096613 348.537354275 251.53417135 424.971679688 201.10546875 424.971679688 c 0
 152.278320312 424.971679688 128.536132812 374.064453125 114.030273438 318.484375 c 1
 113.739257812 346.7734375 113.1171875 376.944335938 112.036132812 409.848632812 c 0
 111.68359375 420.578125 102.861328125 429.180664062 92.046875 429.180664062 c 0
 81.0087890625 429.180664062 72.046875 420.21875 72.046875 409.180664062 c 0
 72.046875 406.059570312 74.2353515625 352.752929688 74.2353515625 278.434570312 c 0
 74.2353515625 219.09765625 70.171875 33.4326171875 70.171875 30.95703125 c 0
 70.171875 18.1147036464 80.3159091974 11.1900849563 90.4038909513 11.1900849563 c 0
 99.0059038799 11.1900849563 107.567161315 16.2249457723 109.763671875 26.9189453125 c 0
 124.869140625 100.46484375 130.935546875 217.223632812 150.505859375 299.313476562 c 0
 158.732230918 333.817350986 175.282848065 384.971679688 201.10546875 384.971679688 c 0
 208.466796875 384.971679688 220.833984375 361.693359375 227.368164062 307.146484375 c 0
 232.46484375 264.596679688 233.52734375 211.5703125 233.52734375 161.875976562 c 0
 233.52734375 130.51171875 233.124023438 100.505859375 233.124023438 75.017578125 c 0
 233.124023438 58.3974609375 233.288085938 43.66015625 233.877929688 31.4111328125 c 0
 234.387695312 20.8251953125 243.143554688 12.38671875 253.854492188 12.38671875 c 0
 264.892578125 12.38671875 273.854492188 21.3486328125 273.854492188 32.38671875 c 0
 273.854492188 32.54296875 273.69140625 39.111328125 273.69140625 47.98046875 c 0
EndSplineSet
EndChar

StartChar: n
Encoding: 110 110 78
Width: 500
Flags: HW
LayerCount: 2
Fore
SplineSet
283.262695312 381.977539062 m 0
 342.983807614 381.977539062 366.680664062 277.131562407 366.680664062 110.822265625 c 0
 366.680664062 68.8203125 365.067382812 30.359375 365.067382812 29.546875 c 0
 365.067382812 18.5087890625 374.029296875 9.546875 385.067382812 9.546875 c 0
 395.853515625 9.546875 404.65625 18.103515625 405.053710938 28.79296875 c 0
 406.101548481 57.0095769561 406.734196077 85.0005948004 406.734196077 112.280504566 c 0
 406.734196077 280.677422602 382.627134293 421.977539062 283.262695312 421.977539062 c 0
 235.668945312 421.977539062 176.508789062 397.685546875 137.235351562 296.075195312 c 1
 137.056640625 329.50390625 136.42578125 365.452148438 135.106445312 405.486328125 c 0
 134.751953125 416.21484375 125.931640625 424.81640625 115.1171875 424.81640625 c 0
 104.079101562 424.81640625 95.1171875 415.854492188 95.1171875 404.81640625 c 0
 95.1171875 401.716796875 97.291015625 348.936523438 97.291015625 275.337890625 c 0
 97.291015625 216.6015625 93.2548828125 32.7001953125 93.2548828125 30.2490234375 c 0
 93.2548828125 19.2109375 102.216796875 10.2490234375 113.254882812 10.2490234375 c 0
 124.020507812 10.2490234375 132.810546875 18.7724609375 133.23828125 29.43359375 c 0
 139.224609375 178.383789062 168.412109375 381.977539062 283.262695312 381.977539062 c 0
EndSplineSet
EndChar

StartChar: o
Encoding: 111 111 79
Width: 500
Flags: HW
LayerCount: 2
Fore
SplineSet
257.119140625 422.46875 m 0
 145.814453125 422.46875 62.109375 345.21875 62.109375 194.342773438 c 0
 62.109375 75.7236328125 141.063476562 6.3251953125 241.528320312 6.3251953125 c 0
 341.970703125 6.3251953125 437.890625 108.077148438 437.890625 198.499023438 c 0
 437.890625 261.78125 422.954101562 312.943359375 396.451171875 350.712890625 c 0
 363.129882812 398.200195312 312.360351562 422.46875 257.119140625 422.46875 c 0
102.109375 194.342773438 m 0
 102.109375 246.436160241 115.652995856 382.46875 257.119140625 382.46875 c 0
 339.858398438 382.46875 397.890625 316.419921875 397.890625 198.499023438 c 0
 397.890625 130.163085938 319.081054688 46.3251953125 241.528320312 46.3251953125 c 0
 162.098632812 46.3251953125 102.109375 98.7431640625 102.109375 194.342773438 c 0
EndSplineSet
EndChar

StartChar: p
Encoding: 112 112 80
Width: 500
Flags: HW
LayerCount: 2
Fore
SplineSet
117.21484375 30.974609375 m 1
 126.305664062 343.495117188 216.633789062 372.34375 277.8359375 372.34375 c 0
 340.827148438 372.34375 391.58203125 311.984375 391.58203125 208.232421875 c 0
 391.58203125 132.985351562 315.080078125 36.9541015625 117.21484375 30.974609375 c 1
118.221541327 289.981091854 m 1
 115.751840941 306.43803896 112.337325889 323.158516912 107.73828125 340.315429688 c 0
 105.452148438 348.84375 97.6630859375 355.130859375 88.41796875 355.130859375 c 0
 77.3798828125 355.130859375 68.41796875 346.168945312 68.41796875 335.130859375 c 0
 68.41796875 325.861328125 83.806640625 290.65234375 83.806640625 209.700195312 c 0
 83.806640625 138.720954309 72.5147560441 63.1702732899 72.5147560441 -37.1017013384 c 0
 72.5147560441 -71.4937145016 73.8431365453 -108.793947649 77.4111328125 -149.815429688 c 0
 78.2998046875 -160.03515625 86.88671875 -168.063476562 97.3349609375 -168.063476562 c 0
 108.373046875 -168.063476562 117.334960938 -159.1015625 117.334960938 -148.063476562 c 0
 117.334960938 -144.283203125 112.513671875 -100.9140625 112.513671875 -37.1064453125 c 0
 112.513671875 -27.5681196573 112.6190825 -18.2546894474 112.809535555 -9.14549586738 c 1
 325.600360239 -4.29962569148 431.58203125 101.634646238 431.58203125 208.232421875 c 0
 431.58203125 322.484375 372.174804688 412.34375 277.8359375 412.34375 c 0
 199.356100407 412.34375 148.967250345 367.207224564 118.221541327 289.981091854 c 1
EndSplineSet
EndChar

StartChar: q
Encoding: 113 113 81
Width: 500
Flags: HW
LayerCount: 2
Fore
SplineSet
415.14453125 346.549804688 m 0
 415.14453125 364.209019592 365.135497227 421.458984375 289.446289062 421.458984375 c 0
 175.819335938 421.458984375 84.85546875 283.741210938 84.85546875 174.1328125 c 0
 84.85546875 118.697265625 94.2958984375 79.416015625 110.795898438 51.8125 c 0
 129.960619088 19.7513744873 160.355204971 3.3959838381 194.720387276 3.3959838381 c 0
 252.982511195 3.3959838381 322.657405184 50.4066323803 368.370117188 147.59375 c 1
 365.159179688 3.3876953125 363.630859375 -65.2890625 355.232421875 -159.396484375 c 0
 355.178076598 -160.005526267 355.151451758 -160.610026452 355.151451758 -161.208817812 c 0
 355.151451758 -172.155546173 364.049702673 -181.194335938 375.15234375 -181.194335938 c 0
 385.584960938 -181.194335938 394.162109375 -173.189453125 395.072265625 -162.9921875 c 0
 403.76953125 -65.5361328125 405.673828125 22.8740234375 407.751953125 118.841796875 c 0
 411.7421875 303.125976562 415.14453125 342.744140625 415.14453125 346.549804688 c 0
374.721679688 340.607421875 m 1
 361.76171875 155.05078125 271.329101562 43.4892578125 192.682617188 43.4892578125 c 0
 133.82421875 43.4892578125 124.85546875 124.657226562 124.85546875 174.1328125 c 0
 124.85546875 259.659179688 198.790039062 381.458984375 289.446289062 381.458984375 c 0
 316.565429688 381.458984375 351.515625 370.254882812 374.721679688 340.607421875 c 1
EndSplineSet
EndChar

StartChar: r
Encoding: 114 114 82
Width: 500
Flags: HW
LayerCount: 2
Fore
SplineSet
285.04296875 430.336914062 m 0
 235.865234375 430.336914062 175.796875 405.389648438 136.614257812 302.834960938 c 1
 136.41015625 336.84375 135.751953125 373.380859375 134.41015625 413.958984375 c 0
 134.0546875 424.686523438 125.234375 433.287109375 114.420898438 433.287109375 c 0
 103.3828125 433.287109375 94.4208984375 424.325195312 94.4208984375 413.287109375 c 0
 94.4208984375 410.091796875 96.6865234375 355.216796875 96.6865234375 278.73046875 c 0
 96.6865234375 217.6796875 92.48046875 26.5947265625 92.48046875 24.0478515625 c 0
 92.48046875 13.009765625 101.442382812 4.0478515625 112.48046875 4.0478515625 c 0
 123.245117188 4.0478515625 132.034179688 12.5703125 132.463867188 23.2294921875 c 0
 138.688476562 177.641601562 164.109375 390.336914062 285.04296875 390.336914062 c 0
 318.272460938 390.336914062 353.7109375 362.3125 368.869140625 295.54296875 c 0
 370.891601562 286.638671875 378.861328125 279.983398438 388.374023438 279.983398438 c 0
 399.664750814 279.983398438 408.381868875 289.235992681 408.381868875 299.966499337 c 0
 408.381868875 301.431327149 408.219424145 302.923696067 407.87890625 304.423828125 c 0
 390.603515625 380.51171875 344.124023438 430.336914062 285.04296875 430.336914062 c 0
EndSplineSet
EndChar

StartChar: s
Encoding: 115 115 83
Width: 500
Flags: HW
LayerCount: 2
Fore
SplineSet
145.22265625 310.048828125 m 0
 145.22265625 340.943871843 190.997774481 383.050707328 248.419289961 383.050707328 c 0
 281.433890692 383.050707328 318.298435291 369.131471221 352.526367188 331.159179688 c 0
 356.64298655 326.592572149 361.937544145 324.5548753 367.150706364 324.5548753 c 0
 377.425839754 324.5548753 387.384765625 332.470989171 387.384765625 344.541992188 c 0
 387.384765625 349.686523438 385.438476562 354.37890625 382.243164062 357.924804688 c 0
 340.022519787 404.763337439 292.180592739 422.950676981 248.279268181 422.950676981 c 0
 170.579014171 422.950676981 105.22265625 365.979026062 105.22265625 310.048828125 c 0
 105.22265625 291.42578125 114.125 234.850585938 221.00390625 226.731445312 c 0
 257.079817595 223.990998894 364.193359375 209.788127545 364.193359375 137.743164062 c 0
 364.193359375 92.3786379812 314.967354994 41.1580777793 247.897237358 41.1580777793 c 0
 212.023064897 41.1580777793 171.04383517 55.8118680404 129.76171875 93.853515625 c 0
 125.794476376 97.5094470485 121.054089199 99.1464910224 116.40398159 99.1464910224 c 0
 106.087735318 99.1464910224 96.2158203125 91.0894097973 96.2158203125 79.14453125 c 0
 96.2158203125 73.330078125 98.7021484375 68.0908203125 102.669921875 64.435546875 c 0
 151.64136391 19.3081822619 202.505995254 1.20124880334 248.198956282 1.20124880334 c 0
 335.672916152 1.20124880334 404.193359375 67.5608664388 404.193359375 137.743164062 c 0
 404.193359375 187.303710938 366.462890625 255.798828125 224.0703125 266.616210938 c 0
 200.340820312 268.418945312 145.22265625 276.244140625 145.22265625 310.048828125 c 0
EndSplineSet
EndChar

StartChar: t
Encoding: 116 116 84
Width: 500
Flags: HW
LayerCount: 2
Fore
SplineSet
240.043945312 362.346679688 m 1
 240.916992188 362.346679688 295.643554688 362.836914062 327.390625 362.836914062 c 0
 338.428710938 362.836914062 347.390625 371.798828125 347.390625 382.836914062 c 0
 347.390625 393.797851562 338.553710938 402.7109375 327.622070312 402.8359375 c 0
 326.604032794 402.847481512 325.034556335 402.852720461 323.023486791 402.852720461 c 0
 303.258443921 402.852720461 240.839023607 402.346679688 240.043945312 402.346679688 c 0
 202.3795621 402.346679688 177.02929232 403.775084318 161.09615837 405.17458992 c 1
 169.553337257 473.785469378 179.293760704 535.174499001 179.293760704 574.167900336 c 0
 179.293760704 581.353683961 178.96297718 587.778914939 178.232421875 593.348632812 c 0
 176.947265625 603.150390625 168.552734375 610.727539062 158.403320312 610.727539062 c 0
 147.365234375 610.727539062 138.403320312 601.765625 138.403320312 590.727539062 c 0
 138.403320312 587.791015625 139.396484375 584.459960938 139.396484375 572.91015625 c 0
 139.396484375 511.998913999 108.935291205 371.752295678 108.935291205 241.894580155 c 0
 108.935291205 200.388139197 112.047311246 159.943064205 120.260742188 123.489257812 c 0
 131.934433339 71.6787053731 160.153553507 6.8408203125 228.279296875 6.8408203125 c 0
 301.231202937 6.8408203125 391.219823186 81.1534421779 391.219823186 168.69208846 c 0
 391.219823186 182.508210907 388.978211987 196.653792838 384.07421875 210.888671875 c 0
 381.37109375 218.735351562 373.918945312 224.37890625 365.159179688 224.37890625 c 0
 354.12109375 224.37890625 345.159179688 215.416992188 345.159179688 204.37890625 c 0
 345.159179688 197.049804688 351.217773438 188.627929688 351.217773438 168.622070312 c 0
 351.217773438 102.309570312 277.06640625 46.8408203125 228.279296875 46.8408203125 c 0
 203.778643484 46.8408203125 148.973348414 66.2092180988 148.973348414 239.456598031 c 0
 148.973348414 274.699120172 151.241244398 316.309303053 156.493478611 365.419435904 c 1
 182.312125005 362.878942297 211.507658213 362.346679688 240.043945312 362.346679688 c 1
EndSplineSet
EndChar

StartChar: u
Encoding: 117 117 85
Width: 500
Flags: HW
LayerCount: 2
Fore
SplineSet
264.200195312 50.5400390625 m 0
 159.022616853 50.5400390625 126.752929688 166.887131777 126.752929688 309.682617188 c 0
 126.752929688 354.686523438 130.577148438 402.71875 130.577148438 403.659179688 c 0
 130.577148438 414.697265625 121.615234375 423.659179688 110.577148438 423.659179688 c 0
 100.006835938 423.659179688 91.3408203125 415.44140625 90.625 405.051757812 c 0
 89.0703125 382.495117188 86.7529296875 348.3984375 86.7529296875 309.682617188 c 0
 86.7529296875 245.712890625 88.9150390625 10.5400390625 264.200195312 10.5400390625 c 0
 344.306640625 10.5400390625 384.888671875 68.7177734375 401.157226562 154.581054688 c 0
 417.370117188 240.147460938 409.264648438 341.577148438 413.403320312 405.733398438 c 0
 413.431748509 406.174295946 413.445752111 406.612525174 413.445752111 407.047649356 c 0
 413.445752111 418.032294167 404.521221591 427.038085938 393.4453125 427.038085938 c 0
 382.845703125 427.038085938 374.16015625 418.7734375 373.487304688 408.342773438 c 0
 369.395507812 344.911132812 376.918945312 241.557617188 361.856445312 162.060546875 c 0
 342.75 61.21484375 296.404296875 50.5400390625 264.200195312 50.5400390625 c 0
EndSplineSet
EndChar

StartChar: v
Encoding: 118 118 86
Width: 500
Flags: HW
LayerCount: 2
Fore
SplineSet
396.6328125 420.853515625 m 0
 364.602079842 420.853515625 391.341535432 385.898953336 245.426757812 70.068359375 c 1
 186.381835938 203.751953125 185.041015625 326.33203125 121.232421875 416.875976562 c 0
 117.112177522 422.722536144 111.105234421 425.332415556 105.156442743 425.332415556 c 0
 94.9287991392 425.332415556 84.873046875 417.617803482 84.873046875 405.374023438 c 0
 84.873046875 401.09375 86.220703125 397.125976562 88.513671875 393.872070312 c 0
 151.296875 304.782226562 149.349609375 164.435546875 227.97265625 14.1376953125 c 0
 231.719965143 6.97365207556 238.708701238 3.42905802569 245.690013811 3.42905802569 c 0
 252.95971499 3.42905802569 260.221366668 7.27254538626 263.806640625 14.875 c 0
 333.377929688 162.408203125 379.743164062 276.565429688 415.771484375 395.033203125 c 0
 416.364709604 396.983798014 416.644239533 398.940304817 416.644239533 400.855501974 c 0
 416.644239533 411.491529279 408.023188342 420.853515625 396.6328125 420.853515625 c 0
EndSplineSet
EndChar

StartChar: w
Encoding: 119 119 87
Width: 500
Flags: HW
LayerCount: 2
Fore
SplineSet
83.130859375 432.240234375 m 0
 71.8508915332 432.240234375 63.1236687338 422.999769629 63.1236687338 412.259645038 c 0
 63.1236687338 410.83951037 63.2762553647 409.393155671 63.595703125 407.938476562 c 0
 86.7509765625 302.47265625 69.53125 171.001953125 142.560546875 13.716796875 c 0
 146.146188258 5.99354612395 153.421505309 2.17769862246 160.6899347 2.17769862246 c 0
 168.274318341 2.17769862246 175.851202503 6.33250169288 179.220703125 14.5380859375 c 0
 211.934570312 94.205078125 225.887695312 142.362304688 243.702148438 215.856445312 c 1
 262.58203125 150.579101562 281.01171875 103.564453125 320.927734375 18.73046875 c 0
 324.557740403 11.0149372663 331.767216688 7.29636357175 338.959903372 7.29636357175 c 0
 347.156373404 7.29636357175 355.331040659 12.1252591934 358.162109375 21.37109375 c 0
 404.303710938 172.041992188 420.775390625 280.091796875 437.009765625 397.771484375 c 0
 437.138636902 398.705857955 437.201137775 399.632202668 437.201137775 400.546140553 c 0
 437.201137775 411.412734711 428.365465147 420.525390625 417.198242188 420.525390625 c 0
 407.09375 420.525390625 398.729492188 413.016601562 397.38671875 403.279296875 c 0
 383.110351562 299.791992188 369.053710938 206.237304688 334.868164062 84.095703125 c 1
 299.450195312 163.250976562 286.524414062 206.499023438 261.831054688 302.263671875 c 0
 259.270940095 312.193314516 250.874894514 317.127793853 242.478692791 317.127793853 c 0
 233.938734471 317.127793853 225.398614617 312.022895389 222.999023438 301.876953125 c 0
 193.104492188 175.4765625 185.124023438 141.735351562 160.225585938 75.40234375 c 1
 112.276367188 205.890625 124.450195312 317.32421875 102.666015625 416.541992188 c 0
 100.696289062 425.515625 92.6923828125 432.240234375 83.130859375 432.240234375 c 0
EndSplineSet
EndChar

StartChar: x
Encoding: 120 120 88
Width: 500
Flags: HW
LayerCount: 2
Fore
SplineSet
420.481445312 34.8974609375 m 0
 420.481445312 37.3298589874 405.682824876 88.9673019848 271.368165975 227.071425499 c 1
 317.90914485 277.533381755 363.146002538 327.067175129 397.647460938 398.452148438 c 0
 399.015062295 401.281682944 399.64497003 404.218177176 399.64497003 407.085333255 c 0
 399.64497003 417.575081277 391.213478996 427.13671875 379.62890625 427.13671875 c 0
 371.702148438 427.13671875 364.845703125 422.514648438 361.610351562 415.821289062 c 0
 330.303718547 351.046881577 288.109203304 304.212860722 243.634084207 255.903933494 c 1
 201.35464131 300.803927337 163.616901779 347.477873116 133.353515625 421.95703125 c 0
 129.903543431 430.447213267 122.519902475 434.308937856 115.129670111 434.308937856 c 0
 104.979255448 434.308937856 94.81640625 427.023885475 94.81640625 414.440429688 c 0
 94.81640625 412.200585567 112.868163873 336.258626921 216.665438633 226.49940131 c 1
 170.76500376 175.872717108 124.289158165 119.67056564 86.345703125 37.3486328125 c 0
 85.0858276458 34.6151819703 84.5041210068 31.7932908259 84.5041210068 29.0377669259 c 0
 84.5041210068 18.5337553242 92.9570270476 8.994140625 104.51953125 8.994140625 c 0
 135.921194043 8.994140625 110.707282168 49.7255051553 244.405962037 197.656128603 c 1
 288.831657966 151.801835215 336.25926101 102.420496863 383.356445312 24.56640625 c 0
 387.369799806 17.932231295 393.793116134 14.9616033625 400.176847924 14.9616033625 c 0
 410.379704618 14.9616033625 420.481445312 22.5498697726 420.481445312 34.8974609375 c 0
EndSplineSet
EndChar

StartChar: y
Encoding: 121 121 89
Width: 500
Flags: HW
LayerCount: 2
Fore
SplineSet
240.739257812 86.05859375 m 0
 138.772212825 86.05859375 117.172851562 187.907892695 117.172851562 274.209960938 c 0
 117.172851562 338.569335938 129.220703125 395.45703125 129.220703125 400.763671875 c 0
 129.220703125 411.801757812 120.258789062 420.763671875 109.220703125 420.763671875 c 0
 99.3515625 420.763671875 91.1416015625 413.599609375 89.513671875 404.192382812 c 0
 82.1173683096 361.446234364 77.1587353882 316.814042939 77.1587353882 274.016310513 c 0
 77.1587353882 216.94269174 85.9771651703 163.131473738 109.592773438 121.40625 c 0
 137.369140625 72.3291015625 183.66015625 46.05859375 240.739257812 46.05859375 c 0
 258.755859375 46.05859375 341.883789062 47.1787109375 388.026367188 159.391601562 c 1
 388.035242316 157.145607658 388.039663044 154.91712825 388.039663044 152.706027081 c 0
 388.039663044 -115.518142786 322.985901161 -128.010742188 252.986328125 -128.010742188 c 0
 195.20703125 -128.010742188 138.163085938 -95.4462890625 108.094726562 -53.662109375 c 0
 103.96621604 -47.9244999261 98.01803889 -45.3639455414 92.1303460972 -45.3639455414 c 0
 81.8991438675 -45.3639455414 71.8505859375 -53.0960383765 71.8505859375 -65.3251953125 c 0
 71.8505859375 -84.7635554253 146.435393816 -168.010742188 252.986328125 -168.010742188 c 0
 367.7339752 -168.010742188 428.079153189 -108.674557345 428.079153189 152.720224942 c 0
 428.079153189 218.88747863 424.212502298 298.001749493 416.3828125 392.377929688 c 0
 415.532226562 402.634765625 406.926757812 410.705078125 396.452148438 410.705078125 c 0
 385.4140625 410.705078125 376.452148438 401.743164062 376.452148438 390.705078125 c 0
 376.452148438 388.717773438 377.940429688 368.83203125 377.940429688 341.916992188 c 0
 377.940429688 290.61633856 369.845959237 86.05859375 240.739257812 86.05859375 c 0
EndSplineSet
EndChar

StartChar: z
Encoding: 122 122 90
Width: 500
Flags: HW
LayerCount: 2
Fore
SplineSet
368.600585938 50.8759765625 m 0
 324.100659205 50.8759765625 273.340948763 54.6287693773 216.799648676 54.6287693773 c 0
 197.96772789 54.6287693773 178.494442599 54.2124637845 158.397460938 53.1025390625 c 1
 276.202148438 181.37890625 380.983398438 328.176757812 402.342773438 375.145507812 c 0
 403.567539708 377.838628108 404.137248303 380.631238888 404.137248303 383.366151768 c 0
 404.137248303 392.757955179 397.418880673 401.469348086 387.438476562 403.134765625 c 0
 308.989257812 416.228515625 209.9296875 414.201171875 125.206054688 419.802734375 c 0
 124.754146516 419.832607563 124.305020009 419.847317631 123.859146085 419.847317631 c 0
 112.877641507 419.847317631 103.869140625 410.924249065 103.869140625 399.846679688 c 0
 103.869140625 389.2578125 112.116210938 380.579101562 122.532226562 379.890625 c 0
 124.830803177 379.738671453 309.741728026 372.791623904 352.568359375 367.69140625 c 1
 309.4296875 296.9375 206.00390625 158.690429688 93.587890625 42.6494140625 c 0
 89.6941640632 38.6302836796 87.9527928945 33.7400487464 87.9527928945 28.9385401041 c 0
 87.9527928945 18.634087931 95.9730028148 8.73828125 107.951171875 8.73828125 c 0
 109.041992188 8.73828125 152.669921875 14.634765625 216.836914062 14.634765625 c 0
 270.958038055 14.634765625 322.79239799 10.885073099 368.985407301 10.885073099 c 0
 377.096020882 10.885073099 385.032719079 11.0006711645 392.77734375 11.2724609375 c 0
 403.485351562 11.6484375 412.064453125 20.4599609375 412.064453125 31.259765625 c 0
 412.064453125 42.2978515625 403.102539062 51.259765625 392.064453125 51.259765625 c 0
 390.897460938 51.259765625 382.942382812 50.8759765625 368.600585938 50.8759765625 c 0
EndSplineSet
EndChar

StartChar: braceleft
Encoding: 123 123 91
Width: 500
Flags: HW
LayerCount: 2
Fore
SplineSet
310.525390625 27.14453125 m 0
 246.453652176 27.14453125 235.349609375 91.5926218044 235.349609375 136.270507812 c 0
 235.349609375 177.169921875 252.001953125 214.98046875 252.001953125 268.78515625 c 0
 252.001953125 305.192382812 240.438476562 346.345703125 196.818359375 372.055664062 c 1
 227.616210938 390.16015625 257.095703125 426.415039062 257.095703125 498.866210938 c 0
 257.095703125 536.044604697 248.378531071 565.102968839 248.378531071 597.665096681 c 0
 248.378531071 598.597659474 248.385681074 599.533096126 248.400390625 600.471679688 c 0
 248.776220282 624.460569915 249.945668574 699.10546875 324.076171875 699.10546875 c 0
 346.749023438 699.10546875 363.498046875 693.095703125 369.1328125 693.095703125 c 0
 381.924945058 693.095703125 388.922471996 703.252138791 388.922471996 713.353555383 c 0
 388.922471996 721.705008876 384.139430501 730.018855009 373.893554688 732.524414062 c 0
 355.8828125 736.928710938 339.362304688 739.10546875 324.076171875 739.10546875 c 0
 289.689453125 739.10546875 208.37890625 725.579101562 208.37890625 597.642578125 c 0
 208.37890625 561.349609375 217.095703125 532.29296875 217.095703125 498.866210938 c 0
 217.095703125 402.897460938 156.34375 395.358398438 130.525390625 393.580078125 c 0
 118.430498631 392.747090962 112.138733703 383.113493743 112.138733703 373.504829435 c 0
 112.138733703 364.718021545 117.400223213 355.952063805 128.296875 353.956054688 c 0
 198.77734375 341.04296875 212.001953125 306.443359375 212.001953125 268.78515625 c 0
 212.001953125 219.633789062 195.349609375 183.15625 195.349609375 136.270507812 c 0
 195.349609375 45.1825576788 236.843025757 -12.7340765071 310.719014289 -12.7340765071 c 0
 328.945722191 -12.7340765071 349.143587013 -9.20863777137 371.17578125 -1.7861328125 c 0
 379.088867188 0.8798828125 384.793945312 8.365234375 384.793945312 17.1728515625 c 0
 384.793945312 28.2109375 375.83203125 37.1728515625 364.793945312 37.1728515625 c 0
 357.30078125 37.1728515625 337.413085938 27.14453125 310.525390625 27.14453125 c 0
EndSplineSet
EndChar

StartChar: bar
Encoding: 124 124 92
Width: 500
Flags: HW
LayerCount: 2
Fore
SplineSet
263.33984375 111.836914062 m 0
 263.33984375 252.013280668 276.223672279 398.912758794 276.223672279 526.915100625 c 0
 276.223672279 590.860181256 273.008358332 650.08925486 263.365234375 701.408203125 c 0
 261.624023438 710.676757812 253.48046875 717.698242188 243.708984375 717.698242188 c 0
 232.670898438 717.698242188 223.708984375 708.736328125 223.708984375 697.698242188 c 0
 223.708984375 689.502929688 236.215820312 648.498046875 236.215820312 527.004882812 c 0
 236.215820312 401.335644052 223.349095135 252.741127846 223.349095135 111.556202551 c 0
 223.349095135 84.465020246 223.822843022 57.646656237 224.952148438 31.3154296875 c 0
 225.408203125 20.6806640625 234.186523438 12.185546875 244.932617188 12.185546875 c 0
 255.971679688 12.185546875 264.932617188 21.1474609375 264.932617188 32.185546875 c 0
 264.932617188 32.982421875 263.33984375 64.6474609375 263.33984375 111.836914062 c 0
EndSplineSet
EndChar

StartChar: braceright
Encoding: 125 125 93
Width: 500
Flags: HW
LayerCount: 2
Fore
SplineSet
297.879882812 507.243164062 m 0
 297.879882812 540.723066077 306.154434274 574.961587222 306.154434274 610.264265067 c 0
 306.154434274 611.954650168 306.135462826 613.647475111 306.095703125 615.342773438 c 0
 305.37272723 646.157667534 295.221580513 741.491761203 197.282248124 741.491761203 c 0
 179.837430673 741.491761203 159.607424338 738.467169045 136.149414062 731.514648438 c 0
 127.875976562 729.063476562 121.833984375 721.399414062 121.833984375 712.3359375 c 0
 121.833984375 701.297851562 130.795898438 692.3359375 141.833984375 692.3359375 c 0
 147.252352647 692.3359375 171.303765781 701.335924 196.652462297 701.335924 c 0
 208.127022652 701.335924 219.867407932 699.491746567 230.265625 694.133789062 c 0
 255.857421875 680.947265625 266.154296875 647.774414062 266.154296875 610.268554688 c 0
 266.154296875 578.42578125 257.879882812 544.16796875 257.879882812 507.243164062 c 0
 257.879882812 479.756835938 265.060546875 412.342773438 331.784179688 379.262695312 c 1
 293.544921875 348.552734375 263.6015625 294.768554688 263.6015625 229.3203125 c 0
 263.6015625 186.288085938 278.759765625 157.02734375 278.759765625 126.091796875 c 0
 278.759765625 87.43359375 252.157226562 16.2509765625 196.357421875 16.2509765625 c 0
 173.415039062 16.2509765625 161.239257812 26.5732421875 152.001953125 26.5732421875 c 0
 139.468443961 26.5732421875 132.11688948 16.4181012528 132.11688948 6.25669012241 c 0
 132.11688948 -0.914622813905 135.7784691 -8.08905873882 143.864257812 -11.69921875 c 0
 162.590741265 -20.0598445249 180.137555047 -23.7776423932 196.34083933 -23.7776423932 c 0
 272.32158529 -23.7776423932 318.759765625 57.9721722805 318.759765625 126.091796875 c 0
 318.759765625 163.991210938 303.6015625 191.711914062 303.6015625 229.3203125 c 0
 303.6015625 304.10546875 352.703125 355.762695312 389.508789062 365.377929688 c 0
 399.494197547 367.986568908 404.275124554 376.283561762 404.275124554 384.592893561 c 0
 404.275124554 393.970757424 398.185538686 403.36433771 386.615234375 404.614257812 c 0
 368.335857854 406.588862223 297.879882812 419.867198002 297.879882812 507.243164062 c 0
EndSplineSet
EndChar

StartChar: asciitilde
Encoding: 126 126 94
Width: 500
Flags: HW
LayerCount: 2
Fore
SplineSet
355.560546875 392.891601562 m 0
 355.560546875 392.865234375 355.590820312 391.221679688 355.590820312 390.217773438 c 0
 355.590820312 346.84765625 328.46484375 323.08984375 309.305664062 323.08984375 c 0
 297.516601562 323.08984375 280.580078125 330.670898438 266.538085938 363.373046875 c 0
 249.774048778 402.413738109 220.853114536 421.017921508 191.917037798 421.017921508 c 0
 153.015118879 421.017921508 114.085830878 387.392064191 104.6328125 324.592773438 c 0
 104.479645787 323.575625109 104.405548028 322.567158188 104.405548028 321.573085502 c 0
 104.405548028 310.727731757 113.225297158 301.595703125 124.409179688 301.595703125 c 0
 134.428710938 301.595703125 142.73828125 308.98046875 144.185546875 318.598632812 c 0
 150.074199525 357.717533271 170.795039854 381.030181453 191.765867343 381.030181453 c 0
 205.76739967 381.030181453 219.880371125 370.637883032 229.764648438 347.619140625 c 0
 247.51171875 306.290039062 276.751953125 283.08984375 309.305664062 283.08984375 c 0
 358.618164062 283.08984375 395.590820312 332.72265625 395.590820312 390.217773438 c 0
 395.590820312 405.971855161 385.938658574 412.853417203 376.113555108 412.853417203 c 0
 365.929947385 412.853417203 355.560546875 405.460495817 355.560546875 392.891601562 c 0
EndSplineSet
EndChar

StartChar: lessequal.ligature
Encoding: 256 -1 95
Width: 1000
VWidth: 0
GlyphClass: 3
Flags: HW
LayerCount: 2
Fore
SplineSet
233.430664062 250.971679688 m 0
 231.601543261 251.488623464 229.771876292 251.733008777 227.979708697 251.733008777 c 0
 217.319647907 251.733008777 207.986328125 243.086570924 207.986328125 231.72265625 c 0
 207.986328125 222.571289062 214.146484375 214.84765625 222.541992188 212.473632812 c 0
 261.221679688 201.540039062 309.209960938 188.486328125 360.762695312 174.461914062 c 0
 508.716796875 134.212890625 687.416992188 85.3740234375 753.783203125 57.9619140625 c 0
 756.297715439 56.9233111504 758.866897211 56.4410865137 761.376678753 56.4410865137 c 0
 771.914568842 56.4410865137 781.405273438 64.9423774993 781.405273438 76.4560546875 c 0
 781.405273438 84.7958984375 776.2890625 91.9501953125 769.02734375 94.9501953125 c 0
 697.150390625 124.638671875 519.834960938 172.649414062 371.274414062 213.064453125 c 0
 319.7265625 227.086914062 271.807617188 240.123046875 233.430664062 250.971679688 c 0
753.775390625 193.47265625 m 0
 756.307654371 192.417325786 758.896906437 191.927559563 761.426172564 191.927559563 c 0
 771.961500754 191.927559563 781.456054688 200.425152314 781.456054688 211.942382812 c 0
 781.456054688 220.259765625 776.3671875 227.3984375 769.13671875 230.412109375 c 0
 698.973632812 259.653320312 387.645507812 320.62109375 276.650390625 372.78515625 c 1
 397.288085938 421.958007812 714.077148438 482.516601562 774.272460938 515.381835938 c 0
 781.418626492 519.283324929 784.628622363 525.972698735 784.628622363 532.635332049 c 0
 784.628622363 542.823048 777.12335263 552.948242188 764.708984375 552.948242188 c 0
 754.70703125 552.948242188 759.375976562 547.928710938 690.609375 528.39453125 c 0
 600.143554688 502.697265625 438.633789062 466.426757812 332.653320312 434.424804688 c 0
 283.334960938 419.532226562 244.779296875 406.231445312 223.344726562 390.237304688 c 0
 218.002722216 386.251242123 215.295325595 380.227689723 215.295325595 374.18894274 c 0
 215.295325595 368.615420532 217.601635624 363.028954739 222.271484375 359.01953125 c 0
 295.180664062 296.418945312 678.154296875 224.98828125 753.775390625 193.47265625 c 0
EndSplineSet
Ligature2: "ligatures-1" less equal
EndChar

StartChar: greaterequal.ligature
Encoding: 257 -1 96
Width: 1000
VWidth: 0
GlyphClass: 3
Flags: HW
LayerCount: 2
Fore
SplineSet
236.514648438 76.6328125 m 0
 228.359986514 73.0485550623 224.664552555 65.8384727359 224.664552555 58.6298015409 c 0
 224.664552555 48.4702376031 232.004706147 38.3134765625 244.546875 38.3134765625 c 0
 247.403320312 38.3134765625 250.120117188 38.9130859375 252.579101562 39.994140625 c 0
 419.477539062 113.348632812 642.233398438 146.072265625 774.234375 216.561523438 c 0
 781.488493408 220.435123275 784.749521247 227.180401837 784.749521247 233.901694786 c 0
 784.749521247 244.086293688 777.262023291 254.215820312 764.833984375 254.215820312 c 0
 761.4375 254.215820312 758.236328125 253.3671875 755.43359375 251.870117188 c 0
 630.4453125 185.125976562 405.418945312 150.868164062 236.514648438 76.6328125 c 0
226.646484375 212.250976562 m 0
 219.722880896 208.296376715 216.617452353 201.722171657 216.617452353 195.180470823 c 0
 216.617452353 184.986315576 224.158690727 174.87109375 236.543945312 174.87109375 c 0
 246.915039062 174.87109375 241.624023438 179.97265625 311.995117188 201.385742188 c 0
 380.91015625 222.356445312 570.583984375 270.94921875 662.426757812 299.834960938 c 0
 710.701171875 315.017578125 750.290039062 329.27734375 774.9140625 343.923828125 c 0
 781.389978244 347.776193927 784.693719129 354.45111747 784.693719129 361.146088907 c 0
 784.693719129 367.257841579 781.940504534 373.38630142 776.333984375 377.399414062 c 0
 708.522967234 425.942150693 311.604723866 496.897755243 245.657226562 536.98046875 c 0
 242.365686885 538.980594431 238.833902392 539.89122798 235.384788014 539.89122798 c 0
 224.960846332 539.89122798 215.291992188 531.573735839 215.291992188 519.875976562 c 0
 215.291992188 512.630859375 219.15234375 506.28125 224.926757812 502.771484375 c 0
 289.10546875 463.768554688 596.881835938 405.404296875 717.052734375 361.099609375 c 1
 582.5390625 308.322265625 286.979492188 246.709960938 226.646484375 212.250976562 c 0
EndSplineSet
Ligature2: "ligatures-1" greater equal
EndChar

StartChar: notequal.ligature
Encoding: 258 -1 97
Width: 1000
VWidth: 0
GlyphClass: 3
Flags: HW
LayerCount: 2
Fore
SplineSet
639.294921875 570.604492188 m 0
 640.742754293 573.501871956 641.408469961 576.520750158 641.408469961 579.468175138 c 0
 641.408469961 589.947953411 632.992436623 599.524414062 621.392578125 599.524414062 c 0
 613.55859375 599.524414062 606.771484375 595.010742188 603.490234375 588.444335938 c 0
 584.796573193 551.033587933 559.692737393 506.091838648 532.864026441 459.365275482 c 1
 484.545395116 459.097415623 438.056300526 458.791992188 436.98046875 458.791992188 c 0
 425.170898438 458.791992188 311.344726562 459.373046875 310.075195312 459.373046875 c 0
 276.087890625 459.373046875 241.643554688 458.928710938 199.346679688 457.270507812 c 0
 188.676757812 456.852539062 180.142578125 448.057617188 180.142578125 437.286132812 c 0
 180.142578125 426.248046875 189.104492188 417.286132812 200.142578125 417.286132812 c 0
 204.614257812 417.286132812 241.248046875 419.373046875 310.075195312 419.373046875 c 0
 311.344726562 419.373046875 424.776367188 418.791992188 436.98046875 418.791992188 c 0
 438.254036481 418.791992188 464.264875187 419.043734366 509.714752082 419.286451946 c 1
 456.187300767 327.030769467 456.187300767 327.030769467 450.363003014 316.873498493 c 1
 442.249222347 316.822828718 437.32231116 316.791992188 436.98046875 316.791992188 c 0
 425.170898438 316.791992188 311.344726562 317.373046875 310.075195312 317.373046875 c 0
 276.087890625 317.373046875 241.643554688 316.928710938 199.346679688 315.270507812 c 0
 188.676757812 314.852539062 180.142578125 306.057617188 180.142578125 295.286132812 c 0
 180.142578125 284.248046875 189.104492188 275.286132812 200.142578125 275.286132812 c 0
 204.614257812 275.286132812 241.248046875 277.373046875 310.075195312 277.373046875 c 0
 311.180737129 277.373046875 397.343213183 276.932410277 427.643905595 276.818573384 c 1
 390.122715198 209.738784549 370.35311845 148.478303023 366.751953125 140.411132812 c 1
 366.751953125 129.373046875 375.713867188 120.411132812 386.751953125 120.411132812 c 0
 397.413085938 120.411132812 406.137695312 128.771484375 406.720703125 139.288085938 c 0
 407.759760664 157.977927266 445.825144539 227.942029152 473.686132392 277.069128685 c 1
 514.586299865 277.345909401 587.651323262 277.73046875 682.877929688 277.73046875 c 0
 722.06640625 277.73046875 757.21484375 277.891601562 800.359375 278.955078125 c 0
 811.166015625 279.221679688 819.857421875 288.078125 819.857421875 298.94921875 c 0
 819.857421875 309.987304688 810.895507812 318.94921875 799.857421875 318.94921875 c 0
 798.145507812 318.94921875 810.235351562 317.760742188 628.657226562 317.760742188 c 0
 603.119169384 317.760742188 542.854555377 317.431432622 496.658611169 317.156812989 c 1
 515.789070691 350.271621684 536.175718982 385.06624017 556.079375166 419.49675588 c 1
 591.733499305 419.630964019 634.438559705 419.73046875 682.877929688 419.73046875 c 0
 722.06640625 419.73046875 757.21484375 419.891601562 800.359375 420.955078125 c 0
 811.166015625 421.221679688 819.857421875 430.078125 819.857421875 440.94921875 c 0
 819.857421875 451.987304688 810.895507812 460.94921875 799.857421875 460.94921875 c 0
 798.145507812 460.94921875 810.235351562 459.760742188 628.657226562 459.760742188 c 0
 617.451747646 459.760742188 599.560569111 459.697342155 579.105663009 459.60298041 c 1
 601.70748458 499.306773029 622.70747112 537.408336782 639.294921875 570.604492188 c 0
EndSplineSet
Ligature2: "ligatures-1" exclam equal
EndChar

StartChar: plusplus.ligature
Encoding: 259 -1 98
Width: 1000
VWidth: 0
GlyphClass: 3
Flags: HW
LayerCount: 2
Fore
SplineSet
353.928450476 359.615811571 m 1
 431.943425948 359.621058214 634.947135685 362.34766238 637.785819815 362.358863094 c 1
 638.216783429 269.733734313 638.244559139 268.319585493 638.940429688 232.890625 c 0
 639.153320312 222.036132812 648.03125 213.290039062 658.936523438 213.290039062 c 0
 669.979482246 213.290039062 678.936574193 222.256978601 678.936574193 233.287607695 c 0
 678.936574193 233.421257309 678.935259265 233.555209878 678.932617188 233.689453125 c 0
 678.243683734 268.750466683 678.213500674 270.286534789 677.785170317 362.486947468 c 1
 713.040957469 362.601674319 746.170098392 362.797556385 786.216796875 363.78515625 c 0
 797.0234375 364.051757812 805.71484375 372.908203125 805.71484375 383.779296875 c 0
 805.71484375 394.823729006 796.744815632 403.779639907 785.716021201 403.779639907 c 0
 785.548776406 403.779639907 785.38105818 403.77758042 785.212890625 403.7734375 c 0
 747.987495007 402.85536655 714.150595754 402.645757014 677.488744753 402.501410428 c 1
 677.042609869 442.070885943 676.007623329 482.63261181 673.19140625 531.174804688 c 0
 672.583007812 541.666992188 663.870117188 550 653.225585938 550 c 0
 642.156611117 550 633.225355424 541.002096197 633.225355424 530.009046392 c 0
 633.225355424 529.616862696 633.236722668 529.22213968 633.259765625 528.825195312 c 0
 636.025873236 481.143726282 637.046683351 441.412578369 637.4890156 402.345350591 c 1
 634.650355157 402.332532025 431.987611181 399.620942056 353.633200446 399.615792856 c 1
 353.188041235 439.242882996 352.153910403 479.854738917 349.333007812 528.471679688 c 0
 348.724609375 538.963867188 340.010742188 547.296875 329.3671875 547.296875 c 0
 318.29821268 547.296875 309.366956986 538.298060754 309.366956986 527.305827307 c 0
 309.366956986 526.913672735 309.378324231 526.518981041 309.401367188 526.122070312 c 0
 312.168773964 478.424199231 313.189631403 438.6825434 313.631582466 399.602697838 c 1
 279.480463755 399.528374452 244.512078159 399.089349105 201.346679688 397.397460938 c 0
 190.676757812 396.979492188 182.142578125 388.184570312 182.142578125 377.413085938 c 0
 182.142578125 366.375 191.104492188 357.413085938 202.142578125 357.413085938 c 0
 203.316950534 357.413085938 241.752179772 359.396918212 313.927896837 359.59872313 c 1
 314.356404874 267.169907105 314.392005601 265.355473892 315.08203125 230.1875 c 0
 315.294921875 219.333007812 324.172851562 210.586914062 335.078125 210.586914062 c 0
 346.121650473 210.586914062 355.078141589 219.554773894 355.078141589 230.586180806 c 0
 355.078141589 230.719266943 355.076837997 230.852653424 355.07421875 230.986328125 c 0
 354.386939488 265.999062761 354.354532545 267.650001117 353.928450476 359.615811571 c 1
EndSplineSet
Ligature2: "ligatures-1" plus plus
EndChar

StartChar: rightequal
Encoding: 260 -1 99
Width: 500
VWidth: 0
Flags: HW
LayerCount: 2
Fore
SplineSet
20.142578125 295.286132812 m 0
 20.142578125 284.232027302 29.1237427035 275.286097696 40.1392050694 275.286097696 c 0
 40.4044814474 275.286097696 40.6709376196 275.291285902 40.9384765625 275.301757812 c 0
 121.64091008 278.465664357 331.670592282 277.755451653 380.359375 278.956054688 c 0
 391.166015625 279.22265625 399.857421875 288.079101562 399.857421875 298.94921875 c 0
 399.857421875 309.994595529 390.887421899 318.949562426 379.858651229 318.949562426 c 0
 379.691389231 318.949562426 379.523653702 318.947502724 379.35546875 318.943359375 c 0
 375.95621547 318.859555623 96.649724336 317.517900172 39.3466796875 315.271484375 c 0
 28.6767578125 314.852539062 20.142578125 306.05859375 20.142578125 295.286132812 c 0
20.142578125 437.286132812 m 0
 20.142578125 426.232027302 29.1237427035 417.286097696 40.1392050694 417.286097696 c 0
 40.4044814474 417.286097696 40.6709376196 417.291285902 40.9384765625 417.301757812 c 0
 121.64091008 420.465664357 331.670592282 419.755451653 380.359375 420.956054688 c 0
 391.166015625 421.22265625 399.857421875 430.079101562 399.857421875 440.94921875 c 0
 399.857421875 451.994595529 390.887421899 460.949562426 379.858651229 460.949562426 c 0
 379.691389231 460.949562426 379.523653702 460.947502724 379.35546875 460.943359375 c 0
 375.95621547 460.859555623 96.649724336 459.517900172 39.3466796875 457.271484375 c 0
 28.6767578125 456.852539062 20.142578125 448.05859375 20.142578125 437.286132812 c 0
EndSplineSet
Substitution2: "longequal-1" longequal
EndChar

StartChar: lefthyphen
Encoding: 261 -1 100
Width: 500
VWidth: 0
Flags: HW
LayerCount: 2
Fore
SplineSet
100.142578125 358.326171875 m 0
 100.142578125 347.272600986 109.122873993 338.326071004 120.137606826 338.326071004 c 0
 120.403411208 338.326071004 120.670400323 338.331280923 120.938476562 338.341796875 c 0
 201.600160101 341.504105833 411.76827972 340.796923 460.359375 341.995117188 c 0
 471.166015625 342.26171875 479.857421875 351.118164062 479.857421875 361.989257812 c 0
 479.857421875 373.033689944 470.887393757 381.989600844 459.858599326 381.989600844 c 0
 459.691354531 381.989600844 459.523636305 381.987541358 459.35546875 381.983398438 c 0
 455.956217416 381.899511512 176.652754496 380.557081461 119.346679688 378.310546875 c 0
 108.676757812 377.892578125 100.142578125 369.09765625 100.142578125 358.326171875 c 0
EndSplineSet
Substitution2: "longhyphen-1" longhyphen
EndChar

StartChar: leftequal
Encoding: 262 -1 101
Width: 500
VWidth: 0
Flags: HW
LayerCount: 2
Fore
SplineSet
100.142578125 295.286132812 m 0
 100.142578125 284.232027302 109.123742704 275.286097696 120.139205069 275.286097696 c 0
 120.404481447 275.286097696 120.67093762 275.291285902 120.938476562 275.301757812 c 0
 201.64091008 278.465664357 411.670592282 277.755451653 460.359375 278.956054688 c 0
 471.166015625 279.22265625 479.857421875 288.079101562 479.857421875 298.94921875 c 0
 479.857421875 309.994595529 470.887421899 318.949562426 459.858651229 318.949562426 c 0
 459.691389231 318.949562426 459.523653702 318.947502724 459.35546875 318.943359375 c 0
 455.95621547 318.859555623 176.649724336 317.517900172 119.346679688 315.271484375 c 0
 108.676757812 314.852539062 100.142578125 306.05859375 100.142578125 295.286132812 c 0
100.142578125 437.286132812 m 0
 100.142578125 426.232027302 109.123742704 417.286097696 120.139205069 417.286097696 c 0
 120.404481447 417.286097696 120.67093762 417.291285902 120.938476562 417.301757812 c 0
 201.64091008 420.465664357 411.670592282 419.755451653 460.359375 420.956054688 c 0
 471.166015625 421.22265625 479.857421875 430.079101562 479.857421875 440.94921875 c 0
 479.857421875 451.994595529 470.887421899 460.949562426 459.858651229 460.949562426 c 0
 459.691389231 460.949562426 459.523653702 460.947502724 459.35546875 460.943359375 c 0
 455.95621547 460.859555623 176.649724336 459.517900172 119.346679688 457.271484375 c 0
 108.676757812 456.852539062 100.142578125 448.05859375 100.142578125 437.286132812 c 0
EndSplineSet
Substitution2: "longequal-1" longequal
EndChar

StartChar: leftarrowhead
Encoding: 263 -1 102
Width: 500
VWidth: 0
Flags: HW
LayerCount: 2
Fore
SplineSet
353.775390625 193.47265625 m 0
 356.307654371 192.417325786 358.896906437 191.927559563 361.426172564 191.927559563 c 0
 371.961500754 191.927559563 381.456054688 200.425152314 381.456054688 211.942382812 c 0
 381.456054688 220.259765625 376.3671875 227.3984375 369.13671875 230.412109375 c 0
 313.652128094 253.536096013 250.783303682 302.561982267 193.881406894 350.459282111 c 1
 239.009253705 348.305592802 289.514542398 347.295925511 347.456033424 347.295925511 c 0
 383.700018265 347.295925511 422.853673162 347.690992583 465.420898438 348.448242188 c 0
 476.291992188 348.641601562 485.05859375 357.528320312 485.05859375 368.4453125 c 0
 485.05859375 379.483398438 476.096679688 388.4453125 465.05859375 388.4453125 c 0
 462.68359375 388.4453125 408.1171875 387.28125 348.120117188 387.28125 c 0
 278.248328412 387.28125 226.116636317 388.956669408 190.933534428 390.658371406 c 1
 252.05676165 435.847172813 326.129429781 489.096699179 374.272460938 515.381835938 c 0
 381.418626492 519.283324929 384.628622363 525.972698735 384.628622363 532.635332049 c 0
 384.628622363 542.823048 377.12335263 552.948242188 364.708984375 552.948242188 c 0
 348.9562368 552.948242188 268.367497561 498.454969746 123.344726562 390.237304688 c 0
 121.065385915 388.536520892 115.289064578 383.325851664 115.2890625 374.198242188 c 0
 115.2890625 371.210042413 116.041362878 364.346151722 122.303947373 358.991660032 c 0
 206.161271086 286.990788409 278.591733476 224.805528376 353.775390625 193.47265625 c 0
EndSplineSet
EndChar

StartChar: rightarrowhead
Encoding: 264 -1 103
Width: 500
VWidth: 0
Flags: HW
LayerCount: 2
Fore
SplineSet
126.646484375 212.250976562 m 0
 119.722880896 208.296376715 116.617452353 201.722171657 116.617452353 195.180470823 c 0
 116.617452353 184.986315576 124.158690727 174.87109375 136.543945312 174.87109375 c 0
 164.23855979 174.87109375 281.672889197 288.46201585 374.9140625 343.923828125 c 0
 377.097589738 345.22275572 384.71093225 350.51272636 384.7109375 361.125976562 c 0
 384.7109375 371.317140192 384.7109375 371.317140192 343.84375 400.76171875 c 0
 283.3046875 444.376953125 204.387695312 501.288085938 145.657226562 536.98046875 c 0
 142.365686885 538.980594431 138.833902392 539.89122798 135.384788014 539.89122798 c 0
 124.960846332 539.89122798 115.291992188 531.573735839 115.291992188 519.875976562 c 0
 115.291992188 512.630859375 119.15234375 506.28125 124.926757812 502.771484375 c 0
 157.308935916 483.092965673 190.200287844 461.754824568 300.583707889 382.586647857 c 1
 215.578330821 382.403171573 90.5568666922 374.130462787 90.5568666922 374.070793301 c 0
 90.5568666922 374.070577321 90.5585046651 374.070468944 90.5617884375 374.070468944 c 0
 90.5669939817 374.070468944 90.5763353599 374.07074129 90.58984375 374.071289062 c 1
 58.216796875 374.071289062 35.69140625 377.373046875 35.1357421875 377.373046875 c 0
 24.09765625 377.373046875 15.1357421875 368.411132812 15.1357421875 357.373046875 c 0
 15.1357421875 347.245117188 22.6796875 338.865234375 32.451171875 337.551757812 c 0
 51.3335005444 335.013660458 70.5622064396 334.062548195 90.5896394893 334.062548195 c 0
 149.685879126 334.062548195 215.736645265 342.343893587 300.363866473 342.569522911 c 1
 233.783240432 294.701428357 173.440665627 238.977426131 126.646484375 212.250976562 c 0
EndSplineSet
EndChar

StartChar: righthyphen
Encoding: 265 -1 104
Width: 500
VWidth: 0
Flags: HW
LayerCount: 2
Fore
SplineSet
20.142578125 358.326171875 m 0
 20.142578125 347.272600986 29.122873993 338.326071004 40.1376068256 338.326071004 c 0
 40.4034112077 338.326071004 40.670400323 338.331280923 40.9384765625 338.341796875 c 0
 121.600160101 341.504105833 331.76827972 340.796923 380.359375 341.995117188 c 0
 391.166015625 342.26171875 399.857421875 351.118164062 399.857421875 361.989257812 c 0
 399.857421875 373.033689944 390.887393757 381.989600844 379.858599326 381.989600844 c 0
 379.691354531 381.989600844 379.523636305 381.987541358 379.35546875 381.983398438 c 0
 375.956217416 381.899511512 96.6527544958 380.557081461 39.3466796875 378.310546875 c 0
 28.6767578125 377.892578125 20.142578125 369.09765625 20.142578125 358.326171875 c 0
EndSplineSet
Substitution2: "longhyphen-1" longhyphen
EndChar

StartChar: longequal
Encoding: 266 -1 105
Width: 500
VWidth: 0
Flags: HW
LayerCount: 2
Fore
SplineSet
20.142578125 295.286132812 m 0
 20.142578125 284.232027302 29.1237427035 275.286097696 40.1392050694 275.286097696 c 0
 40.4044814474 275.286097696 40.6709376196 275.291285902 40.9384765625 275.301757812 c 0
 95.7371254528 277.450114915 456.166283592 278.852571181 460.359375 278.956054688 c 0
 471.166015625 279.22265625 479.857421875 288.079101562 479.857421875 298.94921875 c 0
 479.857421875 309.994595529 470.887421899 318.949562426 459.858651229 318.949562426 c 0
 459.691389231 318.949562426 459.523653702 318.947502724 459.35546875 318.943359375 c 0
 455.156496444 318.839830966 95.91277569 317.488806363 39.3466796875 315.271484375 c 0
 28.6767578125 314.852539062 20.142578125 306.05859375 20.142578125 295.286132812 c 0
20.142578125 437.286132812 m 0
 20.142578125 426.232027302 29.1237427035 417.286097696 40.1392050694 417.286097696 c 0
 40.4044814474 417.286097696 40.6709376196 417.291285902 40.9384765625 417.301757812 c 0
 95.7371254528 419.450114915 456.166283592 420.852571181 460.359375 420.956054688 c 0
 471.166015625 421.22265625 479.857421875 430.079101562 479.857421875 440.94921875 c 0
 479.857421875 451.994595529 470.887421899 460.949562426 459.858651229 460.949562426 c 0
 459.691389231 460.949562426 459.523653702 460.947502724 459.35546875 460.943359375 c 0
 455.156496444 460.839830966 95.91277569 459.488806363 39.3466796875 457.271484375 c 0
 28.6767578125 456.852539062 20.142578125 448.05859375 20.142578125 437.286132812 c 0
EndSplineSet
EndChar

StartChar: longhyphen
Encoding: 267 -1 106
Width: 500
VWidth: 0
Flags: HW
LayerCount: 2
Fore
SplineSet
20.142578125 358.326171875 m 0
 20.142578125 347.272600986 29.122873993 338.326071004 40.1376068256 338.326071004 c 0
 40.4034112077 338.326071004 40.670400323 338.331280923 40.9384765625 338.341796875 c 0
 95.7282324466 340.489805331 456.1662812 341.891734091 460.359375 341.995117188 c 0
 471.166015625 342.26171875 479.857421875 351.118164062 479.857421875 361.989257812 c 0
 479.857421875 373.033689944 470.887393757 381.989600844 459.858599326 381.989600844 c 0
 459.691354531 381.989600844 459.523636305 381.987541358 459.35546875 381.983398438 c 0
 455.156498896 381.879767178 95.9036550371 380.527511344 39.3466796875 378.310546875 c 0
 28.6767578125 377.892578125 20.142578125 369.09765625 20.142578125 358.326171875 c 0
EndSplineSet
EndChar
